%TF.GenerationSoftware,KiCad,Pcbnew,(5.1.10)-1*%
%TF.CreationDate,2022-10-07T13:26:38-03:00*%
%TF.ProjectId,CoCoEPROMpak,436f436f-4550-4524-9f4d-70616b2e6b69,rev?*%
%TF.SameCoordinates,Original*%
%TF.FileFunction,Legend,Bot*%
%TF.FilePolarity,Positive*%
%FSLAX46Y46*%
G04 Gerber Fmt 4.6, Leading zero omitted, Abs format (unit mm)*
G04 Created by KiCad (PCBNEW (5.1.10)-1) date 2022-10-07 13:26:38*
%MOMM*%
%LPD*%
G01*
G04 APERTURE LIST*
%ADD10C,0.113792*%
%ADD11C,0.101600*%
G04 APERTURE END LIST*
D10*
X143473424Y-44436758D02*
X143537770Y-44372411D01*
X143602117Y-44179371D01*
X143602117Y-44050678D01*
X143537770Y-43857638D01*
X143409077Y-43728944D01*
X143280384Y-43664598D01*
X143022997Y-43600251D01*
X142829957Y-43600251D01*
X142572570Y-43664598D01*
X142443877Y-43728944D01*
X142315184Y-43857638D01*
X142250837Y-44050678D01*
X142250837Y-44179371D01*
X142315184Y-44372411D01*
X142379530Y-44436758D01*
X143602117Y-45208918D02*
X143537770Y-45080224D01*
X143473424Y-45015878D01*
X143344730Y-44951531D01*
X142958650Y-44951531D01*
X142829957Y-45015878D01*
X142765610Y-45080224D01*
X142701264Y-45208918D01*
X142701264Y-45401958D01*
X142765610Y-45530651D01*
X142829957Y-45594998D01*
X142958650Y-45659344D01*
X143344730Y-45659344D01*
X143473424Y-45594998D01*
X143537770Y-45530651D01*
X143602117Y-45401958D01*
X143602117Y-45208918D01*
X143473424Y-47010624D02*
X143537770Y-46946278D01*
X143602117Y-46753238D01*
X143602117Y-46624544D01*
X143537770Y-46431504D01*
X143409077Y-46302811D01*
X143280384Y-46238464D01*
X143022997Y-46174118D01*
X142829957Y-46174118D01*
X142572570Y-46238464D01*
X142443877Y-46302811D01*
X142315184Y-46431504D01*
X142250837Y-46624544D01*
X142250837Y-46753238D01*
X142315184Y-46946278D01*
X142379530Y-47010624D01*
X143602117Y-47782784D02*
X143537770Y-47654091D01*
X143473424Y-47589744D01*
X143344730Y-47525398D01*
X142958650Y-47525398D01*
X142829957Y-47589744D01*
X142765610Y-47654091D01*
X142701264Y-47782784D01*
X142701264Y-47975824D01*
X142765610Y-48104518D01*
X142829957Y-48168864D01*
X142958650Y-48233211D01*
X143344730Y-48233211D01*
X143473424Y-48168864D01*
X143537770Y-48104518D01*
X143602117Y-47975824D01*
X143602117Y-47782784D01*
X142894304Y-48812331D02*
X142894304Y-49262758D01*
X143602117Y-49455798D02*
X143602117Y-48812331D01*
X142250837Y-48812331D01*
X142250837Y-49455798D01*
X143602117Y-50034918D02*
X142250837Y-50034918D01*
X142250837Y-50549691D01*
X142315184Y-50678384D01*
X142379530Y-50742731D01*
X142508224Y-50807078D01*
X142701264Y-50807078D01*
X142829957Y-50742731D01*
X142894304Y-50678384D01*
X142958650Y-50549691D01*
X142958650Y-50034918D01*
X143602117Y-52158358D02*
X142958650Y-51707931D01*
X143602117Y-51386198D02*
X142250837Y-51386198D01*
X142250837Y-51900971D01*
X142315184Y-52029664D01*
X142379530Y-52094011D01*
X142508224Y-52158358D01*
X142701264Y-52158358D01*
X142829957Y-52094011D01*
X142894304Y-52029664D01*
X142958650Y-51900971D01*
X142958650Y-51386198D01*
X142250837Y-52994864D02*
X142250837Y-53252251D01*
X142315184Y-53380944D01*
X142443877Y-53509638D01*
X142701264Y-53573984D01*
X143151690Y-53573984D01*
X143409077Y-53509638D01*
X143537770Y-53380944D01*
X143602117Y-53252251D01*
X143602117Y-52994864D01*
X143537770Y-52866171D01*
X143409077Y-52737478D01*
X143151690Y-52673131D01*
X142701264Y-52673131D01*
X142443877Y-52737478D01*
X142315184Y-52866171D01*
X142250837Y-52994864D01*
X143602117Y-54153104D02*
X142250837Y-54153104D01*
X143216037Y-54603531D01*
X142250837Y-55053958D01*
X143602117Y-55053958D01*
X142701264Y-55697424D02*
X144052544Y-55697424D01*
X142765610Y-55697424D02*
X142701264Y-55826118D01*
X142701264Y-56083504D01*
X142765610Y-56212198D01*
X142829957Y-56276544D01*
X142958650Y-56340891D01*
X143344730Y-56340891D01*
X143473424Y-56276544D01*
X143537770Y-56212198D01*
X143602117Y-56083504D01*
X143602117Y-55826118D01*
X143537770Y-55697424D01*
X143602117Y-57499131D02*
X142894304Y-57499131D01*
X142765610Y-57434784D01*
X142701264Y-57306091D01*
X142701264Y-57048704D01*
X142765610Y-56920011D01*
X143537770Y-57499131D02*
X143602117Y-57370438D01*
X143602117Y-57048704D01*
X143537770Y-56920011D01*
X143409077Y-56855664D01*
X143280384Y-56855664D01*
X143151690Y-56920011D01*
X143087344Y-57048704D01*
X143087344Y-57370438D01*
X143022997Y-57499131D01*
X143602117Y-58142598D02*
X142250837Y-58142598D01*
X143087344Y-58271291D02*
X143602117Y-58657371D01*
X142701264Y-58657371D02*
X143216037Y-58142598D01*
X142701264Y-60137344D02*
X143602117Y-60459078D01*
X142701264Y-60780811D01*
X143602117Y-62003398D02*
X143602117Y-61231238D01*
X143602117Y-61617318D02*
X142250837Y-61617318D01*
X142443877Y-61488624D01*
X142572570Y-61359931D01*
X142636917Y-61231238D01*
X145614136Y-44436758D02*
X145678482Y-44372411D01*
X145742829Y-44179371D01*
X145742829Y-44050678D01*
X145678482Y-43857638D01*
X145549789Y-43728944D01*
X145421096Y-43664598D01*
X145163709Y-43600251D01*
X144970669Y-43600251D01*
X144713282Y-43664598D01*
X144584589Y-43728944D01*
X144455896Y-43857638D01*
X144391549Y-44050678D01*
X144391549Y-44179371D01*
X144455896Y-44372411D01*
X144520242Y-44436758D01*
X145742829Y-45208918D02*
X145678482Y-45080224D01*
X145614136Y-45015878D01*
X145485442Y-44951531D01*
X145099362Y-44951531D01*
X144970669Y-45015878D01*
X144906322Y-45080224D01*
X144841976Y-45208918D01*
X144841976Y-45401958D01*
X144906322Y-45530651D01*
X144970669Y-45594998D01*
X145099362Y-45659344D01*
X145485442Y-45659344D01*
X145614136Y-45594998D01*
X145678482Y-45530651D01*
X145742829Y-45401958D01*
X145742829Y-45208918D01*
X144841976Y-46238464D02*
X146193256Y-46238464D01*
X144906322Y-46238464D02*
X144841976Y-46367158D01*
X144841976Y-46624544D01*
X144906322Y-46753238D01*
X144970669Y-46817584D01*
X145099362Y-46881931D01*
X145485442Y-46881931D01*
X145614136Y-46817584D01*
X145678482Y-46753238D01*
X145742829Y-46624544D01*
X145742829Y-46367158D01*
X145678482Y-46238464D01*
X144841976Y-47332358D02*
X145742829Y-47654091D01*
X144841976Y-47975824D02*
X145742829Y-47654091D01*
X146064562Y-47525398D01*
X146128909Y-47461051D01*
X146193256Y-47332358D01*
X145742829Y-48490598D02*
X144841976Y-48490598D01*
X145099362Y-48490598D02*
X144970669Y-48554944D01*
X144906322Y-48619291D01*
X144841976Y-48747984D01*
X144841976Y-48876678D01*
X145742829Y-49327104D02*
X144841976Y-49327104D01*
X144391549Y-49327104D02*
X144455896Y-49262758D01*
X144520242Y-49327104D01*
X144455896Y-49391451D01*
X144391549Y-49327104D01*
X144520242Y-49327104D01*
X144841976Y-50549691D02*
X145935869Y-50549691D01*
X146064562Y-50485344D01*
X146128909Y-50420998D01*
X146193256Y-50292304D01*
X146193256Y-50099264D01*
X146128909Y-49970571D01*
X145678482Y-50549691D02*
X145742829Y-50420998D01*
X145742829Y-50163611D01*
X145678482Y-50034918D01*
X145614136Y-49970571D01*
X145485442Y-49906224D01*
X145099362Y-49906224D01*
X144970669Y-49970571D01*
X144906322Y-50034918D01*
X144841976Y-50163611D01*
X144841976Y-50420998D01*
X144906322Y-50549691D01*
X145742829Y-51193158D02*
X144391549Y-51193158D01*
X145742829Y-51772278D02*
X145035016Y-51772278D01*
X144906322Y-51707931D01*
X144841976Y-51579238D01*
X144841976Y-51386198D01*
X144906322Y-51257504D01*
X144970669Y-51193158D01*
X144841976Y-52222704D02*
X144841976Y-52737478D01*
X144391549Y-52415744D02*
X145549789Y-52415744D01*
X145678482Y-52480091D01*
X145742829Y-52608784D01*
X145742829Y-52737478D01*
X144520242Y-54153104D02*
X144455896Y-54217451D01*
X144391549Y-54346144D01*
X144391549Y-54667878D01*
X144455896Y-54796571D01*
X144520242Y-54860918D01*
X144648936Y-54925264D01*
X144777629Y-54925264D01*
X144970669Y-54860918D01*
X145742829Y-54088758D01*
X145742829Y-54925264D01*
X144391549Y-55761771D02*
X144391549Y-55890464D01*
X144455896Y-56019158D01*
X144520242Y-56083504D01*
X144648936Y-56147851D01*
X144906322Y-56212198D01*
X145228056Y-56212198D01*
X145485442Y-56147851D01*
X145614136Y-56083504D01*
X145678482Y-56019158D01*
X145742829Y-55890464D01*
X145742829Y-55761771D01*
X145678482Y-55633078D01*
X145614136Y-55568731D01*
X145485442Y-55504384D01*
X145228056Y-55440038D01*
X144906322Y-55440038D01*
X144648936Y-55504384D01*
X144520242Y-55568731D01*
X144455896Y-55633078D01*
X144391549Y-55761771D01*
X145742829Y-57499131D02*
X145742829Y-56726971D01*
X145742829Y-57113051D02*
X144391549Y-57113051D01*
X144584589Y-56984358D01*
X144713282Y-56855664D01*
X144777629Y-56726971D01*
X144391549Y-57949558D02*
X144391549Y-58786064D01*
X144906322Y-58335638D01*
X144906322Y-58528678D01*
X144970669Y-58657371D01*
X145035016Y-58721718D01*
X145163709Y-58786064D01*
X145485442Y-58786064D01*
X145614136Y-58721718D01*
X145678482Y-58657371D01*
X145742829Y-58528678D01*
X145742829Y-58142598D01*
X145678482Y-58013904D01*
X145614136Y-57949558D01*
X145742829Y-60394731D02*
X144391549Y-60394731D01*
X144906322Y-60394731D02*
X144841976Y-60523424D01*
X144841976Y-60780811D01*
X144906322Y-60909504D01*
X144970669Y-60973851D01*
X145099362Y-61038198D01*
X145485442Y-61038198D01*
X145614136Y-60973851D01*
X145678482Y-60909504D01*
X145742829Y-60780811D01*
X145742829Y-60523424D01*
X145678482Y-60394731D01*
X144841976Y-61488624D02*
X145742829Y-61810358D01*
X144841976Y-62132091D02*
X145742829Y-61810358D01*
X146064562Y-61681664D01*
X146128909Y-61617318D01*
X146193256Y-61488624D01*
X145742829Y-63676411D02*
X144391549Y-63676411D01*
X145356749Y-64126838D01*
X144391549Y-64577264D01*
X145742829Y-64577264D01*
X145742829Y-65799851D02*
X145035016Y-65799851D01*
X144906322Y-65735504D01*
X144841976Y-65606811D01*
X144841976Y-65349424D01*
X144906322Y-65220731D01*
X145678482Y-65799851D02*
X145742829Y-65671158D01*
X145742829Y-65349424D01*
X145678482Y-65220731D01*
X145549789Y-65156384D01*
X145421096Y-65156384D01*
X145292402Y-65220731D01*
X145228056Y-65349424D01*
X145228056Y-65671158D01*
X145163709Y-65799851D01*
X145742829Y-66443318D02*
X144841976Y-66443318D01*
X145099362Y-66443318D02*
X144970669Y-66507664D01*
X144906322Y-66572011D01*
X144841976Y-66700704D01*
X144841976Y-66829398D01*
X145742829Y-67279824D02*
X144391549Y-67279824D01*
X145228056Y-67408518D02*
X145742829Y-67794598D01*
X144841976Y-67794598D02*
X145356749Y-67279824D01*
X144391549Y-69789344D02*
X145356749Y-69789344D01*
X145549789Y-69724998D01*
X145678482Y-69596304D01*
X145742829Y-69403264D01*
X145742829Y-69274571D01*
X145614136Y-70432811D02*
X145678482Y-70497158D01*
X145742829Y-70432811D01*
X145678482Y-70368464D01*
X145614136Y-70432811D01*
X145742829Y-70432811D01*
X145035016Y-72556251D02*
X145099362Y-72749291D01*
X145163709Y-72813638D01*
X145292402Y-72877984D01*
X145485442Y-72877984D01*
X145614136Y-72813638D01*
X145678482Y-72749291D01*
X145742829Y-72620598D01*
X145742829Y-72105824D01*
X144391549Y-72105824D01*
X144391549Y-72556251D01*
X144455896Y-72684944D01*
X144520242Y-72749291D01*
X144648936Y-72813638D01*
X144777629Y-72813638D01*
X144906322Y-72749291D01*
X144970669Y-72684944D01*
X145035016Y-72556251D01*
X145035016Y-72105824D01*
X145742829Y-73650144D02*
X145678482Y-73521451D01*
X145549789Y-73457104D01*
X144391549Y-73457104D01*
X145742829Y-74744038D02*
X145035016Y-74744038D01*
X144906322Y-74679691D01*
X144841976Y-74550998D01*
X144841976Y-74293611D01*
X144906322Y-74164918D01*
X145678482Y-74744038D02*
X145742829Y-74615344D01*
X145742829Y-74293611D01*
X145678482Y-74164918D01*
X145549789Y-74100571D01*
X145421096Y-74100571D01*
X145292402Y-74164918D01*
X145228056Y-74293611D01*
X145228056Y-74615344D01*
X145163709Y-74744038D01*
X145742829Y-75387504D02*
X144841976Y-75387504D01*
X144391549Y-75387504D02*
X144455896Y-75323158D01*
X144520242Y-75387504D01*
X144455896Y-75451851D01*
X144391549Y-75387504D01*
X144520242Y-75387504D01*
X145742829Y-76030971D02*
X144841976Y-76030971D01*
X145099362Y-76030971D02*
X144970669Y-76095318D01*
X144906322Y-76159664D01*
X144841976Y-76288358D01*
X144841976Y-76417051D01*
X147883541Y-43664598D02*
X146532261Y-43664598D01*
X146532261Y-43986331D01*
X146596608Y-44179371D01*
X146725301Y-44308064D01*
X146853994Y-44372411D01*
X147111381Y-44436758D01*
X147304421Y-44436758D01*
X147561808Y-44372411D01*
X147690501Y-44308064D01*
X147819194Y-44179371D01*
X147883541Y-43986331D01*
X147883541Y-43664598D01*
X147883541Y-45015878D02*
X146982688Y-45015878D01*
X146532261Y-45015878D02*
X146596608Y-44951531D01*
X146660954Y-45015878D01*
X146596608Y-45080224D01*
X146532261Y-45015878D01*
X146660954Y-45015878D01*
X147819194Y-45594998D02*
X147883541Y-45723691D01*
X147883541Y-45981078D01*
X147819194Y-46109771D01*
X147690501Y-46174118D01*
X147626154Y-46174118D01*
X147497461Y-46109771D01*
X147433114Y-45981078D01*
X147433114Y-45788038D01*
X147368768Y-45659344D01*
X147240074Y-45594998D01*
X147175728Y-45594998D01*
X147047034Y-45659344D01*
X146982688Y-45788038D01*
X146982688Y-45981078D01*
X147047034Y-46109771D01*
X146982688Y-46560198D02*
X146982688Y-47074971D01*
X146532261Y-46753238D02*
X147690501Y-46753238D01*
X147819194Y-46817584D01*
X147883541Y-46946278D01*
X147883541Y-47074971D01*
X147883541Y-47525398D02*
X146982688Y-47525398D01*
X147240074Y-47525398D02*
X147111381Y-47589744D01*
X147047034Y-47654091D01*
X146982688Y-47782784D01*
X146982688Y-47911478D01*
X147883541Y-48361904D02*
X146982688Y-48361904D01*
X146532261Y-48361904D02*
X146596608Y-48297558D01*
X146660954Y-48361904D01*
X146596608Y-48426251D01*
X146532261Y-48361904D01*
X146660954Y-48361904D01*
X147883541Y-49005371D02*
X146532261Y-49005371D01*
X147047034Y-49005371D02*
X146982688Y-49134064D01*
X146982688Y-49391451D01*
X147047034Y-49520144D01*
X147111381Y-49584491D01*
X147240074Y-49648838D01*
X147626154Y-49648838D01*
X147754848Y-49584491D01*
X147819194Y-49520144D01*
X147883541Y-49391451D01*
X147883541Y-49134064D01*
X147819194Y-49005371D01*
X146982688Y-50807078D02*
X147883541Y-50807078D01*
X146982688Y-50227958D02*
X147690501Y-50227958D01*
X147819194Y-50292304D01*
X147883541Y-50420998D01*
X147883541Y-50614038D01*
X147819194Y-50742731D01*
X147754848Y-50807078D01*
X146982688Y-51257504D02*
X146982688Y-51772278D01*
X146532261Y-51450544D02*
X147690501Y-51450544D01*
X147819194Y-51514891D01*
X147883541Y-51643584D01*
X147883541Y-51772278D01*
X147819194Y-52737478D02*
X147883541Y-52608784D01*
X147883541Y-52351398D01*
X147819194Y-52222704D01*
X147690501Y-52158358D01*
X147175728Y-52158358D01*
X147047034Y-52222704D01*
X146982688Y-52351398D01*
X146982688Y-52608784D01*
X147047034Y-52737478D01*
X147175728Y-52801824D01*
X147304421Y-52801824D01*
X147433114Y-52158358D01*
X147883541Y-53960064D02*
X146532261Y-53960064D01*
X147819194Y-53960064D02*
X147883541Y-53831371D01*
X147883541Y-53573984D01*
X147819194Y-53445291D01*
X147754848Y-53380944D01*
X147626154Y-53316598D01*
X147240074Y-53316598D01*
X147111381Y-53380944D01*
X147047034Y-53445291D01*
X146982688Y-53573984D01*
X146982688Y-53831371D01*
X147047034Y-53960064D01*
X146982688Y-56212198D02*
X147883541Y-56212198D01*
X146982688Y-55633078D02*
X147690501Y-55633078D01*
X147819194Y-55697424D01*
X147883541Y-55826118D01*
X147883541Y-56019158D01*
X147819194Y-56147851D01*
X147754848Y-56212198D01*
X146982688Y-56855664D02*
X147883541Y-56855664D01*
X147111381Y-56855664D02*
X147047034Y-56920011D01*
X146982688Y-57048704D01*
X146982688Y-57241744D01*
X147047034Y-57370438D01*
X147175728Y-57434784D01*
X147883541Y-57434784D01*
X147883541Y-58657371D02*
X146532261Y-58657371D01*
X147819194Y-58657371D02*
X147883541Y-58528678D01*
X147883541Y-58271291D01*
X147819194Y-58142598D01*
X147754848Y-58078251D01*
X147626154Y-58013904D01*
X147240074Y-58013904D01*
X147111381Y-58078251D01*
X147047034Y-58142598D01*
X146982688Y-58271291D01*
X146982688Y-58528678D01*
X147047034Y-58657371D01*
X147819194Y-59815611D02*
X147883541Y-59686918D01*
X147883541Y-59429531D01*
X147819194Y-59300838D01*
X147690501Y-59236491D01*
X147175728Y-59236491D01*
X147047034Y-59300838D01*
X146982688Y-59429531D01*
X146982688Y-59686918D01*
X147047034Y-59815611D01*
X147175728Y-59879958D01*
X147304421Y-59879958D01*
X147433114Y-59236491D01*
X147883541Y-60459078D02*
X146982688Y-60459078D01*
X147240074Y-60459078D02*
X147111381Y-60523424D01*
X147047034Y-60587771D01*
X146982688Y-60716464D01*
X146982688Y-60845158D01*
X146596608Y-63032944D02*
X146532261Y-62904251D01*
X146532261Y-62711211D01*
X146596608Y-62518171D01*
X146725301Y-62389478D01*
X146853994Y-62325131D01*
X147111381Y-62260784D01*
X147304421Y-62260784D01*
X147561808Y-62325131D01*
X147690501Y-62389478D01*
X147819194Y-62518171D01*
X147883541Y-62711211D01*
X147883541Y-62839904D01*
X147819194Y-63032944D01*
X147754848Y-63097291D01*
X147304421Y-63097291D01*
X147304421Y-62839904D01*
X147883541Y-63676411D02*
X146532261Y-63676411D01*
X146532261Y-64191184D01*
X146596608Y-64319878D01*
X146660954Y-64384224D01*
X146789648Y-64448571D01*
X146982688Y-64448571D01*
X147111381Y-64384224D01*
X147175728Y-64319878D01*
X147240074Y-64191184D01*
X147240074Y-63676411D01*
X147883541Y-65671158D02*
X147883541Y-65027691D01*
X146532261Y-65027691D01*
X146982688Y-65992891D02*
X147883541Y-66314624D01*
X146982688Y-66636358D01*
X146532261Y-67022438D02*
X146532261Y-67858944D01*
X147047034Y-67408518D01*
X147047034Y-67601558D01*
X147111381Y-67730251D01*
X147175728Y-67794598D01*
X147304421Y-67858944D01*
X147626154Y-67858944D01*
X147754848Y-67794598D01*
X147819194Y-67730251D01*
X147883541Y-67601558D01*
X147883541Y-67215478D01*
X147819194Y-67086784D01*
X147754848Y-67022438D01*
X150024253Y-43664598D02*
X148672973Y-43664598D01*
X150024253Y-44243718D02*
X149316440Y-44243718D01*
X149187746Y-44179371D01*
X149123400Y-44050678D01*
X149123400Y-43857638D01*
X149187746Y-43728944D01*
X149252093Y-43664598D01*
X149123400Y-44694144D02*
X149123400Y-45208918D01*
X148672973Y-44887184D02*
X149831213Y-44887184D01*
X149959906Y-44951531D01*
X150024253Y-45080224D01*
X150024253Y-45208918D01*
X149123400Y-45466304D02*
X149123400Y-45981078D01*
X148672973Y-45659344D02*
X149831213Y-45659344D01*
X149959906Y-45723691D01*
X150024253Y-45852384D01*
X150024253Y-45981078D01*
X149123400Y-46431504D02*
X150474680Y-46431504D01*
X149187746Y-46431504D02*
X149123400Y-46560198D01*
X149123400Y-46817584D01*
X149187746Y-46946278D01*
X149252093Y-47010624D01*
X149380786Y-47074971D01*
X149766866Y-47074971D01*
X149895560Y-47010624D01*
X149959906Y-46946278D01*
X150024253Y-46817584D01*
X150024253Y-46560198D01*
X149959906Y-46431504D01*
X149959906Y-47589744D02*
X150024253Y-47718438D01*
X150024253Y-47975824D01*
X149959906Y-48104518D01*
X149831213Y-48168864D01*
X149766866Y-48168864D01*
X149638173Y-48104518D01*
X149573826Y-47975824D01*
X149573826Y-47782784D01*
X149509480Y-47654091D01*
X149380786Y-47589744D01*
X149316440Y-47589744D01*
X149187746Y-47654091D01*
X149123400Y-47782784D01*
X149123400Y-47975824D01*
X149187746Y-48104518D01*
X149895560Y-48747984D02*
X149959906Y-48812331D01*
X150024253Y-48747984D01*
X149959906Y-48683638D01*
X149895560Y-48747984D01*
X150024253Y-48747984D01*
X149187746Y-48747984D02*
X149252093Y-48812331D01*
X149316440Y-48747984D01*
X149252093Y-48683638D01*
X149187746Y-48747984D01*
X149316440Y-48747984D01*
X148608626Y-50356651D02*
X150345986Y-49198411D01*
X148608626Y-51772278D02*
X150345986Y-50614038D01*
X149123400Y-52801824D02*
X150217293Y-52801824D01*
X150345986Y-52737478D01*
X150410333Y-52673131D01*
X150474680Y-52544438D01*
X150474680Y-52351398D01*
X150410333Y-52222704D01*
X149959906Y-52801824D02*
X150024253Y-52673131D01*
X150024253Y-52415744D01*
X149959906Y-52287051D01*
X149895560Y-52222704D01*
X149766866Y-52158358D01*
X149380786Y-52158358D01*
X149252093Y-52222704D01*
X149187746Y-52287051D01*
X149123400Y-52415744D01*
X149123400Y-52673131D01*
X149187746Y-52801824D01*
X150024253Y-53445291D02*
X149123400Y-53445291D01*
X148672973Y-53445291D02*
X148737320Y-53380944D01*
X148801666Y-53445291D01*
X148737320Y-53509638D01*
X148672973Y-53445291D01*
X148801666Y-53445291D01*
X149123400Y-53895718D02*
X149123400Y-54410491D01*
X148672973Y-54088758D02*
X149831213Y-54088758D01*
X149959906Y-54153104D01*
X150024253Y-54281798D01*
X150024253Y-54410491D01*
X150024253Y-54860918D02*
X148672973Y-54860918D01*
X150024253Y-55440038D02*
X149316440Y-55440038D01*
X149187746Y-55375691D01*
X149123400Y-55246998D01*
X149123400Y-55053958D01*
X149187746Y-54925264D01*
X149252093Y-54860918D01*
X149123400Y-56662624D02*
X150024253Y-56662624D01*
X149123400Y-56083504D02*
X149831213Y-56083504D01*
X149959906Y-56147851D01*
X150024253Y-56276544D01*
X150024253Y-56469584D01*
X149959906Y-56598278D01*
X149895560Y-56662624D01*
X150024253Y-57306091D02*
X148672973Y-57306091D01*
X149187746Y-57306091D02*
X149123400Y-57434784D01*
X149123400Y-57692171D01*
X149187746Y-57820864D01*
X149252093Y-57885211D01*
X149380786Y-57949558D01*
X149766866Y-57949558D01*
X149895560Y-57885211D01*
X149959906Y-57820864D01*
X150024253Y-57692171D01*
X150024253Y-57434784D01*
X149959906Y-57306091D01*
X149895560Y-58528678D02*
X149959906Y-58593024D01*
X150024253Y-58528678D01*
X149959906Y-58464331D01*
X149895560Y-58528678D01*
X150024253Y-58528678D01*
X149959906Y-59751264D02*
X150024253Y-59622571D01*
X150024253Y-59365184D01*
X149959906Y-59236491D01*
X149895560Y-59172144D01*
X149766866Y-59107798D01*
X149380786Y-59107798D01*
X149252093Y-59172144D01*
X149187746Y-59236491D01*
X149123400Y-59365184D01*
X149123400Y-59622571D01*
X149187746Y-59751264D01*
X150024253Y-60523424D02*
X149959906Y-60394731D01*
X149895560Y-60330384D01*
X149766866Y-60266038D01*
X149380786Y-60266038D01*
X149252093Y-60330384D01*
X149187746Y-60394731D01*
X149123400Y-60523424D01*
X149123400Y-60716464D01*
X149187746Y-60845158D01*
X149252093Y-60909504D01*
X149380786Y-60973851D01*
X149766866Y-60973851D01*
X149895560Y-60909504D01*
X149959906Y-60845158D01*
X150024253Y-60716464D01*
X150024253Y-60523424D01*
X150024253Y-61552971D02*
X149123400Y-61552971D01*
X149252093Y-61552971D02*
X149187746Y-61617318D01*
X149123400Y-61746011D01*
X149123400Y-61939051D01*
X149187746Y-62067744D01*
X149316440Y-62132091D01*
X150024253Y-62132091D01*
X149316440Y-62132091D02*
X149187746Y-62196438D01*
X149123400Y-62325131D01*
X149123400Y-62518171D01*
X149187746Y-62646864D01*
X149316440Y-62711211D01*
X150024253Y-62711211D01*
X148608626Y-64319878D02*
X150345986Y-63161638D01*
X150024253Y-64770304D02*
X148672973Y-64770304D01*
X150024253Y-65542464D01*
X148672973Y-65542464D01*
X149316440Y-66636358D02*
X149316440Y-66185931D01*
X150024253Y-66185931D02*
X148672973Y-66185931D01*
X148672973Y-66829398D01*
X148672973Y-67923291D02*
X148672973Y-67665904D01*
X148737320Y-67537211D01*
X148801666Y-67472864D01*
X148994706Y-67344171D01*
X149252093Y-67279824D01*
X149766866Y-67279824D01*
X149895560Y-67344171D01*
X149959906Y-67408518D01*
X150024253Y-67537211D01*
X150024253Y-67794598D01*
X149959906Y-67923291D01*
X149895560Y-67987638D01*
X149766866Y-68051984D01*
X149445133Y-68051984D01*
X149316440Y-67987638D01*
X149252093Y-67923291D01*
X149187746Y-67794598D01*
X149187746Y-67537211D01*
X149252093Y-67408518D01*
X149316440Y-67344171D01*
X149445133Y-67279824D01*
X148672973Y-68502411D02*
X150024253Y-69403264D01*
X148672973Y-69403264D02*
X150024253Y-68502411D01*
X148608626Y-70883238D02*
X150345986Y-69724998D01*
X149895560Y-72105824D02*
X149959906Y-72041478D01*
X150024253Y-71848438D01*
X150024253Y-71719744D01*
X149959906Y-71526704D01*
X149831213Y-71398011D01*
X149702520Y-71333664D01*
X149445133Y-71269318D01*
X149252093Y-71269318D01*
X148994706Y-71333664D01*
X148866013Y-71398011D01*
X148737320Y-71526704D01*
X148672973Y-71719744D01*
X148672973Y-71848438D01*
X148737320Y-72041478D01*
X148801666Y-72105824D01*
X150024253Y-72877984D02*
X149959906Y-72749291D01*
X149895560Y-72684944D01*
X149766866Y-72620598D01*
X149380786Y-72620598D01*
X149252093Y-72684944D01*
X149187746Y-72749291D01*
X149123400Y-72877984D01*
X149123400Y-73071024D01*
X149187746Y-73199718D01*
X149252093Y-73264064D01*
X149380786Y-73328411D01*
X149766866Y-73328411D01*
X149895560Y-73264064D01*
X149959906Y-73199718D01*
X150024253Y-73071024D01*
X150024253Y-72877984D01*
X149895560Y-74679691D02*
X149959906Y-74615344D01*
X150024253Y-74422304D01*
X150024253Y-74293611D01*
X149959906Y-74100571D01*
X149831213Y-73971878D01*
X149702520Y-73907531D01*
X149445133Y-73843184D01*
X149252093Y-73843184D01*
X148994706Y-73907531D01*
X148866013Y-73971878D01*
X148737320Y-74100571D01*
X148672973Y-74293611D01*
X148672973Y-74422304D01*
X148737320Y-74615344D01*
X148801666Y-74679691D01*
X150024253Y-75451851D02*
X149959906Y-75323158D01*
X149895560Y-75258811D01*
X149766866Y-75194464D01*
X149380786Y-75194464D01*
X149252093Y-75258811D01*
X149187746Y-75323158D01*
X149123400Y-75451851D01*
X149123400Y-75644891D01*
X149187746Y-75773584D01*
X149252093Y-75837931D01*
X149380786Y-75902278D01*
X149766866Y-75902278D01*
X149895560Y-75837931D01*
X149959906Y-75773584D01*
X150024253Y-75644891D01*
X150024253Y-75451851D01*
X149316440Y-76481398D02*
X149316440Y-76931824D01*
X150024253Y-77124864D02*
X150024253Y-76481398D01*
X148672973Y-76481398D01*
X148672973Y-77124864D01*
X150024253Y-77703984D02*
X148672973Y-77703984D01*
X148672973Y-78218758D01*
X148737320Y-78347451D01*
X148801666Y-78411798D01*
X148930360Y-78476144D01*
X149123400Y-78476144D01*
X149252093Y-78411798D01*
X149316440Y-78347451D01*
X149380786Y-78218758D01*
X149380786Y-77703984D01*
X150024253Y-79827424D02*
X149380786Y-79376998D01*
X150024253Y-79055264D02*
X148672973Y-79055264D01*
X148672973Y-79570038D01*
X148737320Y-79698731D01*
X148801666Y-79763078D01*
X148930360Y-79827424D01*
X149123400Y-79827424D01*
X149252093Y-79763078D01*
X149316440Y-79698731D01*
X149380786Y-79570038D01*
X149380786Y-79055264D01*
X148672973Y-80663931D02*
X148672973Y-80921318D01*
X148737320Y-81050011D01*
X148866013Y-81178704D01*
X149123400Y-81243051D01*
X149573826Y-81243051D01*
X149831213Y-81178704D01*
X149959906Y-81050011D01*
X150024253Y-80921318D01*
X150024253Y-80663931D01*
X149959906Y-80535238D01*
X149831213Y-80406544D01*
X149573826Y-80342198D01*
X149123400Y-80342198D01*
X148866013Y-80406544D01*
X148737320Y-80535238D01*
X148672973Y-80663931D01*
X150024253Y-81822171D02*
X148672973Y-81822171D01*
X149638173Y-82272598D01*
X148672973Y-82723024D01*
X150024253Y-82723024D01*
X149123400Y-83366491D02*
X150474680Y-83366491D01*
X149187746Y-83366491D02*
X149123400Y-83495184D01*
X149123400Y-83752571D01*
X149187746Y-83881264D01*
X149252093Y-83945611D01*
X149380786Y-84009958D01*
X149766866Y-84009958D01*
X149895560Y-83945611D01*
X149959906Y-83881264D01*
X150024253Y-83752571D01*
X150024253Y-83495184D01*
X149959906Y-83366491D01*
X150024253Y-85168198D02*
X149316440Y-85168198D01*
X149187746Y-85103851D01*
X149123400Y-84975158D01*
X149123400Y-84717771D01*
X149187746Y-84589078D01*
X149959906Y-85168198D02*
X150024253Y-85039504D01*
X150024253Y-84717771D01*
X149959906Y-84589078D01*
X149831213Y-84524731D01*
X149702520Y-84524731D01*
X149573826Y-84589078D01*
X149509480Y-84717771D01*
X149509480Y-85039504D01*
X149445133Y-85168198D01*
X150024253Y-85811664D02*
X148672973Y-85811664D01*
X149509480Y-85940358D02*
X150024253Y-86326438D01*
X149123400Y-86326438D02*
X149638173Y-85811664D01*
X143473424Y-99046758D02*
X143537770Y-98982411D01*
X143602117Y-98789371D01*
X143602117Y-98660678D01*
X143537770Y-98467638D01*
X143409077Y-98338944D01*
X143280384Y-98274598D01*
X143022997Y-98210251D01*
X142829957Y-98210251D01*
X142572570Y-98274598D01*
X142443877Y-98338944D01*
X142315184Y-98467638D01*
X142250837Y-98660678D01*
X142250837Y-98789371D01*
X142315184Y-98982411D01*
X142379530Y-99046758D01*
X143602117Y-99818918D02*
X143537770Y-99690224D01*
X143473424Y-99625878D01*
X143344730Y-99561531D01*
X142958650Y-99561531D01*
X142829957Y-99625878D01*
X142765610Y-99690224D01*
X142701264Y-99818918D01*
X142701264Y-100011958D01*
X142765610Y-100140651D01*
X142829957Y-100204998D01*
X142958650Y-100269344D01*
X143344730Y-100269344D01*
X143473424Y-100204998D01*
X143537770Y-100140651D01*
X143602117Y-100011958D01*
X143602117Y-99818918D01*
X143473424Y-101620624D02*
X143537770Y-101556278D01*
X143602117Y-101363238D01*
X143602117Y-101234544D01*
X143537770Y-101041504D01*
X143409077Y-100912811D01*
X143280384Y-100848464D01*
X143022997Y-100784118D01*
X142829957Y-100784118D01*
X142572570Y-100848464D01*
X142443877Y-100912811D01*
X142315184Y-101041504D01*
X142250837Y-101234544D01*
X142250837Y-101363238D01*
X142315184Y-101556278D01*
X142379530Y-101620624D01*
X143602117Y-102392784D02*
X143537770Y-102264091D01*
X143473424Y-102199744D01*
X143344730Y-102135398D01*
X142958650Y-102135398D01*
X142829957Y-102199744D01*
X142765610Y-102264091D01*
X142701264Y-102392784D01*
X142701264Y-102585824D01*
X142765610Y-102714518D01*
X142829957Y-102778864D01*
X142958650Y-102843211D01*
X143344730Y-102843211D01*
X143473424Y-102778864D01*
X143537770Y-102714518D01*
X143602117Y-102585824D01*
X143602117Y-102392784D01*
X142894304Y-103422331D02*
X142894304Y-103872758D01*
X143602117Y-104065798D02*
X143602117Y-103422331D01*
X142250837Y-103422331D01*
X142250837Y-104065798D01*
X143602117Y-104644918D02*
X142250837Y-104644918D01*
X142250837Y-105159691D01*
X142315184Y-105288384D01*
X142379530Y-105352731D01*
X142508224Y-105417078D01*
X142701264Y-105417078D01*
X142829957Y-105352731D01*
X142894304Y-105288384D01*
X142958650Y-105159691D01*
X142958650Y-104644918D01*
X143602117Y-106768358D02*
X142958650Y-106317931D01*
X143602117Y-105996198D02*
X142250837Y-105996198D01*
X142250837Y-106510971D01*
X142315184Y-106639664D01*
X142379530Y-106704011D01*
X142508224Y-106768358D01*
X142701264Y-106768358D01*
X142829957Y-106704011D01*
X142894304Y-106639664D01*
X142958650Y-106510971D01*
X142958650Y-105996198D01*
X142250837Y-107604864D02*
X142250837Y-107862251D01*
X142315184Y-107990944D01*
X142443877Y-108119638D01*
X142701264Y-108183984D01*
X143151690Y-108183984D01*
X143409077Y-108119638D01*
X143537770Y-107990944D01*
X143602117Y-107862251D01*
X143602117Y-107604864D01*
X143537770Y-107476171D01*
X143409077Y-107347478D01*
X143151690Y-107283131D01*
X142701264Y-107283131D01*
X142443877Y-107347478D01*
X142315184Y-107476171D01*
X142250837Y-107604864D01*
X143602117Y-108763104D02*
X142250837Y-108763104D01*
X143216037Y-109213531D01*
X142250837Y-109663958D01*
X143602117Y-109663958D01*
X142701264Y-110307424D02*
X144052544Y-110307424D01*
X142765610Y-110307424D02*
X142701264Y-110436118D01*
X142701264Y-110693504D01*
X142765610Y-110822198D01*
X142829957Y-110886544D01*
X142958650Y-110950891D01*
X143344730Y-110950891D01*
X143473424Y-110886544D01*
X143537770Y-110822198D01*
X143602117Y-110693504D01*
X143602117Y-110436118D01*
X143537770Y-110307424D01*
X143602117Y-112109131D02*
X142894304Y-112109131D01*
X142765610Y-112044784D01*
X142701264Y-111916091D01*
X142701264Y-111658704D01*
X142765610Y-111530011D01*
X143537770Y-112109131D02*
X143602117Y-111980438D01*
X143602117Y-111658704D01*
X143537770Y-111530011D01*
X143409077Y-111465664D01*
X143280384Y-111465664D01*
X143151690Y-111530011D01*
X143087344Y-111658704D01*
X143087344Y-111980438D01*
X143022997Y-112109131D01*
X143602117Y-112752598D02*
X142250837Y-112752598D01*
X143087344Y-112881291D02*
X143602117Y-113267371D01*
X142701264Y-113267371D02*
X143216037Y-112752598D01*
X142701264Y-114747344D02*
X143602117Y-115069078D01*
X142701264Y-115390811D01*
X143602117Y-116613398D02*
X143602117Y-115841238D01*
X143602117Y-116227318D02*
X142250837Y-116227318D01*
X142443877Y-116098624D01*
X142572570Y-115969931D01*
X142636917Y-115841238D01*
X145614136Y-99046758D02*
X145678482Y-98982411D01*
X145742829Y-98789371D01*
X145742829Y-98660678D01*
X145678482Y-98467638D01*
X145549789Y-98338944D01*
X145421096Y-98274598D01*
X145163709Y-98210251D01*
X144970669Y-98210251D01*
X144713282Y-98274598D01*
X144584589Y-98338944D01*
X144455896Y-98467638D01*
X144391549Y-98660678D01*
X144391549Y-98789371D01*
X144455896Y-98982411D01*
X144520242Y-99046758D01*
X145742829Y-99818918D02*
X145678482Y-99690224D01*
X145614136Y-99625878D01*
X145485442Y-99561531D01*
X145099362Y-99561531D01*
X144970669Y-99625878D01*
X144906322Y-99690224D01*
X144841976Y-99818918D01*
X144841976Y-100011958D01*
X144906322Y-100140651D01*
X144970669Y-100204998D01*
X145099362Y-100269344D01*
X145485442Y-100269344D01*
X145614136Y-100204998D01*
X145678482Y-100140651D01*
X145742829Y-100011958D01*
X145742829Y-99818918D01*
X144841976Y-100848464D02*
X146193256Y-100848464D01*
X144906322Y-100848464D02*
X144841976Y-100977158D01*
X144841976Y-101234544D01*
X144906322Y-101363238D01*
X144970669Y-101427584D01*
X145099362Y-101491931D01*
X145485442Y-101491931D01*
X145614136Y-101427584D01*
X145678482Y-101363238D01*
X145742829Y-101234544D01*
X145742829Y-100977158D01*
X145678482Y-100848464D01*
X144841976Y-101942358D02*
X145742829Y-102264091D01*
X144841976Y-102585824D02*
X145742829Y-102264091D01*
X146064562Y-102135398D01*
X146128909Y-102071051D01*
X146193256Y-101942358D01*
X145742829Y-103100598D02*
X144841976Y-103100598D01*
X145099362Y-103100598D02*
X144970669Y-103164944D01*
X144906322Y-103229291D01*
X144841976Y-103357984D01*
X144841976Y-103486678D01*
X145742829Y-103937104D02*
X144841976Y-103937104D01*
X144391549Y-103937104D02*
X144455896Y-103872758D01*
X144520242Y-103937104D01*
X144455896Y-104001451D01*
X144391549Y-103937104D01*
X144520242Y-103937104D01*
X144841976Y-105159691D02*
X145935869Y-105159691D01*
X146064562Y-105095344D01*
X146128909Y-105030998D01*
X146193256Y-104902304D01*
X146193256Y-104709264D01*
X146128909Y-104580571D01*
X145678482Y-105159691D02*
X145742829Y-105030998D01*
X145742829Y-104773611D01*
X145678482Y-104644918D01*
X145614136Y-104580571D01*
X145485442Y-104516224D01*
X145099362Y-104516224D01*
X144970669Y-104580571D01*
X144906322Y-104644918D01*
X144841976Y-104773611D01*
X144841976Y-105030998D01*
X144906322Y-105159691D01*
X145742829Y-105803158D02*
X144391549Y-105803158D01*
X145742829Y-106382278D02*
X145035016Y-106382278D01*
X144906322Y-106317931D01*
X144841976Y-106189238D01*
X144841976Y-105996198D01*
X144906322Y-105867504D01*
X144970669Y-105803158D01*
X144841976Y-106832704D02*
X144841976Y-107347478D01*
X144391549Y-107025744D02*
X145549789Y-107025744D01*
X145678482Y-107090091D01*
X145742829Y-107218784D01*
X145742829Y-107347478D01*
X144520242Y-108763104D02*
X144455896Y-108827451D01*
X144391549Y-108956144D01*
X144391549Y-109277878D01*
X144455896Y-109406571D01*
X144520242Y-109470918D01*
X144648936Y-109535264D01*
X144777629Y-109535264D01*
X144970669Y-109470918D01*
X145742829Y-108698758D01*
X145742829Y-109535264D01*
X144391549Y-110371771D02*
X144391549Y-110500464D01*
X144455896Y-110629158D01*
X144520242Y-110693504D01*
X144648936Y-110757851D01*
X144906322Y-110822198D01*
X145228056Y-110822198D01*
X145485442Y-110757851D01*
X145614136Y-110693504D01*
X145678482Y-110629158D01*
X145742829Y-110500464D01*
X145742829Y-110371771D01*
X145678482Y-110243078D01*
X145614136Y-110178731D01*
X145485442Y-110114384D01*
X145228056Y-110050038D01*
X144906322Y-110050038D01*
X144648936Y-110114384D01*
X144520242Y-110178731D01*
X144455896Y-110243078D01*
X144391549Y-110371771D01*
X145742829Y-112109131D02*
X145742829Y-111336971D01*
X145742829Y-111723051D02*
X144391549Y-111723051D01*
X144584589Y-111594358D01*
X144713282Y-111465664D01*
X144777629Y-111336971D01*
X144391549Y-112559558D02*
X144391549Y-113396064D01*
X144906322Y-112945638D01*
X144906322Y-113138678D01*
X144970669Y-113267371D01*
X145035016Y-113331718D01*
X145163709Y-113396064D01*
X145485442Y-113396064D01*
X145614136Y-113331718D01*
X145678482Y-113267371D01*
X145742829Y-113138678D01*
X145742829Y-112752598D01*
X145678482Y-112623904D01*
X145614136Y-112559558D01*
X145742829Y-115004731D02*
X144391549Y-115004731D01*
X144906322Y-115004731D02*
X144841976Y-115133424D01*
X144841976Y-115390811D01*
X144906322Y-115519504D01*
X144970669Y-115583851D01*
X145099362Y-115648198D01*
X145485442Y-115648198D01*
X145614136Y-115583851D01*
X145678482Y-115519504D01*
X145742829Y-115390811D01*
X145742829Y-115133424D01*
X145678482Y-115004731D01*
X144841976Y-116098624D02*
X145742829Y-116420358D01*
X144841976Y-116742091D02*
X145742829Y-116420358D01*
X146064562Y-116291664D01*
X146128909Y-116227318D01*
X146193256Y-116098624D01*
X145742829Y-118286411D02*
X144391549Y-118286411D01*
X145356749Y-118736838D01*
X144391549Y-119187264D01*
X145742829Y-119187264D01*
X145742829Y-120409851D02*
X145035016Y-120409851D01*
X144906322Y-120345504D01*
X144841976Y-120216811D01*
X144841976Y-119959424D01*
X144906322Y-119830731D01*
X145678482Y-120409851D02*
X145742829Y-120281158D01*
X145742829Y-119959424D01*
X145678482Y-119830731D01*
X145549789Y-119766384D01*
X145421096Y-119766384D01*
X145292402Y-119830731D01*
X145228056Y-119959424D01*
X145228056Y-120281158D01*
X145163709Y-120409851D01*
X145742829Y-121053318D02*
X144841976Y-121053318D01*
X145099362Y-121053318D02*
X144970669Y-121117664D01*
X144906322Y-121182011D01*
X144841976Y-121310704D01*
X144841976Y-121439398D01*
X145742829Y-121889824D02*
X144391549Y-121889824D01*
X145228056Y-122018518D02*
X145742829Y-122404598D01*
X144841976Y-122404598D02*
X145356749Y-121889824D01*
X144391549Y-124399344D02*
X145356749Y-124399344D01*
X145549789Y-124334998D01*
X145678482Y-124206304D01*
X145742829Y-124013264D01*
X145742829Y-123884571D01*
X145614136Y-125042811D02*
X145678482Y-125107158D01*
X145742829Y-125042811D01*
X145678482Y-124978464D01*
X145614136Y-125042811D01*
X145742829Y-125042811D01*
X145035016Y-127166251D02*
X145099362Y-127359291D01*
X145163709Y-127423638D01*
X145292402Y-127487984D01*
X145485442Y-127487984D01*
X145614136Y-127423638D01*
X145678482Y-127359291D01*
X145742829Y-127230598D01*
X145742829Y-126715824D01*
X144391549Y-126715824D01*
X144391549Y-127166251D01*
X144455896Y-127294944D01*
X144520242Y-127359291D01*
X144648936Y-127423638D01*
X144777629Y-127423638D01*
X144906322Y-127359291D01*
X144970669Y-127294944D01*
X145035016Y-127166251D01*
X145035016Y-126715824D01*
X145742829Y-128260144D02*
X145678482Y-128131451D01*
X145549789Y-128067104D01*
X144391549Y-128067104D01*
X145742829Y-129354038D02*
X145035016Y-129354038D01*
X144906322Y-129289691D01*
X144841976Y-129160998D01*
X144841976Y-128903611D01*
X144906322Y-128774918D01*
X145678482Y-129354038D02*
X145742829Y-129225344D01*
X145742829Y-128903611D01*
X145678482Y-128774918D01*
X145549789Y-128710571D01*
X145421096Y-128710571D01*
X145292402Y-128774918D01*
X145228056Y-128903611D01*
X145228056Y-129225344D01*
X145163709Y-129354038D01*
X145742829Y-129997504D02*
X144841976Y-129997504D01*
X144391549Y-129997504D02*
X144455896Y-129933158D01*
X144520242Y-129997504D01*
X144455896Y-130061851D01*
X144391549Y-129997504D01*
X144520242Y-129997504D01*
X145742829Y-130640971D02*
X144841976Y-130640971D01*
X145099362Y-130640971D02*
X144970669Y-130705318D01*
X144906322Y-130769664D01*
X144841976Y-130898358D01*
X144841976Y-131027051D01*
X147883541Y-98274598D02*
X146532261Y-98274598D01*
X146532261Y-98596331D01*
X146596608Y-98789371D01*
X146725301Y-98918064D01*
X146853994Y-98982411D01*
X147111381Y-99046758D01*
X147304421Y-99046758D01*
X147561808Y-98982411D01*
X147690501Y-98918064D01*
X147819194Y-98789371D01*
X147883541Y-98596331D01*
X147883541Y-98274598D01*
X147883541Y-99625878D02*
X146982688Y-99625878D01*
X146532261Y-99625878D02*
X146596608Y-99561531D01*
X146660954Y-99625878D01*
X146596608Y-99690224D01*
X146532261Y-99625878D01*
X146660954Y-99625878D01*
X147819194Y-100204998D02*
X147883541Y-100333691D01*
X147883541Y-100591078D01*
X147819194Y-100719771D01*
X147690501Y-100784118D01*
X147626154Y-100784118D01*
X147497461Y-100719771D01*
X147433114Y-100591078D01*
X147433114Y-100398038D01*
X147368768Y-100269344D01*
X147240074Y-100204998D01*
X147175728Y-100204998D01*
X147047034Y-100269344D01*
X146982688Y-100398038D01*
X146982688Y-100591078D01*
X147047034Y-100719771D01*
X146982688Y-101170198D02*
X146982688Y-101684971D01*
X146532261Y-101363238D02*
X147690501Y-101363238D01*
X147819194Y-101427584D01*
X147883541Y-101556278D01*
X147883541Y-101684971D01*
X147883541Y-102135398D02*
X146982688Y-102135398D01*
X147240074Y-102135398D02*
X147111381Y-102199744D01*
X147047034Y-102264091D01*
X146982688Y-102392784D01*
X146982688Y-102521478D01*
X147883541Y-102971904D02*
X146982688Y-102971904D01*
X146532261Y-102971904D02*
X146596608Y-102907558D01*
X146660954Y-102971904D01*
X146596608Y-103036251D01*
X146532261Y-102971904D01*
X146660954Y-102971904D01*
X147883541Y-103615371D02*
X146532261Y-103615371D01*
X147047034Y-103615371D02*
X146982688Y-103744064D01*
X146982688Y-104001451D01*
X147047034Y-104130144D01*
X147111381Y-104194491D01*
X147240074Y-104258838D01*
X147626154Y-104258838D01*
X147754848Y-104194491D01*
X147819194Y-104130144D01*
X147883541Y-104001451D01*
X147883541Y-103744064D01*
X147819194Y-103615371D01*
X146982688Y-105417078D02*
X147883541Y-105417078D01*
X146982688Y-104837958D02*
X147690501Y-104837958D01*
X147819194Y-104902304D01*
X147883541Y-105030998D01*
X147883541Y-105224038D01*
X147819194Y-105352731D01*
X147754848Y-105417078D01*
X146982688Y-105867504D02*
X146982688Y-106382278D01*
X146532261Y-106060544D02*
X147690501Y-106060544D01*
X147819194Y-106124891D01*
X147883541Y-106253584D01*
X147883541Y-106382278D01*
X147819194Y-107347478D02*
X147883541Y-107218784D01*
X147883541Y-106961398D01*
X147819194Y-106832704D01*
X147690501Y-106768358D01*
X147175728Y-106768358D01*
X147047034Y-106832704D01*
X146982688Y-106961398D01*
X146982688Y-107218784D01*
X147047034Y-107347478D01*
X147175728Y-107411824D01*
X147304421Y-107411824D01*
X147433114Y-106768358D01*
X147883541Y-108570064D02*
X146532261Y-108570064D01*
X147819194Y-108570064D02*
X147883541Y-108441371D01*
X147883541Y-108183984D01*
X147819194Y-108055291D01*
X147754848Y-107990944D01*
X147626154Y-107926598D01*
X147240074Y-107926598D01*
X147111381Y-107990944D01*
X147047034Y-108055291D01*
X146982688Y-108183984D01*
X146982688Y-108441371D01*
X147047034Y-108570064D01*
X146982688Y-110822198D02*
X147883541Y-110822198D01*
X146982688Y-110243078D02*
X147690501Y-110243078D01*
X147819194Y-110307424D01*
X147883541Y-110436118D01*
X147883541Y-110629158D01*
X147819194Y-110757851D01*
X147754848Y-110822198D01*
X146982688Y-111465664D02*
X147883541Y-111465664D01*
X147111381Y-111465664D02*
X147047034Y-111530011D01*
X146982688Y-111658704D01*
X146982688Y-111851744D01*
X147047034Y-111980438D01*
X147175728Y-112044784D01*
X147883541Y-112044784D01*
X147883541Y-113267371D02*
X146532261Y-113267371D01*
X147819194Y-113267371D02*
X147883541Y-113138678D01*
X147883541Y-112881291D01*
X147819194Y-112752598D01*
X147754848Y-112688251D01*
X147626154Y-112623904D01*
X147240074Y-112623904D01*
X147111381Y-112688251D01*
X147047034Y-112752598D01*
X146982688Y-112881291D01*
X146982688Y-113138678D01*
X147047034Y-113267371D01*
X147819194Y-114425611D02*
X147883541Y-114296918D01*
X147883541Y-114039531D01*
X147819194Y-113910838D01*
X147690501Y-113846491D01*
X147175728Y-113846491D01*
X147047034Y-113910838D01*
X146982688Y-114039531D01*
X146982688Y-114296918D01*
X147047034Y-114425611D01*
X147175728Y-114489958D01*
X147304421Y-114489958D01*
X147433114Y-113846491D01*
X147883541Y-115069078D02*
X146982688Y-115069078D01*
X147240074Y-115069078D02*
X147111381Y-115133424D01*
X147047034Y-115197771D01*
X146982688Y-115326464D01*
X146982688Y-115455158D01*
X146596608Y-117642944D02*
X146532261Y-117514251D01*
X146532261Y-117321211D01*
X146596608Y-117128171D01*
X146725301Y-116999478D01*
X146853994Y-116935131D01*
X147111381Y-116870784D01*
X147304421Y-116870784D01*
X147561808Y-116935131D01*
X147690501Y-116999478D01*
X147819194Y-117128171D01*
X147883541Y-117321211D01*
X147883541Y-117449904D01*
X147819194Y-117642944D01*
X147754848Y-117707291D01*
X147304421Y-117707291D01*
X147304421Y-117449904D01*
X147883541Y-118286411D02*
X146532261Y-118286411D01*
X146532261Y-118801184D01*
X146596608Y-118929878D01*
X146660954Y-118994224D01*
X146789648Y-119058571D01*
X146982688Y-119058571D01*
X147111381Y-118994224D01*
X147175728Y-118929878D01*
X147240074Y-118801184D01*
X147240074Y-118286411D01*
X147883541Y-120281158D02*
X147883541Y-119637691D01*
X146532261Y-119637691D01*
X146982688Y-120602891D02*
X147883541Y-120924624D01*
X146982688Y-121246358D01*
X146532261Y-121632438D02*
X146532261Y-122468944D01*
X147047034Y-122018518D01*
X147047034Y-122211558D01*
X147111381Y-122340251D01*
X147175728Y-122404598D01*
X147304421Y-122468944D01*
X147626154Y-122468944D01*
X147754848Y-122404598D01*
X147819194Y-122340251D01*
X147883541Y-122211558D01*
X147883541Y-121825478D01*
X147819194Y-121696784D01*
X147754848Y-121632438D01*
X150024253Y-98274598D02*
X148672973Y-98274598D01*
X150024253Y-98853718D02*
X149316440Y-98853718D01*
X149187746Y-98789371D01*
X149123400Y-98660678D01*
X149123400Y-98467638D01*
X149187746Y-98338944D01*
X149252093Y-98274598D01*
X149123400Y-99304144D02*
X149123400Y-99818918D01*
X148672973Y-99497184D02*
X149831213Y-99497184D01*
X149959906Y-99561531D01*
X150024253Y-99690224D01*
X150024253Y-99818918D01*
X149123400Y-100076304D02*
X149123400Y-100591078D01*
X148672973Y-100269344D02*
X149831213Y-100269344D01*
X149959906Y-100333691D01*
X150024253Y-100462384D01*
X150024253Y-100591078D01*
X149123400Y-101041504D02*
X150474680Y-101041504D01*
X149187746Y-101041504D02*
X149123400Y-101170198D01*
X149123400Y-101427584D01*
X149187746Y-101556278D01*
X149252093Y-101620624D01*
X149380786Y-101684971D01*
X149766866Y-101684971D01*
X149895560Y-101620624D01*
X149959906Y-101556278D01*
X150024253Y-101427584D01*
X150024253Y-101170198D01*
X149959906Y-101041504D01*
X149959906Y-102199744D02*
X150024253Y-102328438D01*
X150024253Y-102585824D01*
X149959906Y-102714518D01*
X149831213Y-102778864D01*
X149766866Y-102778864D01*
X149638173Y-102714518D01*
X149573826Y-102585824D01*
X149573826Y-102392784D01*
X149509480Y-102264091D01*
X149380786Y-102199744D01*
X149316440Y-102199744D01*
X149187746Y-102264091D01*
X149123400Y-102392784D01*
X149123400Y-102585824D01*
X149187746Y-102714518D01*
X149895560Y-103357984D02*
X149959906Y-103422331D01*
X150024253Y-103357984D01*
X149959906Y-103293638D01*
X149895560Y-103357984D01*
X150024253Y-103357984D01*
X149187746Y-103357984D02*
X149252093Y-103422331D01*
X149316440Y-103357984D01*
X149252093Y-103293638D01*
X149187746Y-103357984D01*
X149316440Y-103357984D01*
X148608626Y-104966651D02*
X150345986Y-103808411D01*
X148608626Y-106382278D02*
X150345986Y-105224038D01*
X149123400Y-107411824D02*
X150217293Y-107411824D01*
X150345986Y-107347478D01*
X150410333Y-107283131D01*
X150474680Y-107154438D01*
X150474680Y-106961398D01*
X150410333Y-106832704D01*
X149959906Y-107411824D02*
X150024253Y-107283131D01*
X150024253Y-107025744D01*
X149959906Y-106897051D01*
X149895560Y-106832704D01*
X149766866Y-106768358D01*
X149380786Y-106768358D01*
X149252093Y-106832704D01*
X149187746Y-106897051D01*
X149123400Y-107025744D01*
X149123400Y-107283131D01*
X149187746Y-107411824D01*
X150024253Y-108055291D02*
X149123400Y-108055291D01*
X148672973Y-108055291D02*
X148737320Y-107990944D01*
X148801666Y-108055291D01*
X148737320Y-108119638D01*
X148672973Y-108055291D01*
X148801666Y-108055291D01*
X149123400Y-108505718D02*
X149123400Y-109020491D01*
X148672973Y-108698758D02*
X149831213Y-108698758D01*
X149959906Y-108763104D01*
X150024253Y-108891798D01*
X150024253Y-109020491D01*
X150024253Y-109470918D02*
X148672973Y-109470918D01*
X150024253Y-110050038D02*
X149316440Y-110050038D01*
X149187746Y-109985691D01*
X149123400Y-109856998D01*
X149123400Y-109663958D01*
X149187746Y-109535264D01*
X149252093Y-109470918D01*
X149123400Y-111272624D02*
X150024253Y-111272624D01*
X149123400Y-110693504D02*
X149831213Y-110693504D01*
X149959906Y-110757851D01*
X150024253Y-110886544D01*
X150024253Y-111079584D01*
X149959906Y-111208278D01*
X149895560Y-111272624D01*
X150024253Y-111916091D02*
X148672973Y-111916091D01*
X149187746Y-111916091D02*
X149123400Y-112044784D01*
X149123400Y-112302171D01*
X149187746Y-112430864D01*
X149252093Y-112495211D01*
X149380786Y-112559558D01*
X149766866Y-112559558D01*
X149895560Y-112495211D01*
X149959906Y-112430864D01*
X150024253Y-112302171D01*
X150024253Y-112044784D01*
X149959906Y-111916091D01*
X149895560Y-113138678D02*
X149959906Y-113203024D01*
X150024253Y-113138678D01*
X149959906Y-113074331D01*
X149895560Y-113138678D01*
X150024253Y-113138678D01*
X149959906Y-114361264D02*
X150024253Y-114232571D01*
X150024253Y-113975184D01*
X149959906Y-113846491D01*
X149895560Y-113782144D01*
X149766866Y-113717798D01*
X149380786Y-113717798D01*
X149252093Y-113782144D01*
X149187746Y-113846491D01*
X149123400Y-113975184D01*
X149123400Y-114232571D01*
X149187746Y-114361264D01*
X150024253Y-115133424D02*
X149959906Y-115004731D01*
X149895560Y-114940384D01*
X149766866Y-114876038D01*
X149380786Y-114876038D01*
X149252093Y-114940384D01*
X149187746Y-115004731D01*
X149123400Y-115133424D01*
X149123400Y-115326464D01*
X149187746Y-115455158D01*
X149252093Y-115519504D01*
X149380786Y-115583851D01*
X149766866Y-115583851D01*
X149895560Y-115519504D01*
X149959906Y-115455158D01*
X150024253Y-115326464D01*
X150024253Y-115133424D01*
X150024253Y-116162971D02*
X149123400Y-116162971D01*
X149252093Y-116162971D02*
X149187746Y-116227318D01*
X149123400Y-116356011D01*
X149123400Y-116549051D01*
X149187746Y-116677744D01*
X149316440Y-116742091D01*
X150024253Y-116742091D01*
X149316440Y-116742091D02*
X149187746Y-116806438D01*
X149123400Y-116935131D01*
X149123400Y-117128171D01*
X149187746Y-117256864D01*
X149316440Y-117321211D01*
X150024253Y-117321211D01*
X148608626Y-118929878D02*
X150345986Y-117771638D01*
X150024253Y-119380304D02*
X148672973Y-119380304D01*
X150024253Y-120152464D01*
X148672973Y-120152464D01*
X149316440Y-121246358D02*
X149316440Y-120795931D01*
X150024253Y-120795931D02*
X148672973Y-120795931D01*
X148672973Y-121439398D01*
X148672973Y-122533291D02*
X148672973Y-122275904D01*
X148737320Y-122147211D01*
X148801666Y-122082864D01*
X148994706Y-121954171D01*
X149252093Y-121889824D01*
X149766866Y-121889824D01*
X149895560Y-121954171D01*
X149959906Y-122018518D01*
X150024253Y-122147211D01*
X150024253Y-122404598D01*
X149959906Y-122533291D01*
X149895560Y-122597638D01*
X149766866Y-122661984D01*
X149445133Y-122661984D01*
X149316440Y-122597638D01*
X149252093Y-122533291D01*
X149187746Y-122404598D01*
X149187746Y-122147211D01*
X149252093Y-122018518D01*
X149316440Y-121954171D01*
X149445133Y-121889824D01*
X148672973Y-123112411D02*
X150024253Y-124013264D01*
X148672973Y-124013264D02*
X150024253Y-123112411D01*
X148608626Y-125493238D02*
X150345986Y-124334998D01*
X149895560Y-126715824D02*
X149959906Y-126651478D01*
X150024253Y-126458438D01*
X150024253Y-126329744D01*
X149959906Y-126136704D01*
X149831213Y-126008011D01*
X149702520Y-125943664D01*
X149445133Y-125879318D01*
X149252093Y-125879318D01*
X148994706Y-125943664D01*
X148866013Y-126008011D01*
X148737320Y-126136704D01*
X148672973Y-126329744D01*
X148672973Y-126458438D01*
X148737320Y-126651478D01*
X148801666Y-126715824D01*
X150024253Y-127487984D02*
X149959906Y-127359291D01*
X149895560Y-127294944D01*
X149766866Y-127230598D01*
X149380786Y-127230598D01*
X149252093Y-127294944D01*
X149187746Y-127359291D01*
X149123400Y-127487984D01*
X149123400Y-127681024D01*
X149187746Y-127809718D01*
X149252093Y-127874064D01*
X149380786Y-127938411D01*
X149766866Y-127938411D01*
X149895560Y-127874064D01*
X149959906Y-127809718D01*
X150024253Y-127681024D01*
X150024253Y-127487984D01*
X149895560Y-129289691D02*
X149959906Y-129225344D01*
X150024253Y-129032304D01*
X150024253Y-128903611D01*
X149959906Y-128710571D01*
X149831213Y-128581878D01*
X149702520Y-128517531D01*
X149445133Y-128453184D01*
X149252093Y-128453184D01*
X148994706Y-128517531D01*
X148866013Y-128581878D01*
X148737320Y-128710571D01*
X148672973Y-128903611D01*
X148672973Y-129032304D01*
X148737320Y-129225344D01*
X148801666Y-129289691D01*
X150024253Y-130061851D02*
X149959906Y-129933158D01*
X149895560Y-129868811D01*
X149766866Y-129804464D01*
X149380786Y-129804464D01*
X149252093Y-129868811D01*
X149187746Y-129933158D01*
X149123400Y-130061851D01*
X149123400Y-130254891D01*
X149187746Y-130383584D01*
X149252093Y-130447931D01*
X149380786Y-130512278D01*
X149766866Y-130512278D01*
X149895560Y-130447931D01*
X149959906Y-130383584D01*
X150024253Y-130254891D01*
X150024253Y-130061851D01*
X149316440Y-131091398D02*
X149316440Y-131541824D01*
X150024253Y-131734864D02*
X150024253Y-131091398D01*
X148672973Y-131091398D01*
X148672973Y-131734864D01*
X150024253Y-132313984D02*
X148672973Y-132313984D01*
X148672973Y-132828758D01*
X148737320Y-132957451D01*
X148801666Y-133021798D01*
X148930360Y-133086144D01*
X149123400Y-133086144D01*
X149252093Y-133021798D01*
X149316440Y-132957451D01*
X149380786Y-132828758D01*
X149380786Y-132313984D01*
X150024253Y-134437424D02*
X149380786Y-133986998D01*
X150024253Y-133665264D02*
X148672973Y-133665264D01*
X148672973Y-134180038D01*
X148737320Y-134308731D01*
X148801666Y-134373078D01*
X148930360Y-134437424D01*
X149123400Y-134437424D01*
X149252093Y-134373078D01*
X149316440Y-134308731D01*
X149380786Y-134180038D01*
X149380786Y-133665264D01*
X148672973Y-135273931D02*
X148672973Y-135531318D01*
X148737320Y-135660011D01*
X148866013Y-135788704D01*
X149123400Y-135853051D01*
X149573826Y-135853051D01*
X149831213Y-135788704D01*
X149959906Y-135660011D01*
X150024253Y-135531318D01*
X150024253Y-135273931D01*
X149959906Y-135145238D01*
X149831213Y-135016544D01*
X149573826Y-134952198D01*
X149123400Y-134952198D01*
X148866013Y-135016544D01*
X148737320Y-135145238D01*
X148672973Y-135273931D01*
X150024253Y-136432171D02*
X148672973Y-136432171D01*
X149638173Y-136882598D01*
X148672973Y-137333024D01*
X150024253Y-137333024D01*
X149123400Y-137976491D02*
X150474680Y-137976491D01*
X149187746Y-137976491D02*
X149123400Y-138105184D01*
X149123400Y-138362571D01*
X149187746Y-138491264D01*
X149252093Y-138555611D01*
X149380786Y-138619958D01*
X149766866Y-138619958D01*
X149895560Y-138555611D01*
X149959906Y-138491264D01*
X150024253Y-138362571D01*
X150024253Y-138105184D01*
X149959906Y-137976491D01*
X150024253Y-139778198D02*
X149316440Y-139778198D01*
X149187746Y-139713851D01*
X149123400Y-139585158D01*
X149123400Y-139327771D01*
X149187746Y-139199078D01*
X149959906Y-139778198D02*
X150024253Y-139649504D01*
X150024253Y-139327771D01*
X149959906Y-139199078D01*
X149831213Y-139134731D01*
X149702520Y-139134731D01*
X149573826Y-139199078D01*
X149509480Y-139327771D01*
X149509480Y-139649504D01*
X149445133Y-139778198D01*
X150024253Y-140421664D02*
X148672973Y-140421664D01*
X149509480Y-140550358D02*
X150024253Y-140936438D01*
X149123400Y-140936438D02*
X149638173Y-140421664D01*
X110526576Y-139713241D02*
X110462229Y-139777588D01*
X110397882Y-139970628D01*
X110397882Y-140099321D01*
X110462229Y-140292361D01*
X110590922Y-140421055D01*
X110719616Y-140485401D01*
X110977002Y-140549748D01*
X111170042Y-140549748D01*
X111427429Y-140485401D01*
X111556122Y-140421055D01*
X111684816Y-140292361D01*
X111749162Y-140099321D01*
X111749162Y-139970628D01*
X111684816Y-139777588D01*
X111620469Y-139713241D01*
X110397882Y-138941081D02*
X110462229Y-139069775D01*
X110526576Y-139134121D01*
X110655269Y-139198468D01*
X111041349Y-139198468D01*
X111170042Y-139134121D01*
X111234389Y-139069775D01*
X111298736Y-138941081D01*
X111298736Y-138748041D01*
X111234389Y-138619348D01*
X111170042Y-138555001D01*
X111041349Y-138490655D01*
X110655269Y-138490655D01*
X110526576Y-138555001D01*
X110462229Y-138619348D01*
X110397882Y-138748041D01*
X110397882Y-138941081D01*
X110526576Y-137139375D02*
X110462229Y-137203721D01*
X110397882Y-137396761D01*
X110397882Y-137525455D01*
X110462229Y-137718495D01*
X110590922Y-137847188D01*
X110719616Y-137911535D01*
X110977002Y-137975881D01*
X111170042Y-137975881D01*
X111427429Y-137911535D01*
X111556122Y-137847188D01*
X111684816Y-137718495D01*
X111749162Y-137525455D01*
X111749162Y-137396761D01*
X111684816Y-137203721D01*
X111620469Y-137139375D01*
X110397882Y-136367215D02*
X110462229Y-136495908D01*
X110526576Y-136560255D01*
X110655269Y-136624601D01*
X111041349Y-136624601D01*
X111170042Y-136560255D01*
X111234389Y-136495908D01*
X111298736Y-136367215D01*
X111298736Y-136174175D01*
X111234389Y-136045481D01*
X111170042Y-135981135D01*
X111041349Y-135916788D01*
X110655269Y-135916788D01*
X110526576Y-135981135D01*
X110462229Y-136045481D01*
X110397882Y-136174175D01*
X110397882Y-136367215D01*
X111105696Y-135337668D02*
X111105696Y-134887241D01*
X110397882Y-134694201D02*
X110397882Y-135337668D01*
X111749162Y-135337668D01*
X111749162Y-134694201D01*
X110397882Y-134115081D02*
X111749162Y-134115081D01*
X111749162Y-133600308D01*
X111684816Y-133471615D01*
X111620469Y-133407268D01*
X111491776Y-133342921D01*
X111298736Y-133342921D01*
X111170042Y-133407268D01*
X111105696Y-133471615D01*
X111041349Y-133600308D01*
X111041349Y-134115081D01*
X110397882Y-131991641D02*
X111041349Y-132442068D01*
X110397882Y-132763801D02*
X111749162Y-132763801D01*
X111749162Y-132249028D01*
X111684816Y-132120335D01*
X111620469Y-132055988D01*
X111491776Y-131991641D01*
X111298736Y-131991641D01*
X111170042Y-132055988D01*
X111105696Y-132120335D01*
X111041349Y-132249028D01*
X111041349Y-132763801D01*
X111749162Y-131155135D02*
X111749162Y-130897748D01*
X111684816Y-130769055D01*
X111556122Y-130640361D01*
X111298736Y-130576015D01*
X110848309Y-130576015D01*
X110590922Y-130640361D01*
X110462229Y-130769055D01*
X110397882Y-130897748D01*
X110397882Y-131155135D01*
X110462229Y-131283828D01*
X110590922Y-131412521D01*
X110848309Y-131476868D01*
X111298736Y-131476868D01*
X111556122Y-131412521D01*
X111684816Y-131283828D01*
X111749162Y-131155135D01*
X110397882Y-129996895D02*
X111749162Y-129996895D01*
X110783962Y-129546468D01*
X111749162Y-129096041D01*
X110397882Y-129096041D01*
X111298736Y-128452575D02*
X109947456Y-128452575D01*
X111234389Y-128452575D02*
X111298736Y-128323881D01*
X111298736Y-128066495D01*
X111234389Y-127937801D01*
X111170042Y-127873455D01*
X111041349Y-127809108D01*
X110655269Y-127809108D01*
X110526576Y-127873455D01*
X110462229Y-127937801D01*
X110397882Y-128066495D01*
X110397882Y-128323881D01*
X110462229Y-128452575D01*
X110397882Y-126650868D02*
X111105696Y-126650868D01*
X111234389Y-126715215D01*
X111298736Y-126843908D01*
X111298736Y-127101295D01*
X111234389Y-127229988D01*
X110462229Y-126650868D02*
X110397882Y-126779561D01*
X110397882Y-127101295D01*
X110462229Y-127229988D01*
X110590922Y-127294335D01*
X110719616Y-127294335D01*
X110848309Y-127229988D01*
X110912656Y-127101295D01*
X110912656Y-126779561D01*
X110977002Y-126650868D01*
X110397882Y-126007401D02*
X111749162Y-126007401D01*
X110912656Y-125878708D02*
X110397882Y-125492628D01*
X111298736Y-125492628D02*
X110783962Y-126007401D01*
X111298736Y-124012655D02*
X110397882Y-123690921D01*
X111298736Y-123369188D01*
X110397882Y-122146601D02*
X110397882Y-122918761D01*
X110397882Y-122532681D02*
X111749162Y-122532681D01*
X111556122Y-122661375D01*
X111427429Y-122790068D01*
X111363082Y-122918761D01*
X108385864Y-139713241D02*
X108321517Y-139777588D01*
X108257170Y-139970628D01*
X108257170Y-140099321D01*
X108321517Y-140292361D01*
X108450210Y-140421055D01*
X108578904Y-140485401D01*
X108836290Y-140549748D01*
X109029330Y-140549748D01*
X109286717Y-140485401D01*
X109415410Y-140421055D01*
X109544104Y-140292361D01*
X109608450Y-140099321D01*
X109608450Y-139970628D01*
X109544104Y-139777588D01*
X109479757Y-139713241D01*
X108257170Y-138941081D02*
X108321517Y-139069775D01*
X108385864Y-139134121D01*
X108514557Y-139198468D01*
X108900637Y-139198468D01*
X109029330Y-139134121D01*
X109093677Y-139069775D01*
X109158024Y-138941081D01*
X109158024Y-138748041D01*
X109093677Y-138619348D01*
X109029330Y-138555001D01*
X108900637Y-138490655D01*
X108514557Y-138490655D01*
X108385864Y-138555001D01*
X108321517Y-138619348D01*
X108257170Y-138748041D01*
X108257170Y-138941081D01*
X109158024Y-137911535D02*
X107806744Y-137911535D01*
X109093677Y-137911535D02*
X109158024Y-137782841D01*
X109158024Y-137525455D01*
X109093677Y-137396761D01*
X109029330Y-137332415D01*
X108900637Y-137268068D01*
X108514557Y-137268068D01*
X108385864Y-137332415D01*
X108321517Y-137396761D01*
X108257170Y-137525455D01*
X108257170Y-137782841D01*
X108321517Y-137911535D01*
X109158024Y-136817641D02*
X108257170Y-136495908D01*
X109158024Y-136174175D02*
X108257170Y-136495908D01*
X107935437Y-136624601D01*
X107871090Y-136688948D01*
X107806744Y-136817641D01*
X108257170Y-135659401D02*
X109158024Y-135659401D01*
X108900637Y-135659401D02*
X109029330Y-135595055D01*
X109093677Y-135530708D01*
X109158024Y-135402015D01*
X109158024Y-135273321D01*
X108257170Y-134822895D02*
X109158024Y-134822895D01*
X109608450Y-134822895D02*
X109544104Y-134887241D01*
X109479757Y-134822895D01*
X109544104Y-134758548D01*
X109608450Y-134822895D01*
X109479757Y-134822895D01*
X109158024Y-133600308D02*
X108064130Y-133600308D01*
X107935437Y-133664655D01*
X107871090Y-133729001D01*
X107806744Y-133857695D01*
X107806744Y-134050735D01*
X107871090Y-134179428D01*
X108321517Y-133600308D02*
X108257170Y-133729001D01*
X108257170Y-133986388D01*
X108321517Y-134115081D01*
X108385864Y-134179428D01*
X108514557Y-134243775D01*
X108900637Y-134243775D01*
X109029330Y-134179428D01*
X109093677Y-134115081D01*
X109158024Y-133986388D01*
X109158024Y-133729001D01*
X109093677Y-133600308D01*
X108257170Y-132956841D02*
X109608450Y-132956841D01*
X108257170Y-132377721D02*
X108964984Y-132377721D01*
X109093677Y-132442068D01*
X109158024Y-132570761D01*
X109158024Y-132763801D01*
X109093677Y-132892495D01*
X109029330Y-132956841D01*
X109158024Y-131927295D02*
X109158024Y-131412521D01*
X109608450Y-131734255D02*
X108450210Y-131734255D01*
X108321517Y-131669908D01*
X108257170Y-131541215D01*
X108257170Y-131412521D01*
X109479757Y-129996895D02*
X109544104Y-129932548D01*
X109608450Y-129803855D01*
X109608450Y-129482121D01*
X109544104Y-129353428D01*
X109479757Y-129289081D01*
X109351064Y-129224735D01*
X109222370Y-129224735D01*
X109029330Y-129289081D01*
X108257170Y-130061241D01*
X108257170Y-129224735D01*
X109608450Y-128388228D02*
X109608450Y-128259535D01*
X109544104Y-128130841D01*
X109479757Y-128066495D01*
X109351064Y-128002148D01*
X109093677Y-127937801D01*
X108771944Y-127937801D01*
X108514557Y-128002148D01*
X108385864Y-128066495D01*
X108321517Y-128130841D01*
X108257170Y-128259535D01*
X108257170Y-128388228D01*
X108321517Y-128516921D01*
X108385864Y-128581268D01*
X108514557Y-128645615D01*
X108771944Y-128709961D01*
X109093677Y-128709961D01*
X109351064Y-128645615D01*
X109479757Y-128581268D01*
X109544104Y-128516921D01*
X109608450Y-128388228D01*
X108257170Y-126650868D02*
X108257170Y-127423028D01*
X108257170Y-127036948D02*
X109608450Y-127036948D01*
X109415410Y-127165641D01*
X109286717Y-127294335D01*
X109222370Y-127423028D01*
X109608450Y-126200441D02*
X109608450Y-125363935D01*
X109093677Y-125814361D01*
X109093677Y-125621321D01*
X109029330Y-125492628D01*
X108964984Y-125428281D01*
X108836290Y-125363935D01*
X108514557Y-125363935D01*
X108385864Y-125428281D01*
X108321517Y-125492628D01*
X108257170Y-125621321D01*
X108257170Y-126007401D01*
X108321517Y-126136095D01*
X108385864Y-126200441D01*
X108257170Y-123755268D02*
X109608450Y-123755268D01*
X109093677Y-123755268D02*
X109158024Y-123626575D01*
X109158024Y-123369188D01*
X109093677Y-123240495D01*
X109029330Y-123176148D01*
X108900637Y-123111801D01*
X108514557Y-123111801D01*
X108385864Y-123176148D01*
X108321517Y-123240495D01*
X108257170Y-123369188D01*
X108257170Y-123626575D01*
X108321517Y-123755268D01*
X109158024Y-122661375D02*
X108257170Y-122339641D01*
X109158024Y-122017908D02*
X108257170Y-122339641D01*
X107935437Y-122468335D01*
X107871090Y-122532681D01*
X107806744Y-122661375D01*
X108257170Y-120473588D02*
X109608450Y-120473588D01*
X108643250Y-120023161D01*
X109608450Y-119572735D01*
X108257170Y-119572735D01*
X108257170Y-118350148D02*
X108964984Y-118350148D01*
X109093677Y-118414495D01*
X109158024Y-118543188D01*
X109158024Y-118800575D01*
X109093677Y-118929268D01*
X108321517Y-118350148D02*
X108257170Y-118478841D01*
X108257170Y-118800575D01*
X108321517Y-118929268D01*
X108450210Y-118993615D01*
X108578904Y-118993615D01*
X108707597Y-118929268D01*
X108771944Y-118800575D01*
X108771944Y-118478841D01*
X108836290Y-118350148D01*
X108257170Y-117706681D02*
X109158024Y-117706681D01*
X108900637Y-117706681D02*
X109029330Y-117642335D01*
X109093677Y-117577988D01*
X109158024Y-117449295D01*
X109158024Y-117320601D01*
X108257170Y-116870175D02*
X109608450Y-116870175D01*
X108771944Y-116741481D02*
X108257170Y-116355401D01*
X109158024Y-116355401D02*
X108643250Y-116870175D01*
X109608450Y-114360655D02*
X108643250Y-114360655D01*
X108450210Y-114425001D01*
X108321517Y-114553695D01*
X108257170Y-114746735D01*
X108257170Y-114875428D01*
X108385864Y-113717188D02*
X108321517Y-113652841D01*
X108257170Y-113717188D01*
X108321517Y-113781535D01*
X108385864Y-113717188D01*
X108257170Y-113717188D01*
X108964984Y-111593748D02*
X108900637Y-111400708D01*
X108836290Y-111336361D01*
X108707597Y-111272015D01*
X108514557Y-111272015D01*
X108385864Y-111336361D01*
X108321517Y-111400708D01*
X108257170Y-111529401D01*
X108257170Y-112044175D01*
X109608450Y-112044175D01*
X109608450Y-111593748D01*
X109544104Y-111465055D01*
X109479757Y-111400708D01*
X109351064Y-111336361D01*
X109222370Y-111336361D01*
X109093677Y-111400708D01*
X109029330Y-111465055D01*
X108964984Y-111593748D01*
X108964984Y-112044175D01*
X108257170Y-110499855D02*
X108321517Y-110628548D01*
X108450210Y-110692895D01*
X109608450Y-110692895D01*
X108257170Y-109405961D02*
X108964984Y-109405961D01*
X109093677Y-109470308D01*
X109158024Y-109599001D01*
X109158024Y-109856388D01*
X109093677Y-109985081D01*
X108321517Y-109405961D02*
X108257170Y-109534655D01*
X108257170Y-109856388D01*
X108321517Y-109985081D01*
X108450210Y-110049428D01*
X108578904Y-110049428D01*
X108707597Y-109985081D01*
X108771944Y-109856388D01*
X108771944Y-109534655D01*
X108836290Y-109405961D01*
X108257170Y-108762495D02*
X109158024Y-108762495D01*
X109608450Y-108762495D02*
X109544104Y-108826841D01*
X109479757Y-108762495D01*
X109544104Y-108698148D01*
X109608450Y-108762495D01*
X109479757Y-108762495D01*
X108257170Y-108119028D02*
X109158024Y-108119028D01*
X108900637Y-108119028D02*
X109029330Y-108054681D01*
X109093677Y-107990335D01*
X109158024Y-107861641D01*
X109158024Y-107732948D01*
X106116458Y-140485401D02*
X107467738Y-140485401D01*
X107467738Y-140163668D01*
X107403392Y-139970628D01*
X107274698Y-139841935D01*
X107146005Y-139777588D01*
X106888618Y-139713241D01*
X106695578Y-139713241D01*
X106438192Y-139777588D01*
X106309498Y-139841935D01*
X106180805Y-139970628D01*
X106116458Y-140163668D01*
X106116458Y-140485401D01*
X106116458Y-139134121D02*
X107017312Y-139134121D01*
X107467738Y-139134121D02*
X107403392Y-139198468D01*
X107339045Y-139134121D01*
X107403392Y-139069775D01*
X107467738Y-139134121D01*
X107339045Y-139134121D01*
X106180805Y-138555001D02*
X106116458Y-138426308D01*
X106116458Y-138168921D01*
X106180805Y-138040228D01*
X106309498Y-137975881D01*
X106373845Y-137975881D01*
X106502538Y-138040228D01*
X106566885Y-138168921D01*
X106566885Y-138361961D01*
X106631232Y-138490655D01*
X106759925Y-138555001D01*
X106824272Y-138555001D01*
X106952965Y-138490655D01*
X107017312Y-138361961D01*
X107017312Y-138168921D01*
X106952965Y-138040228D01*
X107017312Y-137589801D02*
X107017312Y-137075028D01*
X107467738Y-137396761D02*
X106309498Y-137396761D01*
X106180805Y-137332415D01*
X106116458Y-137203721D01*
X106116458Y-137075028D01*
X106116458Y-136624601D02*
X107017312Y-136624601D01*
X106759925Y-136624601D02*
X106888618Y-136560255D01*
X106952965Y-136495908D01*
X107017312Y-136367215D01*
X107017312Y-136238521D01*
X106116458Y-135788095D02*
X107017312Y-135788095D01*
X107467738Y-135788095D02*
X107403392Y-135852441D01*
X107339045Y-135788095D01*
X107403392Y-135723748D01*
X107467738Y-135788095D01*
X107339045Y-135788095D01*
X106116458Y-135144628D02*
X107467738Y-135144628D01*
X106952965Y-135144628D02*
X107017312Y-135015935D01*
X107017312Y-134758548D01*
X106952965Y-134629855D01*
X106888618Y-134565508D01*
X106759925Y-134501161D01*
X106373845Y-134501161D01*
X106245152Y-134565508D01*
X106180805Y-134629855D01*
X106116458Y-134758548D01*
X106116458Y-135015935D01*
X106180805Y-135144628D01*
X107017312Y-133342921D02*
X106116458Y-133342921D01*
X107017312Y-133922041D02*
X106309498Y-133922041D01*
X106180805Y-133857695D01*
X106116458Y-133729001D01*
X106116458Y-133535961D01*
X106180805Y-133407268D01*
X106245152Y-133342921D01*
X107017312Y-132892495D02*
X107017312Y-132377721D01*
X107467738Y-132699455D02*
X106309498Y-132699455D01*
X106180805Y-132635108D01*
X106116458Y-132506415D01*
X106116458Y-132377721D01*
X106180805Y-131412521D02*
X106116458Y-131541215D01*
X106116458Y-131798601D01*
X106180805Y-131927295D01*
X106309498Y-131991641D01*
X106824272Y-131991641D01*
X106952965Y-131927295D01*
X107017312Y-131798601D01*
X107017312Y-131541215D01*
X106952965Y-131412521D01*
X106824272Y-131348175D01*
X106695578Y-131348175D01*
X106566885Y-131991641D01*
X106116458Y-130189935D02*
X107467738Y-130189935D01*
X106180805Y-130189935D02*
X106116458Y-130318628D01*
X106116458Y-130576015D01*
X106180805Y-130704708D01*
X106245152Y-130769055D01*
X106373845Y-130833401D01*
X106759925Y-130833401D01*
X106888618Y-130769055D01*
X106952965Y-130704708D01*
X107017312Y-130576015D01*
X107017312Y-130318628D01*
X106952965Y-130189935D01*
X107017312Y-127937801D02*
X106116458Y-127937801D01*
X107017312Y-128516921D02*
X106309498Y-128516921D01*
X106180805Y-128452575D01*
X106116458Y-128323881D01*
X106116458Y-128130841D01*
X106180805Y-128002148D01*
X106245152Y-127937801D01*
X107017312Y-127294335D02*
X106116458Y-127294335D01*
X106888618Y-127294335D02*
X106952965Y-127229988D01*
X107017312Y-127101295D01*
X107017312Y-126908255D01*
X106952965Y-126779561D01*
X106824272Y-126715215D01*
X106116458Y-126715215D01*
X106116458Y-125492628D02*
X107467738Y-125492628D01*
X106180805Y-125492628D02*
X106116458Y-125621321D01*
X106116458Y-125878708D01*
X106180805Y-126007401D01*
X106245152Y-126071748D01*
X106373845Y-126136095D01*
X106759925Y-126136095D01*
X106888618Y-126071748D01*
X106952965Y-126007401D01*
X107017312Y-125878708D01*
X107017312Y-125621321D01*
X106952965Y-125492628D01*
X106180805Y-124334388D02*
X106116458Y-124463081D01*
X106116458Y-124720468D01*
X106180805Y-124849161D01*
X106309498Y-124913508D01*
X106824272Y-124913508D01*
X106952965Y-124849161D01*
X107017312Y-124720468D01*
X107017312Y-124463081D01*
X106952965Y-124334388D01*
X106824272Y-124270041D01*
X106695578Y-124270041D01*
X106566885Y-124913508D01*
X106116458Y-123690921D02*
X107017312Y-123690921D01*
X106759925Y-123690921D02*
X106888618Y-123626575D01*
X106952965Y-123562228D01*
X107017312Y-123433535D01*
X107017312Y-123304841D01*
X107403392Y-121117055D02*
X107467738Y-121245748D01*
X107467738Y-121438788D01*
X107403392Y-121631828D01*
X107274698Y-121760521D01*
X107146005Y-121824868D01*
X106888618Y-121889215D01*
X106695578Y-121889215D01*
X106438192Y-121824868D01*
X106309498Y-121760521D01*
X106180805Y-121631828D01*
X106116458Y-121438788D01*
X106116458Y-121310095D01*
X106180805Y-121117055D01*
X106245152Y-121052708D01*
X106695578Y-121052708D01*
X106695578Y-121310095D01*
X106116458Y-120473588D02*
X107467738Y-120473588D01*
X107467738Y-119958815D01*
X107403392Y-119830121D01*
X107339045Y-119765775D01*
X107210352Y-119701428D01*
X107017312Y-119701428D01*
X106888618Y-119765775D01*
X106824272Y-119830121D01*
X106759925Y-119958815D01*
X106759925Y-120473588D01*
X106116458Y-118478841D02*
X106116458Y-119122308D01*
X107467738Y-119122308D01*
X107017312Y-118157108D02*
X106116458Y-117835375D01*
X107017312Y-117513641D01*
X107467738Y-117127561D02*
X107467738Y-116291055D01*
X106952965Y-116741481D01*
X106952965Y-116548441D01*
X106888618Y-116419748D01*
X106824272Y-116355401D01*
X106695578Y-116291055D01*
X106373845Y-116291055D01*
X106245152Y-116355401D01*
X106180805Y-116419748D01*
X106116458Y-116548441D01*
X106116458Y-116934521D01*
X106180805Y-117063215D01*
X106245152Y-117127561D01*
X103975746Y-140485401D02*
X105327026Y-140485401D01*
X103975746Y-139906281D02*
X104683560Y-139906281D01*
X104812253Y-139970628D01*
X104876600Y-140099321D01*
X104876600Y-140292361D01*
X104812253Y-140421055D01*
X104747906Y-140485401D01*
X104876600Y-139455855D02*
X104876600Y-138941081D01*
X105327026Y-139262815D02*
X104168786Y-139262815D01*
X104040093Y-139198468D01*
X103975746Y-139069775D01*
X103975746Y-138941081D01*
X104876600Y-138683695D02*
X104876600Y-138168921D01*
X105327026Y-138490655D02*
X104168786Y-138490655D01*
X104040093Y-138426308D01*
X103975746Y-138297615D01*
X103975746Y-138168921D01*
X104876600Y-137718495D02*
X103525320Y-137718495D01*
X104812253Y-137718495D02*
X104876600Y-137589801D01*
X104876600Y-137332415D01*
X104812253Y-137203721D01*
X104747906Y-137139375D01*
X104619213Y-137075028D01*
X104233133Y-137075028D01*
X104104440Y-137139375D01*
X104040093Y-137203721D01*
X103975746Y-137332415D01*
X103975746Y-137589801D01*
X104040093Y-137718495D01*
X104040093Y-136560255D02*
X103975746Y-136431561D01*
X103975746Y-136174175D01*
X104040093Y-136045481D01*
X104168786Y-135981135D01*
X104233133Y-135981135D01*
X104361826Y-136045481D01*
X104426173Y-136174175D01*
X104426173Y-136367215D01*
X104490520Y-136495908D01*
X104619213Y-136560255D01*
X104683560Y-136560255D01*
X104812253Y-136495908D01*
X104876600Y-136367215D01*
X104876600Y-136174175D01*
X104812253Y-136045481D01*
X104104440Y-135402015D02*
X104040093Y-135337668D01*
X103975746Y-135402015D01*
X104040093Y-135466361D01*
X104104440Y-135402015D01*
X103975746Y-135402015D01*
X104812253Y-135402015D02*
X104747906Y-135337668D01*
X104683560Y-135402015D01*
X104747906Y-135466361D01*
X104812253Y-135402015D01*
X104683560Y-135402015D01*
X105391373Y-133793348D02*
X103654013Y-134951588D01*
X105391373Y-132377721D02*
X103654013Y-133535961D01*
X104876600Y-131348175D02*
X103782706Y-131348175D01*
X103654013Y-131412521D01*
X103589666Y-131476868D01*
X103525320Y-131605561D01*
X103525320Y-131798601D01*
X103589666Y-131927295D01*
X104040093Y-131348175D02*
X103975746Y-131476868D01*
X103975746Y-131734255D01*
X104040093Y-131862948D01*
X104104440Y-131927295D01*
X104233133Y-131991641D01*
X104619213Y-131991641D01*
X104747906Y-131927295D01*
X104812253Y-131862948D01*
X104876600Y-131734255D01*
X104876600Y-131476868D01*
X104812253Y-131348175D01*
X103975746Y-130704708D02*
X104876600Y-130704708D01*
X105327026Y-130704708D02*
X105262680Y-130769055D01*
X105198333Y-130704708D01*
X105262680Y-130640361D01*
X105327026Y-130704708D01*
X105198333Y-130704708D01*
X104876600Y-130254281D02*
X104876600Y-129739508D01*
X105327026Y-130061241D02*
X104168786Y-130061241D01*
X104040093Y-129996895D01*
X103975746Y-129868201D01*
X103975746Y-129739508D01*
X103975746Y-129289081D02*
X105327026Y-129289081D01*
X103975746Y-128709961D02*
X104683560Y-128709961D01*
X104812253Y-128774308D01*
X104876600Y-128903001D01*
X104876600Y-129096041D01*
X104812253Y-129224735D01*
X104747906Y-129289081D01*
X104876600Y-127487375D02*
X103975746Y-127487375D01*
X104876600Y-128066495D02*
X104168786Y-128066495D01*
X104040093Y-128002148D01*
X103975746Y-127873455D01*
X103975746Y-127680415D01*
X104040093Y-127551721D01*
X104104440Y-127487375D01*
X103975746Y-126843908D02*
X105327026Y-126843908D01*
X104812253Y-126843908D02*
X104876600Y-126715215D01*
X104876600Y-126457828D01*
X104812253Y-126329135D01*
X104747906Y-126264788D01*
X104619213Y-126200441D01*
X104233133Y-126200441D01*
X104104440Y-126264788D01*
X104040093Y-126329135D01*
X103975746Y-126457828D01*
X103975746Y-126715215D01*
X104040093Y-126843908D01*
X104104440Y-125621321D02*
X104040093Y-125556975D01*
X103975746Y-125621321D01*
X104040093Y-125685668D01*
X104104440Y-125621321D01*
X103975746Y-125621321D01*
X104040093Y-124398735D02*
X103975746Y-124527428D01*
X103975746Y-124784815D01*
X104040093Y-124913508D01*
X104104440Y-124977855D01*
X104233133Y-125042201D01*
X104619213Y-125042201D01*
X104747906Y-124977855D01*
X104812253Y-124913508D01*
X104876600Y-124784815D01*
X104876600Y-124527428D01*
X104812253Y-124398735D01*
X103975746Y-123626575D02*
X104040093Y-123755268D01*
X104104440Y-123819615D01*
X104233133Y-123883961D01*
X104619213Y-123883961D01*
X104747906Y-123819615D01*
X104812253Y-123755268D01*
X104876600Y-123626575D01*
X104876600Y-123433535D01*
X104812253Y-123304841D01*
X104747906Y-123240495D01*
X104619213Y-123176148D01*
X104233133Y-123176148D01*
X104104440Y-123240495D01*
X104040093Y-123304841D01*
X103975746Y-123433535D01*
X103975746Y-123626575D01*
X103975746Y-122597028D02*
X104876600Y-122597028D01*
X104747906Y-122597028D02*
X104812253Y-122532681D01*
X104876600Y-122403988D01*
X104876600Y-122210948D01*
X104812253Y-122082255D01*
X104683560Y-122017908D01*
X103975746Y-122017908D01*
X104683560Y-122017908D02*
X104812253Y-121953561D01*
X104876600Y-121824868D01*
X104876600Y-121631828D01*
X104812253Y-121503135D01*
X104683560Y-121438788D01*
X103975746Y-121438788D01*
X105391373Y-119830121D02*
X103654013Y-120988361D01*
X103975746Y-119379695D02*
X105327026Y-119379695D01*
X103975746Y-118607535D01*
X105327026Y-118607535D01*
X104683560Y-117513641D02*
X104683560Y-117964068D01*
X103975746Y-117964068D02*
X105327026Y-117964068D01*
X105327026Y-117320601D01*
X105327026Y-116226708D02*
X105327026Y-116484095D01*
X105262680Y-116612788D01*
X105198333Y-116677135D01*
X105005293Y-116805828D01*
X104747906Y-116870175D01*
X104233133Y-116870175D01*
X104104440Y-116805828D01*
X104040093Y-116741481D01*
X103975746Y-116612788D01*
X103975746Y-116355401D01*
X104040093Y-116226708D01*
X104104440Y-116162361D01*
X104233133Y-116098015D01*
X104554866Y-116098015D01*
X104683560Y-116162361D01*
X104747906Y-116226708D01*
X104812253Y-116355401D01*
X104812253Y-116612788D01*
X104747906Y-116741481D01*
X104683560Y-116805828D01*
X104554866Y-116870175D01*
X105327026Y-115647588D02*
X103975746Y-114746735D01*
X105327026Y-114746735D02*
X103975746Y-115647588D01*
X105391373Y-113266761D02*
X103654013Y-114425001D01*
X104104440Y-112044175D02*
X104040093Y-112108521D01*
X103975746Y-112301561D01*
X103975746Y-112430255D01*
X104040093Y-112623295D01*
X104168786Y-112751988D01*
X104297480Y-112816335D01*
X104554866Y-112880681D01*
X104747906Y-112880681D01*
X105005293Y-112816335D01*
X105133986Y-112751988D01*
X105262680Y-112623295D01*
X105327026Y-112430255D01*
X105327026Y-112301561D01*
X105262680Y-112108521D01*
X105198333Y-112044175D01*
X103975746Y-111272015D02*
X104040093Y-111400708D01*
X104104440Y-111465055D01*
X104233133Y-111529401D01*
X104619213Y-111529401D01*
X104747906Y-111465055D01*
X104812253Y-111400708D01*
X104876600Y-111272015D01*
X104876600Y-111078975D01*
X104812253Y-110950281D01*
X104747906Y-110885935D01*
X104619213Y-110821588D01*
X104233133Y-110821588D01*
X104104440Y-110885935D01*
X104040093Y-110950281D01*
X103975746Y-111078975D01*
X103975746Y-111272015D01*
X104104440Y-109470308D02*
X104040093Y-109534655D01*
X103975746Y-109727695D01*
X103975746Y-109856388D01*
X104040093Y-110049428D01*
X104168786Y-110178121D01*
X104297480Y-110242468D01*
X104554866Y-110306815D01*
X104747906Y-110306815D01*
X105005293Y-110242468D01*
X105133986Y-110178121D01*
X105262680Y-110049428D01*
X105327026Y-109856388D01*
X105327026Y-109727695D01*
X105262680Y-109534655D01*
X105198333Y-109470308D01*
X103975746Y-108698148D02*
X104040093Y-108826841D01*
X104104440Y-108891188D01*
X104233133Y-108955535D01*
X104619213Y-108955535D01*
X104747906Y-108891188D01*
X104812253Y-108826841D01*
X104876600Y-108698148D01*
X104876600Y-108505108D01*
X104812253Y-108376415D01*
X104747906Y-108312068D01*
X104619213Y-108247721D01*
X104233133Y-108247721D01*
X104104440Y-108312068D01*
X104040093Y-108376415D01*
X103975746Y-108505108D01*
X103975746Y-108698148D01*
X104683560Y-107668601D02*
X104683560Y-107218175D01*
X103975746Y-107025135D02*
X103975746Y-107668601D01*
X105327026Y-107668601D01*
X105327026Y-107025135D01*
X103975746Y-106446015D02*
X105327026Y-106446015D01*
X105327026Y-105931241D01*
X105262680Y-105802548D01*
X105198333Y-105738201D01*
X105069640Y-105673855D01*
X104876600Y-105673855D01*
X104747906Y-105738201D01*
X104683560Y-105802548D01*
X104619213Y-105931241D01*
X104619213Y-106446015D01*
X103975746Y-104322575D02*
X104619213Y-104773001D01*
X103975746Y-105094735D02*
X105327026Y-105094735D01*
X105327026Y-104579961D01*
X105262680Y-104451268D01*
X105198333Y-104386921D01*
X105069640Y-104322575D01*
X104876600Y-104322575D01*
X104747906Y-104386921D01*
X104683560Y-104451268D01*
X104619213Y-104579961D01*
X104619213Y-105094735D01*
X105327026Y-103486068D02*
X105327026Y-103228681D01*
X105262680Y-103099988D01*
X105133986Y-102971295D01*
X104876600Y-102906948D01*
X104426173Y-102906948D01*
X104168786Y-102971295D01*
X104040093Y-103099988D01*
X103975746Y-103228681D01*
X103975746Y-103486068D01*
X104040093Y-103614761D01*
X104168786Y-103743455D01*
X104426173Y-103807801D01*
X104876600Y-103807801D01*
X105133986Y-103743455D01*
X105262680Y-103614761D01*
X105327026Y-103486068D01*
X103975746Y-102327828D02*
X105327026Y-102327828D01*
X104361826Y-101877401D01*
X105327026Y-101426975D01*
X103975746Y-101426975D01*
X104876600Y-100783508D02*
X103525320Y-100783508D01*
X104812253Y-100783508D02*
X104876600Y-100654815D01*
X104876600Y-100397428D01*
X104812253Y-100268735D01*
X104747906Y-100204388D01*
X104619213Y-100140041D01*
X104233133Y-100140041D01*
X104104440Y-100204388D01*
X104040093Y-100268735D01*
X103975746Y-100397428D01*
X103975746Y-100654815D01*
X104040093Y-100783508D01*
X103975746Y-98981801D02*
X104683560Y-98981801D01*
X104812253Y-99046148D01*
X104876600Y-99174841D01*
X104876600Y-99432228D01*
X104812253Y-99560921D01*
X104040093Y-98981801D02*
X103975746Y-99110495D01*
X103975746Y-99432228D01*
X104040093Y-99560921D01*
X104168786Y-99625268D01*
X104297480Y-99625268D01*
X104426173Y-99560921D01*
X104490520Y-99432228D01*
X104490520Y-99110495D01*
X104554866Y-98981801D01*
X103975746Y-98338335D02*
X105327026Y-98338335D01*
X104490520Y-98209641D02*
X103975746Y-97823561D01*
X104876600Y-97823561D02*
X104361826Y-98338335D01*
X110526576Y-85103241D02*
X110462229Y-85167588D01*
X110397882Y-85360628D01*
X110397882Y-85489321D01*
X110462229Y-85682361D01*
X110590922Y-85811055D01*
X110719616Y-85875401D01*
X110977002Y-85939748D01*
X111170042Y-85939748D01*
X111427429Y-85875401D01*
X111556122Y-85811055D01*
X111684816Y-85682361D01*
X111749162Y-85489321D01*
X111749162Y-85360628D01*
X111684816Y-85167588D01*
X111620469Y-85103241D01*
X110397882Y-84331081D02*
X110462229Y-84459775D01*
X110526576Y-84524121D01*
X110655269Y-84588468D01*
X111041349Y-84588468D01*
X111170042Y-84524121D01*
X111234389Y-84459775D01*
X111298736Y-84331081D01*
X111298736Y-84138041D01*
X111234389Y-84009348D01*
X111170042Y-83945001D01*
X111041349Y-83880655D01*
X110655269Y-83880655D01*
X110526576Y-83945001D01*
X110462229Y-84009348D01*
X110397882Y-84138041D01*
X110397882Y-84331081D01*
X110526576Y-82529375D02*
X110462229Y-82593721D01*
X110397882Y-82786761D01*
X110397882Y-82915455D01*
X110462229Y-83108495D01*
X110590922Y-83237188D01*
X110719616Y-83301535D01*
X110977002Y-83365881D01*
X111170042Y-83365881D01*
X111427429Y-83301535D01*
X111556122Y-83237188D01*
X111684816Y-83108495D01*
X111749162Y-82915455D01*
X111749162Y-82786761D01*
X111684816Y-82593721D01*
X111620469Y-82529375D01*
X110397882Y-81757215D02*
X110462229Y-81885908D01*
X110526576Y-81950255D01*
X110655269Y-82014601D01*
X111041349Y-82014601D01*
X111170042Y-81950255D01*
X111234389Y-81885908D01*
X111298736Y-81757215D01*
X111298736Y-81564175D01*
X111234389Y-81435481D01*
X111170042Y-81371135D01*
X111041349Y-81306788D01*
X110655269Y-81306788D01*
X110526576Y-81371135D01*
X110462229Y-81435481D01*
X110397882Y-81564175D01*
X110397882Y-81757215D01*
X111105696Y-80727668D02*
X111105696Y-80277241D01*
X110397882Y-80084201D02*
X110397882Y-80727668D01*
X111749162Y-80727668D01*
X111749162Y-80084201D01*
X110397882Y-79505081D02*
X111749162Y-79505081D01*
X111749162Y-78990308D01*
X111684816Y-78861615D01*
X111620469Y-78797268D01*
X111491776Y-78732921D01*
X111298736Y-78732921D01*
X111170042Y-78797268D01*
X111105696Y-78861615D01*
X111041349Y-78990308D01*
X111041349Y-79505081D01*
X110397882Y-77381641D02*
X111041349Y-77832068D01*
X110397882Y-78153801D02*
X111749162Y-78153801D01*
X111749162Y-77639028D01*
X111684816Y-77510335D01*
X111620469Y-77445988D01*
X111491776Y-77381641D01*
X111298736Y-77381641D01*
X111170042Y-77445988D01*
X111105696Y-77510335D01*
X111041349Y-77639028D01*
X111041349Y-78153801D01*
X111749162Y-76545135D02*
X111749162Y-76287748D01*
X111684816Y-76159055D01*
X111556122Y-76030361D01*
X111298736Y-75966015D01*
X110848309Y-75966015D01*
X110590922Y-76030361D01*
X110462229Y-76159055D01*
X110397882Y-76287748D01*
X110397882Y-76545135D01*
X110462229Y-76673828D01*
X110590922Y-76802521D01*
X110848309Y-76866868D01*
X111298736Y-76866868D01*
X111556122Y-76802521D01*
X111684816Y-76673828D01*
X111749162Y-76545135D01*
X110397882Y-75386895D02*
X111749162Y-75386895D01*
X110783962Y-74936468D01*
X111749162Y-74486041D01*
X110397882Y-74486041D01*
X111298736Y-73842575D02*
X109947456Y-73842575D01*
X111234389Y-73842575D02*
X111298736Y-73713881D01*
X111298736Y-73456495D01*
X111234389Y-73327801D01*
X111170042Y-73263455D01*
X111041349Y-73199108D01*
X110655269Y-73199108D01*
X110526576Y-73263455D01*
X110462229Y-73327801D01*
X110397882Y-73456495D01*
X110397882Y-73713881D01*
X110462229Y-73842575D01*
X110397882Y-72040868D02*
X111105696Y-72040868D01*
X111234389Y-72105215D01*
X111298736Y-72233908D01*
X111298736Y-72491295D01*
X111234389Y-72619988D01*
X110462229Y-72040868D02*
X110397882Y-72169561D01*
X110397882Y-72491295D01*
X110462229Y-72619988D01*
X110590922Y-72684335D01*
X110719616Y-72684335D01*
X110848309Y-72619988D01*
X110912656Y-72491295D01*
X110912656Y-72169561D01*
X110977002Y-72040868D01*
X110397882Y-71397401D02*
X111749162Y-71397401D01*
X110912656Y-71268708D02*
X110397882Y-70882628D01*
X111298736Y-70882628D02*
X110783962Y-71397401D01*
X111298736Y-69402655D02*
X110397882Y-69080921D01*
X111298736Y-68759188D01*
X110397882Y-67536601D02*
X110397882Y-68308761D01*
X110397882Y-67922681D02*
X111749162Y-67922681D01*
X111556122Y-68051375D01*
X111427429Y-68180068D01*
X111363082Y-68308761D01*
X108385864Y-85103241D02*
X108321517Y-85167588D01*
X108257170Y-85360628D01*
X108257170Y-85489321D01*
X108321517Y-85682361D01*
X108450210Y-85811055D01*
X108578904Y-85875401D01*
X108836290Y-85939748D01*
X109029330Y-85939748D01*
X109286717Y-85875401D01*
X109415410Y-85811055D01*
X109544104Y-85682361D01*
X109608450Y-85489321D01*
X109608450Y-85360628D01*
X109544104Y-85167588D01*
X109479757Y-85103241D01*
X108257170Y-84331081D02*
X108321517Y-84459775D01*
X108385864Y-84524121D01*
X108514557Y-84588468D01*
X108900637Y-84588468D01*
X109029330Y-84524121D01*
X109093677Y-84459775D01*
X109158024Y-84331081D01*
X109158024Y-84138041D01*
X109093677Y-84009348D01*
X109029330Y-83945001D01*
X108900637Y-83880655D01*
X108514557Y-83880655D01*
X108385864Y-83945001D01*
X108321517Y-84009348D01*
X108257170Y-84138041D01*
X108257170Y-84331081D01*
X109158024Y-83301535D02*
X107806744Y-83301535D01*
X109093677Y-83301535D02*
X109158024Y-83172841D01*
X109158024Y-82915455D01*
X109093677Y-82786761D01*
X109029330Y-82722415D01*
X108900637Y-82658068D01*
X108514557Y-82658068D01*
X108385864Y-82722415D01*
X108321517Y-82786761D01*
X108257170Y-82915455D01*
X108257170Y-83172841D01*
X108321517Y-83301535D01*
X109158024Y-82207641D02*
X108257170Y-81885908D01*
X109158024Y-81564175D02*
X108257170Y-81885908D01*
X107935437Y-82014601D01*
X107871090Y-82078948D01*
X107806744Y-82207641D01*
X108257170Y-81049401D02*
X109158024Y-81049401D01*
X108900637Y-81049401D02*
X109029330Y-80985055D01*
X109093677Y-80920708D01*
X109158024Y-80792015D01*
X109158024Y-80663321D01*
X108257170Y-80212895D02*
X109158024Y-80212895D01*
X109608450Y-80212895D02*
X109544104Y-80277241D01*
X109479757Y-80212895D01*
X109544104Y-80148548D01*
X109608450Y-80212895D01*
X109479757Y-80212895D01*
X109158024Y-78990308D02*
X108064130Y-78990308D01*
X107935437Y-79054655D01*
X107871090Y-79119001D01*
X107806744Y-79247695D01*
X107806744Y-79440735D01*
X107871090Y-79569428D01*
X108321517Y-78990308D02*
X108257170Y-79119001D01*
X108257170Y-79376388D01*
X108321517Y-79505081D01*
X108385864Y-79569428D01*
X108514557Y-79633775D01*
X108900637Y-79633775D01*
X109029330Y-79569428D01*
X109093677Y-79505081D01*
X109158024Y-79376388D01*
X109158024Y-79119001D01*
X109093677Y-78990308D01*
X108257170Y-78346841D02*
X109608450Y-78346841D01*
X108257170Y-77767721D02*
X108964984Y-77767721D01*
X109093677Y-77832068D01*
X109158024Y-77960761D01*
X109158024Y-78153801D01*
X109093677Y-78282495D01*
X109029330Y-78346841D01*
X109158024Y-77317295D02*
X109158024Y-76802521D01*
X109608450Y-77124255D02*
X108450210Y-77124255D01*
X108321517Y-77059908D01*
X108257170Y-76931215D01*
X108257170Y-76802521D01*
X109479757Y-75386895D02*
X109544104Y-75322548D01*
X109608450Y-75193855D01*
X109608450Y-74872121D01*
X109544104Y-74743428D01*
X109479757Y-74679081D01*
X109351064Y-74614735D01*
X109222370Y-74614735D01*
X109029330Y-74679081D01*
X108257170Y-75451241D01*
X108257170Y-74614735D01*
X109608450Y-73778228D02*
X109608450Y-73649535D01*
X109544104Y-73520841D01*
X109479757Y-73456495D01*
X109351064Y-73392148D01*
X109093677Y-73327801D01*
X108771944Y-73327801D01*
X108514557Y-73392148D01*
X108385864Y-73456495D01*
X108321517Y-73520841D01*
X108257170Y-73649535D01*
X108257170Y-73778228D01*
X108321517Y-73906921D01*
X108385864Y-73971268D01*
X108514557Y-74035615D01*
X108771944Y-74099961D01*
X109093677Y-74099961D01*
X109351064Y-74035615D01*
X109479757Y-73971268D01*
X109544104Y-73906921D01*
X109608450Y-73778228D01*
X108257170Y-72040868D02*
X108257170Y-72813028D01*
X108257170Y-72426948D02*
X109608450Y-72426948D01*
X109415410Y-72555641D01*
X109286717Y-72684335D01*
X109222370Y-72813028D01*
X109608450Y-71590441D02*
X109608450Y-70753935D01*
X109093677Y-71204361D01*
X109093677Y-71011321D01*
X109029330Y-70882628D01*
X108964984Y-70818281D01*
X108836290Y-70753935D01*
X108514557Y-70753935D01*
X108385864Y-70818281D01*
X108321517Y-70882628D01*
X108257170Y-71011321D01*
X108257170Y-71397401D01*
X108321517Y-71526095D01*
X108385864Y-71590441D01*
X108257170Y-69145268D02*
X109608450Y-69145268D01*
X109093677Y-69145268D02*
X109158024Y-69016575D01*
X109158024Y-68759188D01*
X109093677Y-68630495D01*
X109029330Y-68566148D01*
X108900637Y-68501801D01*
X108514557Y-68501801D01*
X108385864Y-68566148D01*
X108321517Y-68630495D01*
X108257170Y-68759188D01*
X108257170Y-69016575D01*
X108321517Y-69145268D01*
X109158024Y-68051375D02*
X108257170Y-67729641D01*
X109158024Y-67407908D02*
X108257170Y-67729641D01*
X107935437Y-67858335D01*
X107871090Y-67922681D01*
X107806744Y-68051375D01*
X108257170Y-65863588D02*
X109608450Y-65863588D01*
X108643250Y-65413161D01*
X109608450Y-64962735D01*
X108257170Y-64962735D01*
X108257170Y-63740148D02*
X108964984Y-63740148D01*
X109093677Y-63804495D01*
X109158024Y-63933188D01*
X109158024Y-64190575D01*
X109093677Y-64319268D01*
X108321517Y-63740148D02*
X108257170Y-63868841D01*
X108257170Y-64190575D01*
X108321517Y-64319268D01*
X108450210Y-64383615D01*
X108578904Y-64383615D01*
X108707597Y-64319268D01*
X108771944Y-64190575D01*
X108771944Y-63868841D01*
X108836290Y-63740148D01*
X108257170Y-63096681D02*
X109158024Y-63096681D01*
X108900637Y-63096681D02*
X109029330Y-63032335D01*
X109093677Y-62967988D01*
X109158024Y-62839295D01*
X109158024Y-62710601D01*
X108257170Y-62260175D02*
X109608450Y-62260175D01*
X108771944Y-62131481D02*
X108257170Y-61745401D01*
X109158024Y-61745401D02*
X108643250Y-62260175D01*
X109608450Y-59750655D02*
X108643250Y-59750655D01*
X108450210Y-59815001D01*
X108321517Y-59943695D01*
X108257170Y-60136735D01*
X108257170Y-60265428D01*
X108385864Y-59107188D02*
X108321517Y-59042841D01*
X108257170Y-59107188D01*
X108321517Y-59171535D01*
X108385864Y-59107188D01*
X108257170Y-59107188D01*
X108964984Y-56983748D02*
X108900637Y-56790708D01*
X108836290Y-56726361D01*
X108707597Y-56662015D01*
X108514557Y-56662015D01*
X108385864Y-56726361D01*
X108321517Y-56790708D01*
X108257170Y-56919401D01*
X108257170Y-57434175D01*
X109608450Y-57434175D01*
X109608450Y-56983748D01*
X109544104Y-56855055D01*
X109479757Y-56790708D01*
X109351064Y-56726361D01*
X109222370Y-56726361D01*
X109093677Y-56790708D01*
X109029330Y-56855055D01*
X108964984Y-56983748D01*
X108964984Y-57434175D01*
X108257170Y-55889855D02*
X108321517Y-56018548D01*
X108450210Y-56082895D01*
X109608450Y-56082895D01*
X108257170Y-54795961D02*
X108964984Y-54795961D01*
X109093677Y-54860308D01*
X109158024Y-54989001D01*
X109158024Y-55246388D01*
X109093677Y-55375081D01*
X108321517Y-54795961D02*
X108257170Y-54924655D01*
X108257170Y-55246388D01*
X108321517Y-55375081D01*
X108450210Y-55439428D01*
X108578904Y-55439428D01*
X108707597Y-55375081D01*
X108771944Y-55246388D01*
X108771944Y-54924655D01*
X108836290Y-54795961D01*
X108257170Y-54152495D02*
X109158024Y-54152495D01*
X109608450Y-54152495D02*
X109544104Y-54216841D01*
X109479757Y-54152495D01*
X109544104Y-54088148D01*
X109608450Y-54152495D01*
X109479757Y-54152495D01*
X108257170Y-53509028D02*
X109158024Y-53509028D01*
X108900637Y-53509028D02*
X109029330Y-53444681D01*
X109093677Y-53380335D01*
X109158024Y-53251641D01*
X109158024Y-53122948D01*
X106116458Y-85875401D02*
X107467738Y-85875401D01*
X107467738Y-85553668D01*
X107403392Y-85360628D01*
X107274698Y-85231935D01*
X107146005Y-85167588D01*
X106888618Y-85103241D01*
X106695578Y-85103241D01*
X106438192Y-85167588D01*
X106309498Y-85231935D01*
X106180805Y-85360628D01*
X106116458Y-85553668D01*
X106116458Y-85875401D01*
X106116458Y-84524121D02*
X107017312Y-84524121D01*
X107467738Y-84524121D02*
X107403392Y-84588468D01*
X107339045Y-84524121D01*
X107403392Y-84459775D01*
X107467738Y-84524121D01*
X107339045Y-84524121D01*
X106180805Y-83945001D02*
X106116458Y-83816308D01*
X106116458Y-83558921D01*
X106180805Y-83430228D01*
X106309498Y-83365881D01*
X106373845Y-83365881D01*
X106502538Y-83430228D01*
X106566885Y-83558921D01*
X106566885Y-83751961D01*
X106631232Y-83880655D01*
X106759925Y-83945001D01*
X106824272Y-83945001D01*
X106952965Y-83880655D01*
X107017312Y-83751961D01*
X107017312Y-83558921D01*
X106952965Y-83430228D01*
X107017312Y-82979801D02*
X107017312Y-82465028D01*
X107467738Y-82786761D02*
X106309498Y-82786761D01*
X106180805Y-82722415D01*
X106116458Y-82593721D01*
X106116458Y-82465028D01*
X106116458Y-82014601D02*
X107017312Y-82014601D01*
X106759925Y-82014601D02*
X106888618Y-81950255D01*
X106952965Y-81885908D01*
X107017312Y-81757215D01*
X107017312Y-81628521D01*
X106116458Y-81178095D02*
X107017312Y-81178095D01*
X107467738Y-81178095D02*
X107403392Y-81242441D01*
X107339045Y-81178095D01*
X107403392Y-81113748D01*
X107467738Y-81178095D01*
X107339045Y-81178095D01*
X106116458Y-80534628D02*
X107467738Y-80534628D01*
X106952965Y-80534628D02*
X107017312Y-80405935D01*
X107017312Y-80148548D01*
X106952965Y-80019855D01*
X106888618Y-79955508D01*
X106759925Y-79891161D01*
X106373845Y-79891161D01*
X106245152Y-79955508D01*
X106180805Y-80019855D01*
X106116458Y-80148548D01*
X106116458Y-80405935D01*
X106180805Y-80534628D01*
X107017312Y-78732921D02*
X106116458Y-78732921D01*
X107017312Y-79312041D02*
X106309498Y-79312041D01*
X106180805Y-79247695D01*
X106116458Y-79119001D01*
X106116458Y-78925961D01*
X106180805Y-78797268D01*
X106245152Y-78732921D01*
X107017312Y-78282495D02*
X107017312Y-77767721D01*
X107467738Y-78089455D02*
X106309498Y-78089455D01*
X106180805Y-78025108D01*
X106116458Y-77896415D01*
X106116458Y-77767721D01*
X106180805Y-76802521D02*
X106116458Y-76931215D01*
X106116458Y-77188601D01*
X106180805Y-77317295D01*
X106309498Y-77381641D01*
X106824272Y-77381641D01*
X106952965Y-77317295D01*
X107017312Y-77188601D01*
X107017312Y-76931215D01*
X106952965Y-76802521D01*
X106824272Y-76738175D01*
X106695578Y-76738175D01*
X106566885Y-77381641D01*
X106116458Y-75579935D02*
X107467738Y-75579935D01*
X106180805Y-75579935D02*
X106116458Y-75708628D01*
X106116458Y-75966015D01*
X106180805Y-76094708D01*
X106245152Y-76159055D01*
X106373845Y-76223401D01*
X106759925Y-76223401D01*
X106888618Y-76159055D01*
X106952965Y-76094708D01*
X107017312Y-75966015D01*
X107017312Y-75708628D01*
X106952965Y-75579935D01*
X107017312Y-73327801D02*
X106116458Y-73327801D01*
X107017312Y-73906921D02*
X106309498Y-73906921D01*
X106180805Y-73842575D01*
X106116458Y-73713881D01*
X106116458Y-73520841D01*
X106180805Y-73392148D01*
X106245152Y-73327801D01*
X107017312Y-72684335D02*
X106116458Y-72684335D01*
X106888618Y-72684335D02*
X106952965Y-72619988D01*
X107017312Y-72491295D01*
X107017312Y-72298255D01*
X106952965Y-72169561D01*
X106824272Y-72105215D01*
X106116458Y-72105215D01*
X106116458Y-70882628D02*
X107467738Y-70882628D01*
X106180805Y-70882628D02*
X106116458Y-71011321D01*
X106116458Y-71268708D01*
X106180805Y-71397401D01*
X106245152Y-71461748D01*
X106373845Y-71526095D01*
X106759925Y-71526095D01*
X106888618Y-71461748D01*
X106952965Y-71397401D01*
X107017312Y-71268708D01*
X107017312Y-71011321D01*
X106952965Y-70882628D01*
X106180805Y-69724388D02*
X106116458Y-69853081D01*
X106116458Y-70110468D01*
X106180805Y-70239161D01*
X106309498Y-70303508D01*
X106824272Y-70303508D01*
X106952965Y-70239161D01*
X107017312Y-70110468D01*
X107017312Y-69853081D01*
X106952965Y-69724388D01*
X106824272Y-69660041D01*
X106695578Y-69660041D01*
X106566885Y-70303508D01*
X106116458Y-69080921D02*
X107017312Y-69080921D01*
X106759925Y-69080921D02*
X106888618Y-69016575D01*
X106952965Y-68952228D01*
X107017312Y-68823535D01*
X107017312Y-68694841D01*
X107403392Y-66507055D02*
X107467738Y-66635748D01*
X107467738Y-66828788D01*
X107403392Y-67021828D01*
X107274698Y-67150521D01*
X107146005Y-67214868D01*
X106888618Y-67279215D01*
X106695578Y-67279215D01*
X106438192Y-67214868D01*
X106309498Y-67150521D01*
X106180805Y-67021828D01*
X106116458Y-66828788D01*
X106116458Y-66700095D01*
X106180805Y-66507055D01*
X106245152Y-66442708D01*
X106695578Y-66442708D01*
X106695578Y-66700095D01*
X106116458Y-65863588D02*
X107467738Y-65863588D01*
X107467738Y-65348815D01*
X107403392Y-65220121D01*
X107339045Y-65155775D01*
X107210352Y-65091428D01*
X107017312Y-65091428D01*
X106888618Y-65155775D01*
X106824272Y-65220121D01*
X106759925Y-65348815D01*
X106759925Y-65863588D01*
X106116458Y-63868841D02*
X106116458Y-64512308D01*
X107467738Y-64512308D01*
X107017312Y-63547108D02*
X106116458Y-63225375D01*
X107017312Y-62903641D01*
X107467738Y-62517561D02*
X107467738Y-61681055D01*
X106952965Y-62131481D01*
X106952965Y-61938441D01*
X106888618Y-61809748D01*
X106824272Y-61745401D01*
X106695578Y-61681055D01*
X106373845Y-61681055D01*
X106245152Y-61745401D01*
X106180805Y-61809748D01*
X106116458Y-61938441D01*
X106116458Y-62324521D01*
X106180805Y-62453215D01*
X106245152Y-62517561D01*
X103975746Y-85875401D02*
X105327026Y-85875401D01*
X103975746Y-85296281D02*
X104683560Y-85296281D01*
X104812253Y-85360628D01*
X104876600Y-85489321D01*
X104876600Y-85682361D01*
X104812253Y-85811055D01*
X104747906Y-85875401D01*
X104876600Y-84845855D02*
X104876600Y-84331081D01*
X105327026Y-84652815D02*
X104168786Y-84652815D01*
X104040093Y-84588468D01*
X103975746Y-84459775D01*
X103975746Y-84331081D01*
X104876600Y-84073695D02*
X104876600Y-83558921D01*
X105327026Y-83880655D02*
X104168786Y-83880655D01*
X104040093Y-83816308D01*
X103975746Y-83687615D01*
X103975746Y-83558921D01*
X104876600Y-83108495D02*
X103525320Y-83108495D01*
X104812253Y-83108495D02*
X104876600Y-82979801D01*
X104876600Y-82722415D01*
X104812253Y-82593721D01*
X104747906Y-82529375D01*
X104619213Y-82465028D01*
X104233133Y-82465028D01*
X104104440Y-82529375D01*
X104040093Y-82593721D01*
X103975746Y-82722415D01*
X103975746Y-82979801D01*
X104040093Y-83108495D01*
X104040093Y-81950255D02*
X103975746Y-81821561D01*
X103975746Y-81564175D01*
X104040093Y-81435481D01*
X104168786Y-81371135D01*
X104233133Y-81371135D01*
X104361826Y-81435481D01*
X104426173Y-81564175D01*
X104426173Y-81757215D01*
X104490520Y-81885908D01*
X104619213Y-81950255D01*
X104683560Y-81950255D01*
X104812253Y-81885908D01*
X104876600Y-81757215D01*
X104876600Y-81564175D01*
X104812253Y-81435481D01*
X104104440Y-80792015D02*
X104040093Y-80727668D01*
X103975746Y-80792015D01*
X104040093Y-80856361D01*
X104104440Y-80792015D01*
X103975746Y-80792015D01*
X104812253Y-80792015D02*
X104747906Y-80727668D01*
X104683560Y-80792015D01*
X104747906Y-80856361D01*
X104812253Y-80792015D01*
X104683560Y-80792015D01*
X105391373Y-79183348D02*
X103654013Y-80341588D01*
X105391373Y-77767721D02*
X103654013Y-78925961D01*
X104876600Y-76738175D02*
X103782706Y-76738175D01*
X103654013Y-76802521D01*
X103589666Y-76866868D01*
X103525320Y-76995561D01*
X103525320Y-77188601D01*
X103589666Y-77317295D01*
X104040093Y-76738175D02*
X103975746Y-76866868D01*
X103975746Y-77124255D01*
X104040093Y-77252948D01*
X104104440Y-77317295D01*
X104233133Y-77381641D01*
X104619213Y-77381641D01*
X104747906Y-77317295D01*
X104812253Y-77252948D01*
X104876600Y-77124255D01*
X104876600Y-76866868D01*
X104812253Y-76738175D01*
X103975746Y-76094708D02*
X104876600Y-76094708D01*
X105327026Y-76094708D02*
X105262680Y-76159055D01*
X105198333Y-76094708D01*
X105262680Y-76030361D01*
X105327026Y-76094708D01*
X105198333Y-76094708D01*
X104876600Y-75644281D02*
X104876600Y-75129508D01*
X105327026Y-75451241D02*
X104168786Y-75451241D01*
X104040093Y-75386895D01*
X103975746Y-75258201D01*
X103975746Y-75129508D01*
X103975746Y-74679081D02*
X105327026Y-74679081D01*
X103975746Y-74099961D02*
X104683560Y-74099961D01*
X104812253Y-74164308D01*
X104876600Y-74293001D01*
X104876600Y-74486041D01*
X104812253Y-74614735D01*
X104747906Y-74679081D01*
X104876600Y-72877375D02*
X103975746Y-72877375D01*
X104876600Y-73456495D02*
X104168786Y-73456495D01*
X104040093Y-73392148D01*
X103975746Y-73263455D01*
X103975746Y-73070415D01*
X104040093Y-72941721D01*
X104104440Y-72877375D01*
X103975746Y-72233908D02*
X105327026Y-72233908D01*
X104812253Y-72233908D02*
X104876600Y-72105215D01*
X104876600Y-71847828D01*
X104812253Y-71719135D01*
X104747906Y-71654788D01*
X104619213Y-71590441D01*
X104233133Y-71590441D01*
X104104440Y-71654788D01*
X104040093Y-71719135D01*
X103975746Y-71847828D01*
X103975746Y-72105215D01*
X104040093Y-72233908D01*
X104104440Y-71011321D02*
X104040093Y-70946975D01*
X103975746Y-71011321D01*
X104040093Y-71075668D01*
X104104440Y-71011321D01*
X103975746Y-71011321D01*
X104040093Y-69788735D02*
X103975746Y-69917428D01*
X103975746Y-70174815D01*
X104040093Y-70303508D01*
X104104440Y-70367855D01*
X104233133Y-70432201D01*
X104619213Y-70432201D01*
X104747906Y-70367855D01*
X104812253Y-70303508D01*
X104876600Y-70174815D01*
X104876600Y-69917428D01*
X104812253Y-69788735D01*
X103975746Y-69016575D02*
X104040093Y-69145268D01*
X104104440Y-69209615D01*
X104233133Y-69273961D01*
X104619213Y-69273961D01*
X104747906Y-69209615D01*
X104812253Y-69145268D01*
X104876600Y-69016575D01*
X104876600Y-68823535D01*
X104812253Y-68694841D01*
X104747906Y-68630495D01*
X104619213Y-68566148D01*
X104233133Y-68566148D01*
X104104440Y-68630495D01*
X104040093Y-68694841D01*
X103975746Y-68823535D01*
X103975746Y-69016575D01*
X103975746Y-67987028D02*
X104876600Y-67987028D01*
X104747906Y-67987028D02*
X104812253Y-67922681D01*
X104876600Y-67793988D01*
X104876600Y-67600948D01*
X104812253Y-67472255D01*
X104683560Y-67407908D01*
X103975746Y-67407908D01*
X104683560Y-67407908D02*
X104812253Y-67343561D01*
X104876600Y-67214868D01*
X104876600Y-67021828D01*
X104812253Y-66893135D01*
X104683560Y-66828788D01*
X103975746Y-66828788D01*
X105391373Y-65220121D02*
X103654013Y-66378361D01*
X103975746Y-64769695D02*
X105327026Y-64769695D01*
X103975746Y-63997535D01*
X105327026Y-63997535D01*
X104683560Y-62903641D02*
X104683560Y-63354068D01*
X103975746Y-63354068D02*
X105327026Y-63354068D01*
X105327026Y-62710601D01*
X105327026Y-61616708D02*
X105327026Y-61874095D01*
X105262680Y-62002788D01*
X105198333Y-62067135D01*
X105005293Y-62195828D01*
X104747906Y-62260175D01*
X104233133Y-62260175D01*
X104104440Y-62195828D01*
X104040093Y-62131481D01*
X103975746Y-62002788D01*
X103975746Y-61745401D01*
X104040093Y-61616708D01*
X104104440Y-61552361D01*
X104233133Y-61488015D01*
X104554866Y-61488015D01*
X104683560Y-61552361D01*
X104747906Y-61616708D01*
X104812253Y-61745401D01*
X104812253Y-62002788D01*
X104747906Y-62131481D01*
X104683560Y-62195828D01*
X104554866Y-62260175D01*
X105327026Y-61037588D02*
X103975746Y-60136735D01*
X105327026Y-60136735D02*
X103975746Y-61037588D01*
X105391373Y-58656761D02*
X103654013Y-59815001D01*
X104104440Y-57434175D02*
X104040093Y-57498521D01*
X103975746Y-57691561D01*
X103975746Y-57820255D01*
X104040093Y-58013295D01*
X104168786Y-58141988D01*
X104297480Y-58206335D01*
X104554866Y-58270681D01*
X104747906Y-58270681D01*
X105005293Y-58206335D01*
X105133986Y-58141988D01*
X105262680Y-58013295D01*
X105327026Y-57820255D01*
X105327026Y-57691561D01*
X105262680Y-57498521D01*
X105198333Y-57434175D01*
X103975746Y-56662015D02*
X104040093Y-56790708D01*
X104104440Y-56855055D01*
X104233133Y-56919401D01*
X104619213Y-56919401D01*
X104747906Y-56855055D01*
X104812253Y-56790708D01*
X104876600Y-56662015D01*
X104876600Y-56468975D01*
X104812253Y-56340281D01*
X104747906Y-56275935D01*
X104619213Y-56211588D01*
X104233133Y-56211588D01*
X104104440Y-56275935D01*
X104040093Y-56340281D01*
X103975746Y-56468975D01*
X103975746Y-56662015D01*
X104104440Y-54860308D02*
X104040093Y-54924655D01*
X103975746Y-55117695D01*
X103975746Y-55246388D01*
X104040093Y-55439428D01*
X104168786Y-55568121D01*
X104297480Y-55632468D01*
X104554866Y-55696815D01*
X104747906Y-55696815D01*
X105005293Y-55632468D01*
X105133986Y-55568121D01*
X105262680Y-55439428D01*
X105327026Y-55246388D01*
X105327026Y-55117695D01*
X105262680Y-54924655D01*
X105198333Y-54860308D01*
X103975746Y-54088148D02*
X104040093Y-54216841D01*
X104104440Y-54281188D01*
X104233133Y-54345535D01*
X104619213Y-54345535D01*
X104747906Y-54281188D01*
X104812253Y-54216841D01*
X104876600Y-54088148D01*
X104876600Y-53895108D01*
X104812253Y-53766415D01*
X104747906Y-53702068D01*
X104619213Y-53637721D01*
X104233133Y-53637721D01*
X104104440Y-53702068D01*
X104040093Y-53766415D01*
X103975746Y-53895108D01*
X103975746Y-54088148D01*
X104683560Y-53058601D02*
X104683560Y-52608175D01*
X103975746Y-52415135D02*
X103975746Y-53058601D01*
X105327026Y-53058601D01*
X105327026Y-52415135D01*
X103975746Y-51836015D02*
X105327026Y-51836015D01*
X105327026Y-51321241D01*
X105262680Y-51192548D01*
X105198333Y-51128201D01*
X105069640Y-51063855D01*
X104876600Y-51063855D01*
X104747906Y-51128201D01*
X104683560Y-51192548D01*
X104619213Y-51321241D01*
X104619213Y-51836015D01*
X103975746Y-49712575D02*
X104619213Y-50163001D01*
X103975746Y-50484735D02*
X105327026Y-50484735D01*
X105327026Y-49969961D01*
X105262680Y-49841268D01*
X105198333Y-49776921D01*
X105069640Y-49712575D01*
X104876600Y-49712575D01*
X104747906Y-49776921D01*
X104683560Y-49841268D01*
X104619213Y-49969961D01*
X104619213Y-50484735D01*
X105327026Y-48876068D02*
X105327026Y-48618681D01*
X105262680Y-48489988D01*
X105133986Y-48361295D01*
X104876600Y-48296948D01*
X104426173Y-48296948D01*
X104168786Y-48361295D01*
X104040093Y-48489988D01*
X103975746Y-48618681D01*
X103975746Y-48876068D01*
X104040093Y-49004761D01*
X104168786Y-49133455D01*
X104426173Y-49197801D01*
X104876600Y-49197801D01*
X105133986Y-49133455D01*
X105262680Y-49004761D01*
X105327026Y-48876068D01*
X103975746Y-47717828D02*
X105327026Y-47717828D01*
X104361826Y-47267401D01*
X105327026Y-46816975D01*
X103975746Y-46816975D01*
X104876600Y-46173508D02*
X103525320Y-46173508D01*
X104812253Y-46173508D02*
X104876600Y-46044815D01*
X104876600Y-45787428D01*
X104812253Y-45658735D01*
X104747906Y-45594388D01*
X104619213Y-45530041D01*
X104233133Y-45530041D01*
X104104440Y-45594388D01*
X104040093Y-45658735D01*
X103975746Y-45787428D01*
X103975746Y-46044815D01*
X104040093Y-46173508D01*
X103975746Y-44371801D02*
X104683560Y-44371801D01*
X104812253Y-44436148D01*
X104876600Y-44564841D01*
X104876600Y-44822228D01*
X104812253Y-44950921D01*
X104040093Y-44371801D02*
X103975746Y-44500495D01*
X103975746Y-44822228D01*
X104040093Y-44950921D01*
X104168786Y-45015268D01*
X104297480Y-45015268D01*
X104426173Y-44950921D01*
X104490520Y-44822228D01*
X104490520Y-44500495D01*
X104554866Y-44371801D01*
X103975746Y-43728335D02*
X105327026Y-43728335D01*
X104490520Y-43599641D02*
X103975746Y-43213561D01*
X104876600Y-43213561D02*
X104361826Y-43728335D01*
%TO.C,P1*%
D11*
X159734552Y-143254185D02*
X159677100Y-143311638D01*
X159619647Y-143426542D01*
X159619647Y-143713804D01*
X159677100Y-143828709D01*
X159734552Y-143886161D01*
X159849457Y-143943614D01*
X159964361Y-143943614D01*
X160136719Y-143886161D01*
X160826147Y-143196733D01*
X160826147Y-143943614D01*
X160021814Y-94994185D02*
X160826147Y-94994185D01*
X159562195Y-94706923D02*
X160423980Y-94419661D01*
X160423980Y-95166542D01*
X159619647Y-95855971D02*
X159619647Y-95970876D01*
X159677100Y-96085780D01*
X159734552Y-96143233D01*
X159849457Y-96200685D01*
X160079266Y-96258138D01*
X160366528Y-96258138D01*
X160596338Y-96200685D01*
X160711242Y-96143233D01*
X160768695Y-96085780D01*
X160826147Y-95970876D01*
X160826147Y-95855971D01*
X160768695Y-95741066D01*
X160711242Y-95683614D01*
X160596338Y-95626161D01*
X160366528Y-95568709D01*
X160079266Y-95568709D01*
X159849457Y-95626161D01*
X159734552Y-95683614D01*
X159677100Y-95741066D01*
X159619647Y-95855971D01*
X160021814Y-40384185D02*
X160826147Y-40384185D01*
X159562195Y-40096923D02*
X160423980Y-39809661D01*
X160423980Y-40556542D01*
X159619647Y-41245971D02*
X159619647Y-41360876D01*
X159677100Y-41475780D01*
X159734552Y-41533233D01*
X159849457Y-41590685D01*
X160079266Y-41648138D01*
X160366528Y-41648138D01*
X160596338Y-41590685D01*
X160711242Y-41533233D01*
X160768695Y-41475780D01*
X160826147Y-41360876D01*
X160826147Y-41245971D01*
X160768695Y-41131066D01*
X160711242Y-41073614D01*
X160596338Y-41016161D01*
X160366528Y-40958709D01*
X160079266Y-40958709D01*
X159849457Y-41016161D01*
X159734552Y-41073614D01*
X159677100Y-41131066D01*
X159619647Y-41245971D01*
X159734552Y-88644185D02*
X159677100Y-88701638D01*
X159619647Y-88816542D01*
X159619647Y-89103804D01*
X159677100Y-89218709D01*
X159734552Y-89276161D01*
X159849457Y-89333614D01*
X159964361Y-89333614D01*
X160136719Y-89276161D01*
X160826147Y-88586733D01*
X160826147Y-89333614D01*
X91967352Y-94816385D02*
X91909900Y-94873838D01*
X91852447Y-94988742D01*
X91852447Y-95276004D01*
X91909900Y-95390909D01*
X91967352Y-95448361D01*
X92082257Y-95505814D01*
X92197161Y-95505814D01*
X92369519Y-95448361D01*
X93058947Y-94758933D01*
X93058947Y-95505814D01*
X92254614Y-143076385D02*
X93058947Y-143076385D01*
X91794995Y-142789123D02*
X92656780Y-142501861D01*
X92656780Y-143248742D01*
X91852447Y-143938171D02*
X91852447Y-144053076D01*
X91909900Y-144167980D01*
X91967352Y-144225433D01*
X92082257Y-144282885D01*
X92312066Y-144340338D01*
X92599328Y-144340338D01*
X92829138Y-144282885D01*
X92944042Y-144225433D01*
X93001495Y-144167980D01*
X93058947Y-144053076D01*
X93058947Y-143938171D01*
X93001495Y-143823266D01*
X92944042Y-143765814D01*
X92829138Y-143708361D01*
X92599328Y-143650909D01*
X92312066Y-143650909D01*
X92082257Y-143708361D01*
X91967352Y-143765814D01*
X91909900Y-143823266D01*
X91852447Y-143938171D01*
X92254614Y-88466385D02*
X93058947Y-88466385D01*
X91794995Y-88179123D02*
X92656780Y-87891861D01*
X92656780Y-88638742D01*
X91852447Y-89328171D02*
X91852447Y-89443076D01*
X91909900Y-89557980D01*
X91967352Y-89615433D01*
X92082257Y-89672885D01*
X92312066Y-89730338D01*
X92599328Y-89730338D01*
X92829138Y-89672885D01*
X92944042Y-89615433D01*
X93001495Y-89557980D01*
X93058947Y-89443076D01*
X93058947Y-89328171D01*
X93001495Y-89213266D01*
X92944042Y-89155814D01*
X92829138Y-89098361D01*
X92599328Y-89040909D01*
X92312066Y-89040909D01*
X92082257Y-89098361D01*
X91967352Y-89155814D01*
X91909900Y-89213266D01*
X91852447Y-89328171D01*
X91967352Y-40206385D02*
X91909900Y-40263838D01*
X91852447Y-40378742D01*
X91852447Y-40666004D01*
X91909900Y-40780909D01*
X91967352Y-40838361D01*
X92082257Y-40895814D01*
X92197161Y-40895814D01*
X92369519Y-40838361D01*
X93058947Y-40148933D01*
X93058947Y-40895814D01*
%TD*%
M02*
