%TF.GenerationSoftware,KiCad,Pcbnew,(5.1.10)-1*%
%TF.CreationDate,2022-10-07T13:26:38-03:00*%
%TF.ProjectId,CoCoEPROMpak,436f436f-4550-4524-9f4d-70616b2e6b69,rev?*%
%TF.SameCoordinates,Original*%
%TF.FileFunction,Copper,L1,Top*%
%TF.FilePolarity,Positive*%
%FSLAX46Y46*%
G04 Gerber Fmt 4.6, Leading zero omitted, Abs format (unit mm)*
G04 Created by KiCad (PCBNEW (5.1.10)-1) date 2022-10-07 13:26:38*
%MOMM*%
%LPD*%
G01*
G04 APERTURE LIST*
%TA.AperFunction,ComponentPad*%
%ADD10C,1.219200*%
%TD*%
%TA.AperFunction,ComponentPad*%
%ADD11R,1.778000X1.778000*%
%TD*%
%TA.AperFunction,ComponentPad*%
%ADD12C,1.778000*%
%TD*%
%TA.AperFunction,SMDPad,CuDef*%
%ADD13R,9.525000X1.270000*%
%TD*%
%TA.AperFunction,SMDPad,CuDef*%
%ADD14R,6.985000X1.270000*%
%TD*%
%TA.AperFunction,ComponentPad*%
%ADD15C,5.715000*%
%TD*%
%TA.AperFunction,ViaPad*%
%ADD16C,0.685800*%
%TD*%
%TA.AperFunction,Conductor*%
%ADD17C,0.609600*%
%TD*%
%TA.AperFunction,Conductor*%
%ADD18C,0.152400*%
%TD*%
G04 APERTURE END LIST*
D10*
%TO.P,C1,1*%
%TO.N,+5V*%
X134213600Y-130263900D03*
%TO.P,C1,2*%
%TO.N,GND*%
X134213600Y-125183900D03*
%TD*%
D11*
%TO.P,U2,1*%
%TO.N,Net-(JP3-Pad2)*%
X155803600Y-135343900D03*
D12*
%TO.P,U2,2*%
%TO.N,/A12*%
X155803600Y-132803900D03*
%TO.P,U2,7*%
%TO.N,/A3*%
X155803600Y-120103900D03*
%TO.P,U2,8*%
%TO.N,/A2*%
X155803600Y-117563900D03*
%TO.P,U2,3*%
%TO.N,/A7*%
X155803600Y-130263900D03*
%TO.P,U2,4*%
%TO.N,/A6*%
X155803600Y-127723900D03*
%TO.P,U2,6*%
%TO.N,/A4*%
X155803600Y-122643900D03*
%TO.P,U2,5*%
%TO.N,/A5*%
X155803600Y-125183900D03*
%TO.P,U2,9*%
%TO.N,/A1*%
X155803600Y-115023900D03*
%TO.P,U2,10*%
%TO.N,/A0*%
X155803600Y-112483900D03*
%TO.P,U2,11*%
%TO.N,/D0*%
X155803600Y-109943900D03*
%TO.P,U2,12*%
%TO.N,/D1*%
X155803600Y-107403900D03*
%TO.P,U2,13*%
%TO.N,/D2*%
X155803600Y-104863900D03*
%TO.P,U2,14*%
%TO.N,GND*%
X155803600Y-102323900D03*
%TO.P,U2,15*%
%TO.N,/D3*%
X140563600Y-102323900D03*
%TO.P,U2,16*%
%TO.N,/D4*%
X140563600Y-104863900D03*
%TO.P,U2,17*%
%TO.N,/D5*%
X140563600Y-107403900D03*
%TO.P,U2,18*%
%TO.N,/D6*%
X140563600Y-109943900D03*
%TO.P,U2,19*%
%TO.N,/D7*%
X140563600Y-112483900D03*
%TO.P,U2,20*%
%TO.N,Net-(P1-Pad32)*%
X140563600Y-115023900D03*
%TO.P,U2,21*%
%TO.N,/A10*%
X140563600Y-117563900D03*
%TO.P,U2,22*%
%TO.N,Net-(P1-Pad32)*%
X140563600Y-120103900D03*
%TO.P,U2,23*%
%TO.N,/A11*%
X140563600Y-122643900D03*
%TO.P,U2,24*%
%TO.N,/A9*%
X140563600Y-125183900D03*
%TO.P,U2,25*%
%TO.N,/A8*%
X140563600Y-127723900D03*
%TO.P,U2,26*%
%TO.N,/A13*%
X140563600Y-130263900D03*
%TO.P,U2,27*%
%TO.N,Net-(JP2-Pad2)*%
X140563600Y-132803900D03*
%TO.P,U2,28*%
%TO.N,+5V*%
X140563600Y-135343900D03*
%TD*%
D11*
%TO.P,JP1,1*%
%TO.N,Net-(JP1-Pad1)*%
X158978600Y-141058900D03*
D12*
%TO.P,JP1,2*%
%TO.N,Net-(JP1-Pad2)*%
X158978600Y-138518900D03*
%TD*%
D13*
%TO.P,P1,1*%
%TO.N,Net-(P1-Pad1)*%
X166471600Y-143598900D03*
%TO.P,P1,3*%
%TO.N,Net-(P1-Pad3)*%
X166471600Y-141058900D03*
%TO.P,P1,5*%
%TO.N,Net-(P1-Pad5)*%
X166471600Y-138518900D03*
%TO.P,P1,7*%
%TO.N,Net-(JP1-Pad1)*%
X166471600Y-135978900D03*
D14*
%TO.P,P1,9*%
%TO.N,+5V*%
X165328600Y-133438900D03*
D13*
%TO.P,P1,11*%
%TO.N,/D1*%
X166471600Y-130898900D03*
%TO.P,P1,13*%
%TO.N,/D3*%
X166471600Y-128358900D03*
%TO.P,P1,15*%
%TO.N,/D5*%
X166471600Y-125818900D03*
%TO.P,P1,17*%
%TO.N,/D7*%
X166471600Y-123278900D03*
%TO.P,P1,19*%
%TO.N,/A0*%
X166471600Y-120738900D03*
%TO.P,P1,21*%
%TO.N,/A2*%
X166471600Y-118198900D03*
%TO.P,P1,23*%
%TO.N,/A4*%
X166471600Y-115658900D03*
%TO.P,P1,25*%
%TO.N,/A6*%
X166471600Y-113118900D03*
%TO.P,P1,27*%
%TO.N,/A8*%
X166471600Y-110578900D03*
%TO.P,P1,29*%
%TO.N,/A10*%
X166471600Y-108038900D03*
%TO.P,P1,31*%
%TO.N,/A12*%
X166471600Y-105498900D03*
%TO.P,P1,33*%
%TO.N,GND*%
X166471600Y-102958900D03*
%TO.P,P1,35*%
%TO.N,Net-(P1-Pad35)*%
X166471600Y-100418900D03*
%TO.P,P1,37*%
%TO.N,/A13*%
X166471600Y-97878900D03*
%TO.P,P1,39*%
%TO.N,Net-(P1-Pad39)*%
X166471600Y-95338900D03*
D15*
%TO.P,P1,MTG1*%
%TO.N,Net-(P1-PadMTG1)*%
X153263600Y-142138400D03*
%TO.P,P1,MTG2*%
%TO.N,Net-(P1-PadMTG2)*%
X153263600Y-96799400D03*
%TD*%
D11*
%TO.P,JP3,1*%
%TO.N,+5V*%
X138023600Y-142328900D03*
D12*
%TO.P,JP3,2*%
%TO.N,Net-(JP3-Pad2)*%
X140563600Y-142328900D03*
%TO.P,JP3,3*%
%TO.N,GND*%
X143103600Y-142328900D03*
%TD*%
D11*
%TO.P,JP2,1*%
%TO.N,+5V*%
X129768600Y-142328900D03*
D12*
%TO.P,JP2,2*%
%TO.N,Net-(JP2-Pad2)*%
X132308600Y-142328900D03*
%TO.P,JP2,3*%
%TO.N,GND*%
X134848600Y-142328900D03*
%TD*%
D11*
%TO.P,U1,1*%
%TO.N,/A7*%
X152628600Y-130263900D03*
D12*
%TO.P,U1,2*%
%TO.N,/A6*%
X152628600Y-127723900D03*
%TO.P,U1,7*%
%TO.N,/A1*%
X152628600Y-115023900D03*
%TO.P,U1,8*%
%TO.N,/A0*%
X152628600Y-112483900D03*
%TO.P,U1,3*%
%TO.N,/A5*%
X152628600Y-125183900D03*
%TO.P,U1,4*%
%TO.N,/A4*%
X152628600Y-122643900D03*
%TO.P,U1,6*%
%TO.N,/A2*%
X152628600Y-117563900D03*
%TO.P,U1,5*%
%TO.N,/A3*%
X152628600Y-120103900D03*
%TO.P,U1,9*%
%TO.N,/D0*%
X152628600Y-109943900D03*
%TO.P,U1,10*%
%TO.N,/D1*%
X152628600Y-107403900D03*
%TO.P,U1,11*%
%TO.N,/D2*%
X152628600Y-104863900D03*
%TO.P,U1,12*%
%TO.N,GND*%
X152628600Y-102323900D03*
%TO.P,U1,13*%
%TO.N,/D3*%
X137388600Y-102323900D03*
%TO.P,U1,14*%
%TO.N,/D4*%
X137388600Y-104863900D03*
%TO.P,U1,15*%
%TO.N,/D5*%
X137388600Y-107403900D03*
%TO.P,U1,16*%
%TO.N,/D6*%
X137388600Y-109943900D03*
%TO.P,U1,17*%
%TO.N,/D7*%
X137388600Y-112483900D03*
%TO.P,U1,18*%
%TO.N,Net-(P1-Pad32)*%
X137388600Y-115023900D03*
%TO.P,U1,19*%
%TO.N,/A10*%
X137388600Y-117563900D03*
%TO.P,U1,20*%
%TO.N,Net-(P1-Pad32)*%
X137388600Y-120103900D03*
%TO.P,U1,21*%
%TO.N,/A11*%
X137388600Y-122643900D03*
%TO.P,U1,22*%
%TO.N,/A9*%
X137388600Y-125183900D03*
%TO.P,U1,23*%
%TO.N,/A8*%
X137388600Y-127723900D03*
%TO.P,U1,24*%
%TO.N,+5V*%
X137388600Y-130263900D03*
%TD*%
D15*
%TO.P,P1,MTG2*%
%TO.N,Net-(P1-PadMTG2)*%
X153263600Y-42189400D03*
%TO.P,P1,MTG1*%
%TO.N,Net-(P1-PadMTG1)*%
X153263600Y-87528400D03*
D13*
%TO.P,P1,39*%
%TO.N,Net-(P1-Pad39)*%
X166471600Y-40728900D03*
%TO.P,P1,37*%
%TO.N,/A13*%
X166471600Y-43268900D03*
%TO.P,P1,35*%
%TO.N,Net-(P1-Pad35)*%
X166471600Y-45808900D03*
%TO.P,P1,33*%
%TO.N,GND*%
X166471600Y-48348900D03*
%TO.P,P1,31*%
%TO.N,/A12*%
X166471600Y-50888900D03*
%TO.P,P1,29*%
%TO.N,/A10*%
X166471600Y-53428900D03*
%TO.P,P1,27*%
%TO.N,/A8*%
X166471600Y-55968900D03*
%TO.P,P1,25*%
%TO.N,/A6*%
X166471600Y-58508900D03*
%TO.P,P1,23*%
%TO.N,/A4*%
X166471600Y-61048900D03*
%TO.P,P1,21*%
%TO.N,/A2*%
X166471600Y-63588900D03*
%TO.P,P1,19*%
%TO.N,/A0*%
X166471600Y-66128900D03*
%TO.P,P1,17*%
%TO.N,/D7*%
X166471600Y-68668900D03*
%TO.P,P1,15*%
%TO.N,/D5*%
X166471600Y-71208900D03*
%TO.P,P1,13*%
%TO.N,/D3*%
X166471600Y-73748900D03*
%TO.P,P1,11*%
%TO.N,/D1*%
X166471600Y-76288900D03*
D14*
%TO.P,P1,9*%
%TO.N,+5V*%
X165328600Y-78828900D03*
D13*
%TO.P,P1,7*%
%TO.N,Net-(JP1-Pad1)*%
X166471600Y-81368900D03*
%TO.P,P1,5*%
%TO.N,Net-(P1-Pad5)*%
X166471600Y-83908900D03*
%TO.P,P1,3*%
%TO.N,Net-(P1-Pad3)*%
X166471600Y-86448900D03*
%TO.P,P1,1*%
%TO.N,Net-(P1-Pad1)*%
X166471600Y-88988900D03*
%TD*%
D12*
%TO.P,U1,24*%
%TO.N,+5V*%
X137388600Y-75653900D03*
%TO.P,U1,23*%
%TO.N,/A8*%
X137388600Y-73113900D03*
%TO.P,U1,22*%
%TO.N,/A9*%
X137388600Y-70573900D03*
%TO.P,U1,21*%
%TO.N,/A11*%
X137388600Y-68033900D03*
%TO.P,U1,20*%
%TO.N,Net-(P1-Pad32)*%
X137388600Y-65493900D03*
%TO.P,U1,19*%
%TO.N,/A10*%
X137388600Y-62953900D03*
%TO.P,U1,18*%
%TO.N,Net-(P1-Pad32)*%
X137388600Y-60413900D03*
%TO.P,U1,17*%
%TO.N,/D7*%
X137388600Y-57873900D03*
%TO.P,U1,16*%
%TO.N,/D6*%
X137388600Y-55333900D03*
%TO.P,U1,15*%
%TO.N,/D5*%
X137388600Y-52793900D03*
%TO.P,U1,14*%
%TO.N,/D4*%
X137388600Y-50253900D03*
%TO.P,U1,13*%
%TO.N,/D3*%
X137388600Y-47713900D03*
%TO.P,U1,12*%
%TO.N,GND*%
X152628600Y-47713900D03*
%TO.P,U1,11*%
%TO.N,/D2*%
X152628600Y-50253900D03*
%TO.P,U1,10*%
%TO.N,/D1*%
X152628600Y-52793900D03*
%TO.P,U1,9*%
%TO.N,/D0*%
X152628600Y-55333900D03*
%TO.P,U1,5*%
%TO.N,/A3*%
X152628600Y-65493900D03*
%TO.P,U1,6*%
%TO.N,/A2*%
X152628600Y-62953900D03*
%TO.P,U1,4*%
%TO.N,/A4*%
X152628600Y-68033900D03*
%TO.P,U1,3*%
%TO.N,/A5*%
X152628600Y-70573900D03*
%TO.P,U1,8*%
%TO.N,/A0*%
X152628600Y-57873900D03*
%TO.P,U1,7*%
%TO.N,/A1*%
X152628600Y-60413900D03*
%TO.P,U1,2*%
%TO.N,/A6*%
X152628600Y-73113900D03*
D11*
%TO.P,U1,1*%
%TO.N,/A7*%
X152628600Y-75653900D03*
%TD*%
D12*
%TO.P,JP1,2*%
%TO.N,Net-(JP1-Pad2)*%
X158978600Y-83908900D03*
D11*
%TO.P,JP1,1*%
%TO.N,Net-(JP1-Pad1)*%
X158978600Y-86448900D03*
%TD*%
D10*
%TO.P,C1,2*%
%TO.N,GND*%
X134213600Y-70573900D03*
%TO.P,C1,1*%
%TO.N,+5V*%
X134213600Y-75653900D03*
%TD*%
D12*
%TO.P,U2,28*%
%TO.N,+5V*%
X140563600Y-80733900D03*
%TO.P,U2,27*%
%TO.N,Net-(JP2-Pad2)*%
X140563600Y-78193900D03*
%TO.P,U2,26*%
%TO.N,/A13*%
X140563600Y-75653900D03*
%TO.P,U2,25*%
%TO.N,/A8*%
X140563600Y-73113900D03*
%TO.P,U2,24*%
%TO.N,/A9*%
X140563600Y-70573900D03*
%TO.P,U2,23*%
%TO.N,/A11*%
X140563600Y-68033900D03*
%TO.P,U2,22*%
%TO.N,Net-(P1-Pad32)*%
X140563600Y-65493900D03*
%TO.P,U2,21*%
%TO.N,/A10*%
X140563600Y-62953900D03*
%TO.P,U2,20*%
%TO.N,Net-(P1-Pad32)*%
X140563600Y-60413900D03*
%TO.P,U2,19*%
%TO.N,/D7*%
X140563600Y-57873900D03*
%TO.P,U2,18*%
%TO.N,/D6*%
X140563600Y-55333900D03*
%TO.P,U2,17*%
%TO.N,/D5*%
X140563600Y-52793900D03*
%TO.P,U2,16*%
%TO.N,/D4*%
X140563600Y-50253900D03*
%TO.P,U2,15*%
%TO.N,/D3*%
X140563600Y-47713900D03*
%TO.P,U2,14*%
%TO.N,GND*%
X155803600Y-47713900D03*
%TO.P,U2,13*%
%TO.N,/D2*%
X155803600Y-50253900D03*
%TO.P,U2,12*%
%TO.N,/D1*%
X155803600Y-52793900D03*
%TO.P,U2,11*%
%TO.N,/D0*%
X155803600Y-55333900D03*
%TO.P,U2,10*%
%TO.N,/A0*%
X155803600Y-57873900D03*
%TO.P,U2,9*%
%TO.N,/A1*%
X155803600Y-60413900D03*
%TO.P,U2,5*%
%TO.N,/A5*%
X155803600Y-70573900D03*
%TO.P,U2,6*%
%TO.N,/A4*%
X155803600Y-68033900D03*
%TO.P,U2,4*%
%TO.N,/A6*%
X155803600Y-73113900D03*
%TO.P,U2,3*%
%TO.N,/A7*%
X155803600Y-75653900D03*
%TO.P,U2,8*%
%TO.N,/A2*%
X155803600Y-62953900D03*
%TO.P,U2,7*%
%TO.N,/A3*%
X155803600Y-65493900D03*
%TO.P,U2,2*%
%TO.N,/A12*%
X155803600Y-78193900D03*
D11*
%TO.P,U2,1*%
%TO.N,Net-(JP3-Pad2)*%
X155803600Y-80733900D03*
%TD*%
D12*
%TO.P,JP3,3*%
%TO.N,GND*%
X143103600Y-87718900D03*
%TO.P,JP3,2*%
%TO.N,Net-(JP3-Pad2)*%
X140563600Y-87718900D03*
D11*
%TO.P,JP3,1*%
%TO.N,+5V*%
X138023600Y-87718900D03*
%TD*%
D12*
%TO.P,JP2,3*%
%TO.N,GND*%
X134848600Y-87718900D03*
%TO.P,JP2,2*%
%TO.N,Net-(JP2-Pad2)*%
X132308600Y-87718900D03*
D11*
%TO.P,JP2,1*%
%TO.N,+5V*%
X129768600Y-87718900D03*
%TD*%
D10*
%TO.P,C1,1*%
%TO.N,+5V*%
X119786400Y-108496100D03*
%TO.P,C1,2*%
%TO.N,GND*%
X119786400Y-113576100D03*
%TD*%
D11*
%TO.P,U2,1*%
%TO.N,Net-(JP3-Pad2)*%
X98196400Y-103416100D03*
D12*
%TO.P,U2,2*%
%TO.N,/A12*%
X98196400Y-105956100D03*
%TO.P,U2,7*%
%TO.N,/A3*%
X98196400Y-118656100D03*
%TO.P,U2,8*%
%TO.N,/A2*%
X98196400Y-121196100D03*
%TO.P,U2,3*%
%TO.N,/A7*%
X98196400Y-108496100D03*
%TO.P,U2,4*%
%TO.N,/A6*%
X98196400Y-111036100D03*
%TO.P,U2,6*%
%TO.N,/A4*%
X98196400Y-116116100D03*
%TO.P,U2,5*%
%TO.N,/A5*%
X98196400Y-113576100D03*
%TO.P,U2,9*%
%TO.N,/A1*%
X98196400Y-123736100D03*
%TO.P,U2,10*%
%TO.N,/A0*%
X98196400Y-126276100D03*
%TO.P,U2,11*%
%TO.N,/D0*%
X98196400Y-128816100D03*
%TO.P,U2,12*%
%TO.N,/D1*%
X98196400Y-131356100D03*
%TO.P,U2,13*%
%TO.N,/D2*%
X98196400Y-133896100D03*
%TO.P,U2,14*%
%TO.N,GND*%
X98196400Y-136436100D03*
%TO.P,U2,15*%
%TO.N,/D3*%
X113436400Y-136436100D03*
%TO.P,U2,16*%
%TO.N,/D4*%
X113436400Y-133896100D03*
%TO.P,U2,17*%
%TO.N,/D5*%
X113436400Y-131356100D03*
%TO.P,U2,18*%
%TO.N,/D6*%
X113436400Y-128816100D03*
%TO.P,U2,19*%
%TO.N,/D7*%
X113436400Y-126276100D03*
%TO.P,U2,20*%
%TO.N,Net-(P1-Pad32)*%
X113436400Y-123736100D03*
%TO.P,U2,21*%
%TO.N,/A10*%
X113436400Y-121196100D03*
%TO.P,U2,22*%
%TO.N,Net-(P1-Pad32)*%
X113436400Y-118656100D03*
%TO.P,U2,23*%
%TO.N,/A11*%
X113436400Y-116116100D03*
%TO.P,U2,24*%
%TO.N,/A9*%
X113436400Y-113576100D03*
%TO.P,U2,25*%
%TO.N,/A8*%
X113436400Y-111036100D03*
%TO.P,U2,26*%
%TO.N,/A13*%
X113436400Y-108496100D03*
%TO.P,U2,27*%
%TO.N,Net-(JP2-Pad2)*%
X113436400Y-105956100D03*
%TO.P,U2,28*%
%TO.N,+5V*%
X113436400Y-103416100D03*
%TD*%
D11*
%TO.P,JP1,1*%
%TO.N,Net-(JP1-Pad1)*%
X95021400Y-97701100D03*
D12*
%TO.P,JP1,2*%
%TO.N,Net-(JP1-Pad2)*%
X95021400Y-100241100D03*
%TD*%
D13*
%TO.P,P1,1*%
%TO.N,Net-(P1-Pad1)*%
X87528400Y-95161100D03*
%TO.P,P1,3*%
%TO.N,Net-(P1-Pad3)*%
X87528400Y-97701100D03*
%TO.P,P1,5*%
%TO.N,Net-(P1-Pad5)*%
X87528400Y-100241100D03*
%TO.P,P1,7*%
%TO.N,Net-(JP1-Pad1)*%
X87528400Y-102781100D03*
D14*
%TO.P,P1,9*%
%TO.N,+5V*%
X88671400Y-105321100D03*
D13*
%TO.P,P1,11*%
%TO.N,/D1*%
X87528400Y-107861100D03*
%TO.P,P1,13*%
%TO.N,/D3*%
X87528400Y-110401100D03*
%TO.P,P1,15*%
%TO.N,/D5*%
X87528400Y-112941100D03*
%TO.P,P1,17*%
%TO.N,/D7*%
X87528400Y-115481100D03*
%TO.P,P1,19*%
%TO.N,/A0*%
X87528400Y-118021100D03*
%TO.P,P1,21*%
%TO.N,/A2*%
X87528400Y-120561100D03*
%TO.P,P1,23*%
%TO.N,/A4*%
X87528400Y-123101100D03*
%TO.P,P1,25*%
%TO.N,/A6*%
X87528400Y-125641100D03*
%TO.P,P1,27*%
%TO.N,/A8*%
X87528400Y-128181100D03*
%TO.P,P1,29*%
%TO.N,/A10*%
X87528400Y-130721100D03*
%TO.P,P1,31*%
%TO.N,/A12*%
X87528400Y-133261100D03*
%TO.P,P1,33*%
%TO.N,GND*%
X87528400Y-135801100D03*
%TO.P,P1,35*%
%TO.N,Net-(P1-Pad35)*%
X87528400Y-138341100D03*
%TO.P,P1,37*%
%TO.N,/A13*%
X87528400Y-140881100D03*
%TO.P,P1,39*%
%TO.N,Net-(P1-Pad39)*%
X87528400Y-143421100D03*
D15*
%TO.P,P1,MTG1*%
%TO.N,Net-(P1-PadMTG1)*%
X100736400Y-96621600D03*
%TO.P,P1,MTG2*%
%TO.N,Net-(P1-PadMTG2)*%
X100736400Y-141960600D03*
%TD*%
D11*
%TO.P,JP3,1*%
%TO.N,+5V*%
X115976400Y-96431100D03*
D12*
%TO.P,JP3,2*%
%TO.N,Net-(JP3-Pad2)*%
X113436400Y-96431100D03*
%TO.P,JP3,3*%
%TO.N,GND*%
X110896400Y-96431100D03*
%TD*%
D11*
%TO.P,JP2,1*%
%TO.N,+5V*%
X124231400Y-96431100D03*
D12*
%TO.P,JP2,2*%
%TO.N,Net-(JP2-Pad2)*%
X121691400Y-96431100D03*
%TO.P,JP2,3*%
%TO.N,GND*%
X119151400Y-96431100D03*
%TD*%
D11*
%TO.P,U1,1*%
%TO.N,/A7*%
X101371400Y-108496100D03*
D12*
%TO.P,U1,2*%
%TO.N,/A6*%
X101371400Y-111036100D03*
%TO.P,U1,7*%
%TO.N,/A1*%
X101371400Y-123736100D03*
%TO.P,U1,8*%
%TO.N,/A0*%
X101371400Y-126276100D03*
%TO.P,U1,3*%
%TO.N,/A5*%
X101371400Y-113576100D03*
%TO.P,U1,4*%
%TO.N,/A4*%
X101371400Y-116116100D03*
%TO.P,U1,6*%
%TO.N,/A2*%
X101371400Y-121196100D03*
%TO.P,U1,5*%
%TO.N,/A3*%
X101371400Y-118656100D03*
%TO.P,U1,9*%
%TO.N,/D0*%
X101371400Y-128816100D03*
%TO.P,U1,10*%
%TO.N,/D1*%
X101371400Y-131356100D03*
%TO.P,U1,11*%
%TO.N,/D2*%
X101371400Y-133896100D03*
%TO.P,U1,12*%
%TO.N,GND*%
X101371400Y-136436100D03*
%TO.P,U1,13*%
%TO.N,/D3*%
X116611400Y-136436100D03*
%TO.P,U1,14*%
%TO.N,/D4*%
X116611400Y-133896100D03*
%TO.P,U1,15*%
%TO.N,/D5*%
X116611400Y-131356100D03*
%TO.P,U1,16*%
%TO.N,/D6*%
X116611400Y-128816100D03*
%TO.P,U1,17*%
%TO.N,/D7*%
X116611400Y-126276100D03*
%TO.P,U1,18*%
%TO.N,Net-(P1-Pad32)*%
X116611400Y-123736100D03*
%TO.P,U1,19*%
%TO.N,/A10*%
X116611400Y-121196100D03*
%TO.P,U1,20*%
%TO.N,Net-(P1-Pad32)*%
X116611400Y-118656100D03*
%TO.P,U1,21*%
%TO.N,/A11*%
X116611400Y-116116100D03*
%TO.P,U1,22*%
%TO.N,/A9*%
X116611400Y-113576100D03*
%TO.P,U1,23*%
%TO.N,/A8*%
X116611400Y-111036100D03*
%TO.P,U1,24*%
%TO.N,+5V*%
X116611400Y-108496100D03*
%TD*%
D15*
%TO.P,P1,MTG2*%
%TO.N,Net-(P1-PadMTG2)*%
X100736400Y-87350600D03*
%TO.P,P1,MTG1*%
%TO.N,Net-(P1-PadMTG1)*%
X100736400Y-42011600D03*
D13*
%TO.P,P1,39*%
%TO.N,Net-(P1-Pad39)*%
X87528400Y-88811100D03*
%TO.P,P1,37*%
%TO.N,/A13*%
X87528400Y-86271100D03*
%TO.P,P1,35*%
%TO.N,Net-(P1-Pad35)*%
X87528400Y-83731100D03*
%TO.P,P1,33*%
%TO.N,GND*%
X87528400Y-81191100D03*
%TO.P,P1,31*%
%TO.N,/A12*%
X87528400Y-78651100D03*
%TO.P,P1,29*%
%TO.N,/A10*%
X87528400Y-76111100D03*
%TO.P,P1,27*%
%TO.N,/A8*%
X87528400Y-73571100D03*
%TO.P,P1,25*%
%TO.N,/A6*%
X87528400Y-71031100D03*
%TO.P,P1,23*%
%TO.N,/A4*%
X87528400Y-68491100D03*
%TO.P,P1,21*%
%TO.N,/A2*%
X87528400Y-65951100D03*
%TO.P,P1,19*%
%TO.N,/A0*%
X87528400Y-63411100D03*
%TO.P,P1,17*%
%TO.N,/D7*%
X87528400Y-60871100D03*
%TO.P,P1,15*%
%TO.N,/D5*%
X87528400Y-58331100D03*
%TO.P,P1,13*%
%TO.N,/D3*%
X87528400Y-55791100D03*
%TO.P,P1,11*%
%TO.N,/D1*%
X87528400Y-53251100D03*
D14*
%TO.P,P1,9*%
%TO.N,+5V*%
X88671400Y-50711100D03*
D13*
%TO.P,P1,7*%
%TO.N,Net-(JP1-Pad1)*%
X87528400Y-48171100D03*
%TO.P,P1,5*%
%TO.N,Net-(P1-Pad5)*%
X87528400Y-45631100D03*
%TO.P,P1,3*%
%TO.N,Net-(P1-Pad3)*%
X87528400Y-43091100D03*
%TO.P,P1,1*%
%TO.N,Net-(P1-Pad1)*%
X87528400Y-40551100D03*
%TD*%
D12*
%TO.P,U1,24*%
%TO.N,+5V*%
X116611400Y-53886100D03*
%TO.P,U1,23*%
%TO.N,/A8*%
X116611400Y-56426100D03*
%TO.P,U1,22*%
%TO.N,/A9*%
X116611400Y-58966100D03*
%TO.P,U1,21*%
%TO.N,/A11*%
X116611400Y-61506100D03*
%TO.P,U1,20*%
%TO.N,Net-(P1-Pad32)*%
X116611400Y-64046100D03*
%TO.P,U1,19*%
%TO.N,/A10*%
X116611400Y-66586100D03*
%TO.P,U1,18*%
%TO.N,Net-(P1-Pad32)*%
X116611400Y-69126100D03*
%TO.P,U1,17*%
%TO.N,/D7*%
X116611400Y-71666100D03*
%TO.P,U1,16*%
%TO.N,/D6*%
X116611400Y-74206100D03*
%TO.P,U1,15*%
%TO.N,/D5*%
X116611400Y-76746100D03*
%TO.P,U1,14*%
%TO.N,/D4*%
X116611400Y-79286100D03*
%TO.P,U1,13*%
%TO.N,/D3*%
X116611400Y-81826100D03*
%TO.P,U1,12*%
%TO.N,GND*%
X101371400Y-81826100D03*
%TO.P,U1,11*%
%TO.N,/D2*%
X101371400Y-79286100D03*
%TO.P,U1,10*%
%TO.N,/D1*%
X101371400Y-76746100D03*
%TO.P,U1,9*%
%TO.N,/D0*%
X101371400Y-74206100D03*
%TO.P,U1,5*%
%TO.N,/A3*%
X101371400Y-64046100D03*
%TO.P,U1,6*%
%TO.N,/A2*%
X101371400Y-66586100D03*
%TO.P,U1,4*%
%TO.N,/A4*%
X101371400Y-61506100D03*
%TO.P,U1,3*%
%TO.N,/A5*%
X101371400Y-58966100D03*
%TO.P,U1,8*%
%TO.N,/A0*%
X101371400Y-71666100D03*
%TO.P,U1,7*%
%TO.N,/A1*%
X101371400Y-69126100D03*
%TO.P,U1,2*%
%TO.N,/A6*%
X101371400Y-56426100D03*
D11*
%TO.P,U1,1*%
%TO.N,/A7*%
X101371400Y-53886100D03*
%TD*%
D10*
%TO.P,C1,2*%
%TO.N,GND*%
X119786400Y-58966100D03*
%TO.P,C1,1*%
%TO.N,+5V*%
X119786400Y-53886100D03*
%TD*%
D12*
%TO.P,JP1,2*%
%TO.N,Net-(JP1-Pad2)*%
X95021400Y-45631100D03*
D11*
%TO.P,JP1,1*%
%TO.N,Net-(JP1-Pad1)*%
X95021400Y-43091100D03*
%TD*%
D12*
%TO.P,U2,28*%
%TO.N,+5V*%
X113436400Y-48806100D03*
%TO.P,U2,27*%
%TO.N,Net-(JP2-Pad2)*%
X113436400Y-51346100D03*
%TO.P,U2,26*%
%TO.N,/A13*%
X113436400Y-53886100D03*
%TO.P,U2,25*%
%TO.N,/A8*%
X113436400Y-56426100D03*
%TO.P,U2,24*%
%TO.N,/A9*%
X113436400Y-58966100D03*
%TO.P,U2,23*%
%TO.N,/A11*%
X113436400Y-61506100D03*
%TO.P,U2,22*%
%TO.N,Net-(P1-Pad32)*%
X113436400Y-64046100D03*
%TO.P,U2,21*%
%TO.N,/A10*%
X113436400Y-66586100D03*
%TO.P,U2,20*%
%TO.N,Net-(P1-Pad32)*%
X113436400Y-69126100D03*
%TO.P,U2,19*%
%TO.N,/D7*%
X113436400Y-71666100D03*
%TO.P,U2,18*%
%TO.N,/D6*%
X113436400Y-74206100D03*
%TO.P,U2,17*%
%TO.N,/D5*%
X113436400Y-76746100D03*
%TO.P,U2,16*%
%TO.N,/D4*%
X113436400Y-79286100D03*
%TO.P,U2,15*%
%TO.N,/D3*%
X113436400Y-81826100D03*
%TO.P,U2,14*%
%TO.N,GND*%
X98196400Y-81826100D03*
%TO.P,U2,13*%
%TO.N,/D2*%
X98196400Y-79286100D03*
%TO.P,U2,12*%
%TO.N,/D1*%
X98196400Y-76746100D03*
%TO.P,U2,11*%
%TO.N,/D0*%
X98196400Y-74206100D03*
%TO.P,U2,10*%
%TO.N,/A0*%
X98196400Y-71666100D03*
%TO.P,U2,9*%
%TO.N,/A1*%
X98196400Y-69126100D03*
%TO.P,U2,5*%
%TO.N,/A5*%
X98196400Y-58966100D03*
%TO.P,U2,6*%
%TO.N,/A4*%
X98196400Y-61506100D03*
%TO.P,U2,4*%
%TO.N,/A6*%
X98196400Y-56426100D03*
%TO.P,U2,3*%
%TO.N,/A7*%
X98196400Y-53886100D03*
%TO.P,U2,8*%
%TO.N,/A2*%
X98196400Y-66586100D03*
%TO.P,U2,7*%
%TO.N,/A3*%
X98196400Y-64046100D03*
%TO.P,U2,2*%
%TO.N,/A12*%
X98196400Y-51346100D03*
D11*
%TO.P,U2,1*%
%TO.N,Net-(JP3-Pad2)*%
X98196400Y-48806100D03*
%TD*%
D12*
%TO.P,JP2,3*%
%TO.N,GND*%
X119151400Y-41821100D03*
%TO.P,JP2,2*%
%TO.N,Net-(JP2-Pad2)*%
X121691400Y-41821100D03*
D11*
%TO.P,JP2,1*%
%TO.N,+5V*%
X124231400Y-41821100D03*
%TD*%
D12*
%TO.P,JP3,3*%
%TO.N,GND*%
X110896400Y-41821100D03*
%TO.P,JP3,2*%
%TO.N,Net-(JP3-Pad2)*%
X113436400Y-41821100D03*
D11*
%TO.P,JP3,1*%
%TO.N,+5V*%
X115976400Y-41821100D03*
%TD*%
D16*
%TO.N,Net-(P1-Pad32)*%
X96037400Y-77889100D03*
X96037400Y-132499100D03*
X157962600Y-51650900D03*
X157962600Y-106260900D03*
%TO.N,/A0*%
X95021400Y-71666100D03*
X94513400Y-63919100D03*
%TO.N,/A3*%
X93243400Y-64554100D03*
%TO.N,/A5*%
X96545400Y-67221100D03*
X92862400Y-67602100D03*
%TO.N,/A6*%
X95783400Y-70904100D03*
%TO.N,/A7*%
X95148400Y-68618100D03*
X93497400Y-69380100D03*
%TO.N,/A8*%
X110515400Y-71793100D03*
X93497400Y-76238100D03*
X93243400Y-74841100D03*
%TO.N,/A9*%
X111912400Y-60871100D03*
X93497400Y-70269100D03*
%TO.N,/A11*%
X94132400Y-73063100D03*
X94132400Y-127673100D03*
X159867600Y-56476900D03*
X159867600Y-111086900D03*
%TO.N,/A9*%
X93497400Y-124879100D03*
X111912400Y-115481100D03*
X142087600Y-68668900D03*
X160502600Y-59270900D03*
X160502600Y-113880900D03*
X142087600Y-123278900D03*
%TO.N,/A7*%
X95148400Y-123228100D03*
X93497400Y-123990100D03*
X158851600Y-60921900D03*
X160502600Y-60159900D03*
X158851600Y-115531900D03*
X160502600Y-114769900D03*
%TO.N,/A5*%
X92862400Y-122212100D03*
X96545400Y-121831100D03*
X161137600Y-61937900D03*
X157454600Y-62318900D03*
X161137600Y-116547900D03*
X157454600Y-116928900D03*
%TO.N,/A3*%
X93243400Y-119164100D03*
X160756600Y-64985900D03*
X160756600Y-119595900D03*
%TO.N,/A12*%
X102006400Y-52362100D03*
X95910400Y-80429100D03*
%TO.N,/A13*%
X93878400Y-84366100D03*
%TO.N,/D0*%
X99339400Y-65697100D03*
X95148400Y-65189100D03*
%TO.N,/D1*%
X99974400Y-53251100D03*
%TO.N,/D2*%
X102133400Y-62776100D03*
X94767400Y-60998100D03*
%TO.N,/D3*%
X95783400Y-53378100D03*
%TO.N,/D4*%
X94894400Y-53378100D03*
X92862400Y-54902100D03*
%TO.N,/D5*%
X109880400Y-58331100D03*
X93878400Y-57188100D03*
X93497400Y-58458100D03*
%TO.N,/D6*%
X92862400Y-57823100D03*
X92862400Y-112433100D03*
X161137600Y-71716900D03*
X161137600Y-126326900D03*
%TO.N,/D4*%
X92862400Y-109512100D03*
X94894400Y-107988100D03*
X161137600Y-74637900D03*
X159105600Y-76161900D03*
X161137600Y-129247900D03*
X159105600Y-130771900D03*
%TO.N,/D2*%
X102133400Y-117386100D03*
X94767400Y-115608100D03*
X159232600Y-68541900D03*
X151866600Y-66763900D03*
X151866600Y-121373900D03*
X159232600Y-123151900D03*
%TO.N,/D0*%
X95148400Y-119799100D03*
X99339400Y-120307100D03*
X158851600Y-64350900D03*
X154660600Y-63842900D03*
X158851600Y-118960900D03*
X154660600Y-118452900D03*
%TO.N,/A13*%
X93878400Y-138976100D03*
X160121600Y-45173900D03*
X160121600Y-99783900D03*
%TO.N,/A12*%
X102006400Y-106972100D03*
X95910400Y-135039100D03*
X151993600Y-77177900D03*
X158089600Y-49110900D03*
X151993600Y-131787900D03*
X158089600Y-103720900D03*
%TO.N,/A8*%
X93243400Y-129451100D03*
X93497400Y-130848100D03*
X110515400Y-126403100D03*
X160756600Y-54698900D03*
X160502600Y-53301900D03*
X143484600Y-57746900D03*
X160756600Y-109308900D03*
X160502600Y-107911900D03*
X143484600Y-112356900D03*
%TO.N,/A6*%
X95783400Y-125514100D03*
X158216600Y-58635900D03*
X158216600Y-113245900D03*
%TO.N,/A0*%
X94513400Y-118529100D03*
X95021400Y-126276100D03*
X158978600Y-57873900D03*
X159486600Y-65620900D03*
X159486600Y-120230900D03*
X158978600Y-112483900D03*
%TO.N,/D7*%
X111023400Y-60871100D03*
X111023400Y-115481100D03*
X142976600Y-68668900D03*
X142976600Y-123278900D03*
%TO.N,/D5*%
X93497400Y-113068100D03*
X109880400Y-112941100D03*
X93878400Y-111798100D03*
X160502600Y-71081900D03*
X160121600Y-72351900D03*
X144119600Y-71208900D03*
X160502600Y-125691900D03*
X144119600Y-125818900D03*
X160121600Y-126961900D03*
%TO.N,/D3*%
X95783400Y-107988100D03*
X158216600Y-76161900D03*
X158216600Y-130771900D03*
%TO.N,/D1*%
X99974400Y-107861100D03*
X154025600Y-76288900D03*
X154025600Y-130898900D03*
%TD*%
D17*
%TO.N,GND*%
X87528400Y-81191100D02*
X95656400Y-81191100D01*
X95656400Y-81191100D02*
X98196400Y-81826100D01*
X98196400Y-81826100D02*
X101371400Y-81826100D01*
X119786400Y-58966100D02*
X118516400Y-60236100D01*
X118516400Y-60236100D02*
X118516400Y-82461100D01*
X118516400Y-82461100D02*
X117246400Y-83731100D01*
X117246400Y-83731100D02*
X103276400Y-83731100D01*
X103276400Y-83731100D02*
X101371400Y-81826100D01*
X87528400Y-135801100D02*
X95656400Y-135801100D01*
X95656400Y-135801100D02*
X98196400Y-136436100D01*
X98196400Y-136436100D02*
X101371400Y-136436100D01*
X117246400Y-138341100D02*
X103276400Y-138341100D01*
X118516400Y-137071100D02*
X117246400Y-138341100D01*
X118516400Y-114846100D02*
X118516400Y-137071100D01*
X119786400Y-113576100D02*
X118516400Y-114846100D01*
X103276400Y-138341100D02*
X101371400Y-136436100D01*
X166471600Y-102958900D02*
X158343600Y-102958900D01*
X158343600Y-102958900D02*
X155803600Y-102323900D01*
X155803600Y-102323900D02*
X152628600Y-102323900D01*
X136753600Y-100418900D02*
X150723600Y-100418900D01*
X135483600Y-101688900D02*
X136753600Y-100418900D01*
X135483600Y-123913900D02*
X135483600Y-101688900D01*
X134213600Y-125183900D02*
X135483600Y-123913900D01*
X150723600Y-100418900D02*
X152628600Y-102323900D01*
X158343600Y-48348900D02*
X155803600Y-47713900D01*
X136753600Y-45808900D02*
X150723600Y-45808900D01*
X135483600Y-47078900D02*
X136753600Y-45808900D01*
X135483600Y-69303900D02*
X135483600Y-47078900D01*
X166471600Y-48348900D02*
X158343600Y-48348900D01*
X155803600Y-47713900D02*
X152628600Y-47713900D01*
X150723600Y-45808900D02*
X152628600Y-47713900D01*
X134213600Y-70573900D02*
X135483600Y-69303900D01*
%TO.N,+5V*%
X119786400Y-53886100D02*
X116611400Y-53886100D01*
X116611400Y-53886100D02*
X116611400Y-51981100D01*
X116611400Y-51981100D02*
X113436400Y-48806100D01*
X88671400Y-50711100D02*
X93116400Y-50711100D01*
X93116400Y-50711100D02*
X96926400Y-46901100D01*
X96926400Y-46901100D02*
X111531400Y-46901100D01*
X111531400Y-46901100D02*
X113436400Y-48806100D01*
X113436400Y-48806100D02*
X115976400Y-46266100D01*
X115976400Y-46266100D02*
X115976400Y-41821100D01*
X115976400Y-41821100D02*
X117881400Y-39916100D01*
X117881400Y-39916100D02*
X122326400Y-39916100D01*
X122326400Y-39916100D02*
X124231400Y-41821100D01*
X88671400Y-105321100D02*
X93116400Y-105321100D01*
X116611400Y-108496100D02*
X116611400Y-106591100D01*
X119786400Y-108496100D02*
X116611400Y-108496100D01*
X116611400Y-106591100D02*
X113436400Y-103416100D01*
X93116400Y-105321100D02*
X96926400Y-101511100D01*
X111531400Y-101511100D02*
X113436400Y-103416100D01*
X115976400Y-96431100D02*
X117881400Y-94526100D01*
X122326400Y-94526100D02*
X124231400Y-96431100D01*
X113436400Y-103416100D02*
X115976400Y-100876100D01*
X117881400Y-94526100D02*
X122326400Y-94526100D01*
X96926400Y-101511100D02*
X111531400Y-101511100D01*
X115976400Y-100876100D02*
X115976400Y-96431100D01*
X165328600Y-133438900D02*
X160883600Y-133438900D01*
X137388600Y-130263900D02*
X137388600Y-132168900D01*
X134213600Y-130263900D02*
X137388600Y-130263900D01*
X137388600Y-132168900D02*
X140563600Y-135343900D01*
X160883600Y-133438900D02*
X157073600Y-137248900D01*
X142468600Y-137248900D02*
X140563600Y-135343900D01*
X138023600Y-142328900D02*
X136118600Y-144233900D01*
X131673600Y-144233900D02*
X129768600Y-142328900D01*
X140563600Y-135343900D02*
X138023600Y-137883900D01*
X136118600Y-144233900D02*
X131673600Y-144233900D01*
X157073600Y-137248900D02*
X142468600Y-137248900D01*
X138023600Y-137883900D02*
X138023600Y-142328900D01*
X137388600Y-75653900D02*
X137388600Y-77558900D01*
X137388600Y-77558900D02*
X140563600Y-80733900D01*
X134213600Y-75653900D02*
X137388600Y-75653900D01*
X160883600Y-78828900D02*
X157073600Y-82638900D01*
X165328600Y-78828900D02*
X160883600Y-78828900D01*
X131673600Y-89623900D02*
X129768600Y-87718900D01*
X157073600Y-82638900D02*
X142468600Y-82638900D01*
X138023600Y-83273900D02*
X138023600Y-87718900D01*
X138023600Y-87718900D02*
X136118600Y-89623900D01*
X142468600Y-82638900D02*
X140563600Y-80733900D01*
X140563600Y-80733900D02*
X138023600Y-83273900D01*
X136118600Y-89623900D02*
X131673600Y-89623900D01*
D18*
%TO.N,Net-(P1-Pad32)*%
X116611400Y-64046100D02*
X113436400Y-64046100D01*
X116611400Y-69126100D02*
X113436400Y-69126100D01*
X111404400Y-71158100D02*
X113436400Y-69126100D01*
X108610400Y-71158100D02*
X111404400Y-71158100D01*
X101879400Y-77889100D02*
X108610400Y-71158100D01*
X96037400Y-77889100D02*
X101879400Y-77889100D01*
X108610400Y-125768100D02*
X111404400Y-125768100D01*
X116611400Y-123736100D02*
X113436400Y-123736100D01*
X111404400Y-125768100D02*
X113436400Y-123736100D01*
X101879400Y-132499100D02*
X108610400Y-125768100D01*
X116611400Y-118656100D02*
X113436400Y-118656100D01*
X96037400Y-132499100D02*
X101879400Y-132499100D01*
X145389600Y-112991900D02*
X142595600Y-112991900D01*
X137388600Y-115023900D02*
X140563600Y-115023900D01*
X142595600Y-112991900D02*
X140563600Y-115023900D01*
X152120600Y-106260900D02*
X145389600Y-112991900D01*
X137388600Y-120103900D02*
X140563600Y-120103900D01*
X157962600Y-106260900D02*
X152120600Y-106260900D01*
X137388600Y-60413900D02*
X140563600Y-60413900D01*
X157962600Y-51650900D02*
X152120600Y-51650900D01*
X152120600Y-51650900D02*
X145389600Y-58381900D01*
X142595600Y-58381900D02*
X140563600Y-60413900D01*
X145389600Y-58381900D02*
X142595600Y-58381900D01*
X137388600Y-65493900D02*
X140563600Y-65493900D01*
%TO.N,Net-(JP1-Pad1)*%
X92608400Y-45504100D02*
X95021400Y-43091100D01*
X92608400Y-48171100D02*
X92608400Y-45504100D01*
X87528400Y-48171100D02*
X92608400Y-48171100D01*
%TO.N,/A0*%
X101371400Y-71666100D02*
X98196400Y-71666100D01*
X95021400Y-71666100D02*
X98196400Y-71666100D01*
X94005400Y-63411100D02*
X94513400Y-63919100D01*
X87528400Y-63411100D02*
X94005400Y-63411100D01*
%TO.N,/A1*%
X101371400Y-69126100D02*
X98196400Y-69126100D01*
%TO.N,/A2*%
X101371400Y-66586100D02*
X98196400Y-66586100D01*
X97561400Y-65951100D02*
X98196400Y-66586100D01*
X87528400Y-65951100D02*
X97561400Y-65951100D01*
%TO.N,/A3*%
X101371400Y-64046100D02*
X98196400Y-64046100D01*
X97688400Y-64554100D02*
X98196400Y-64046100D01*
X93243400Y-64554100D02*
X97688400Y-64554100D01*
%TO.N,/A4*%
X101371400Y-61506100D02*
X98196400Y-61506100D01*
X102006400Y-62141100D02*
X101371400Y-61506100D01*
X102387400Y-62141100D02*
X102006400Y-62141100D01*
X102768400Y-62522100D02*
X102387400Y-62141100D01*
X102768400Y-67983100D02*
X102768400Y-62522100D01*
X93370400Y-67983100D02*
X102768400Y-67983100D01*
X92862400Y-68491100D02*
X93370400Y-67983100D01*
X87528400Y-68491100D02*
X92862400Y-68491100D01*
%TO.N,/A5*%
X101371400Y-58966100D02*
X98196400Y-58966100D01*
X96164400Y-67602100D02*
X96545400Y-67221100D01*
X92862400Y-67602100D02*
X96164400Y-67602100D01*
%TO.N,/A6*%
X101371400Y-56426100D02*
X98196400Y-56426100D01*
X95656400Y-71031100D02*
X95783400Y-70904100D01*
X87528400Y-71031100D02*
X95656400Y-71031100D01*
%TO.N,/A7*%
X101371400Y-53886100D02*
X98196400Y-53886100D01*
X94386400Y-69380100D02*
X95148400Y-68618100D01*
X93497400Y-69380100D02*
X94386400Y-69380100D01*
%TO.N,/A8*%
X116611400Y-56426100D02*
X113436400Y-56426100D01*
X101879400Y-80429100D02*
X110515400Y-71793100D01*
X97688400Y-80429100D02*
X101879400Y-80429100D01*
X93497400Y-76238100D02*
X97688400Y-80429100D01*
X91973400Y-73571100D02*
X93243400Y-74841100D01*
X87528400Y-73571100D02*
X91973400Y-73571100D01*
%TO.N,/A9*%
X116611400Y-58966100D02*
X113436400Y-58966100D01*
X102514400Y-70269100D02*
X111912400Y-60871100D01*
X93497400Y-70269100D02*
X102514400Y-70269100D01*
%TO.N,/A10*%
X116611400Y-66586100D02*
X113436400Y-66586100D01*
X109245400Y-70777100D02*
X113436400Y-66586100D01*
X106451400Y-70777100D02*
X109245400Y-70777100D01*
X101625400Y-75603100D02*
X106451400Y-70777100D01*
X88036400Y-75603100D02*
X101625400Y-75603100D01*
X87528400Y-76111100D02*
X88036400Y-75603100D01*
%TO.N,/A11*%
X116611400Y-61506100D02*
X113436400Y-61506100D01*
X101879400Y-73063100D02*
X113436400Y-61506100D01*
X94132400Y-73063100D02*
X101879400Y-73063100D01*
X101879400Y-127673100D02*
X113436400Y-116116100D01*
X94132400Y-127673100D02*
X101879400Y-127673100D01*
X116611400Y-116116100D02*
X113436400Y-116116100D01*
X152120600Y-111086900D02*
X140563600Y-122643900D01*
X159867600Y-111086900D02*
X152120600Y-111086900D01*
X137388600Y-122643900D02*
X140563600Y-122643900D01*
X152120600Y-56476900D02*
X140563600Y-68033900D01*
X159867600Y-56476900D02*
X152120600Y-56476900D01*
X137388600Y-68033900D02*
X140563600Y-68033900D01*
%TO.N,/A9*%
X102514400Y-124879100D02*
X111912400Y-115481100D01*
X93497400Y-124879100D02*
X102514400Y-124879100D01*
X116611400Y-113576100D02*
X113436400Y-113576100D01*
X151485600Y-113880900D02*
X142087600Y-123278900D01*
X160502600Y-113880900D02*
X151485600Y-113880900D01*
X137388600Y-125183900D02*
X140563600Y-125183900D01*
X151485600Y-59270900D02*
X142087600Y-68668900D01*
X137388600Y-70573900D02*
X140563600Y-70573900D01*
X160502600Y-59270900D02*
X151485600Y-59270900D01*
%TO.N,/A7*%
X101371400Y-108496100D02*
X98196400Y-108496100D01*
X94386400Y-123990100D02*
X95148400Y-123228100D01*
X93497400Y-123990100D02*
X94386400Y-123990100D01*
X152628600Y-130263900D02*
X155803600Y-130263900D01*
X159613600Y-114769900D02*
X158851600Y-115531900D01*
X160502600Y-114769900D02*
X159613600Y-114769900D01*
X152628600Y-75653900D02*
X155803600Y-75653900D01*
X160502600Y-60159900D02*
X159613600Y-60159900D01*
X159613600Y-60159900D02*
X158851600Y-60921900D01*
%TO.N,/A5*%
X101371400Y-113576100D02*
X98196400Y-113576100D01*
X96164400Y-122212100D02*
X96545400Y-121831100D01*
X92862400Y-122212100D02*
X96164400Y-122212100D01*
X152628600Y-125183900D02*
X155803600Y-125183900D01*
X157835600Y-116547900D02*
X157454600Y-116928900D01*
X161137600Y-116547900D02*
X157835600Y-116547900D01*
X152628600Y-70573900D02*
X155803600Y-70573900D01*
X157835600Y-61937900D02*
X157454600Y-62318900D01*
X161137600Y-61937900D02*
X157835600Y-61937900D01*
%TO.N,/A3*%
X101371400Y-118656100D02*
X98196400Y-118656100D01*
X93243400Y-119164100D02*
X97688400Y-119164100D01*
X97688400Y-119164100D02*
X98196400Y-118656100D01*
X152628600Y-120103900D02*
X155803600Y-120103900D01*
X160756600Y-119595900D02*
X156311600Y-119595900D01*
X156311600Y-119595900D02*
X155803600Y-120103900D01*
X152628600Y-65493900D02*
X155803600Y-65493900D01*
X156311600Y-64985900D02*
X155803600Y-65493900D01*
X160756600Y-64985900D02*
X156311600Y-64985900D01*
%TO.N,/A1*%
X101371400Y-123736100D02*
X98196400Y-123736100D01*
X152628600Y-115023900D02*
X155803600Y-115023900D01*
X152628600Y-60413900D02*
X155803600Y-60413900D01*
%TO.N,/A12*%
X99212400Y-52362100D02*
X98196400Y-51346100D01*
X102006400Y-52362100D02*
X99212400Y-52362100D01*
X94132400Y-78651100D02*
X95910400Y-80429100D01*
X87528400Y-78651100D02*
X94132400Y-78651100D01*
%TO.N,/A13*%
X91973400Y-86271100D02*
X93878400Y-84366100D01*
X87528400Y-86271100D02*
X91973400Y-86271100D01*
%TO.N,/D0*%
X101371400Y-74206100D02*
X98196400Y-74206100D01*
X98831400Y-65189100D02*
X99339400Y-65697100D01*
X95148400Y-65189100D02*
X98831400Y-65189100D01*
%TO.N,/D1*%
X101371400Y-76746100D02*
X98196400Y-76746100D01*
X99466400Y-52743100D02*
X99974400Y-53251100D01*
X88036400Y-52743100D02*
X99466400Y-52743100D01*
X87528400Y-53251100D02*
X88036400Y-52743100D01*
%TO.N,/D2*%
X101371400Y-79286100D02*
X98196400Y-79286100D01*
X102006400Y-62649100D02*
X102133400Y-62776100D01*
X96418400Y-62649100D02*
X102006400Y-62649100D01*
X94767400Y-60998100D02*
X96418400Y-62649100D01*
%TO.N,/D3*%
X116611400Y-81826100D02*
X113436400Y-81826100D01*
X93370400Y-55791100D02*
X95783400Y-53378100D01*
X87528400Y-55791100D02*
X93370400Y-55791100D01*
%TO.N,/D4*%
X116611400Y-79286100D02*
X113436400Y-79286100D01*
X93370400Y-54902100D02*
X94894400Y-53378100D01*
X92862400Y-54902100D02*
X93370400Y-54902100D01*
%TO.N,/D5*%
X116611400Y-76746100D02*
X113436400Y-76746100D01*
X106832400Y-55283100D02*
X109880400Y-58331100D01*
X95783400Y-55283100D02*
X106832400Y-55283100D01*
X93878400Y-57188100D02*
X95783400Y-55283100D01*
X87655400Y-58458100D02*
X93497400Y-58458100D01*
X87528400Y-58331100D02*
X87655400Y-58458100D01*
%TO.N,/D6*%
X116611400Y-74206100D02*
X113436400Y-74206100D01*
X116611400Y-72809100D02*
X116611400Y-74206100D01*
X117119400Y-72809100D02*
X116611400Y-72809100D01*
X117754400Y-72174100D02*
X117119400Y-72809100D01*
X117754400Y-60109100D02*
X117754400Y-72174100D01*
X110769400Y-60109100D02*
X117754400Y-60109100D01*
X108483400Y-57823100D02*
X110769400Y-60109100D01*
X92862400Y-57823100D02*
X108483400Y-57823100D01*
X116611400Y-128816100D02*
X113436400Y-128816100D01*
X116611400Y-127419100D02*
X116611400Y-128816100D01*
X117754400Y-114719100D02*
X117754400Y-126784100D01*
X92862400Y-112433100D02*
X108483400Y-112433100D01*
X117119400Y-127419100D02*
X116611400Y-127419100D01*
X108483400Y-112433100D02*
X110769400Y-114719100D01*
X117754400Y-126784100D02*
X117119400Y-127419100D01*
X110769400Y-114719100D02*
X117754400Y-114719100D01*
X137388600Y-109943900D02*
X140563600Y-109943900D01*
X137388600Y-111340900D02*
X137388600Y-109943900D01*
X136245600Y-124040900D02*
X136245600Y-111975900D01*
X161137600Y-126326900D02*
X145516600Y-126326900D01*
X136880600Y-111340900D02*
X137388600Y-111340900D01*
X145516600Y-126326900D02*
X143230600Y-124040900D01*
X136245600Y-111975900D02*
X136880600Y-111340900D01*
X143230600Y-124040900D02*
X136245600Y-124040900D01*
X136245600Y-69430900D02*
X136245600Y-57365900D01*
X136880600Y-56730900D02*
X137388600Y-56730900D01*
X136245600Y-57365900D02*
X136880600Y-56730900D01*
X161137600Y-71716900D02*
X145516600Y-71716900D01*
X143230600Y-69430900D02*
X136245600Y-69430900D01*
X137388600Y-55333900D02*
X140563600Y-55333900D01*
X145516600Y-71716900D02*
X143230600Y-69430900D01*
X137388600Y-56730900D02*
X137388600Y-55333900D01*
%TO.N,/D4*%
X116611400Y-133896100D02*
X113436400Y-133896100D01*
X92862400Y-109512100D02*
X93370400Y-109512100D01*
X93370400Y-109512100D02*
X94894400Y-107988100D01*
X137388600Y-104863900D02*
X140563600Y-104863900D01*
X161137600Y-129247900D02*
X160629600Y-129247900D01*
X160629600Y-129247900D02*
X159105600Y-130771900D01*
X161137600Y-74637900D02*
X160629600Y-74637900D01*
X137388600Y-50253900D02*
X140563600Y-50253900D01*
X160629600Y-74637900D02*
X159105600Y-76161900D01*
%TO.N,/D2*%
X101371400Y-133896100D02*
X98196400Y-133896100D01*
X94767400Y-115608100D02*
X96418400Y-117259100D01*
X102006400Y-117259100D02*
X102133400Y-117386100D01*
X96418400Y-117259100D02*
X102006400Y-117259100D01*
X152628600Y-104863900D02*
X155803600Y-104863900D01*
X159232600Y-123151900D02*
X157581600Y-121500900D01*
X151993600Y-121500900D02*
X151866600Y-121373900D01*
X157581600Y-121500900D02*
X151993600Y-121500900D01*
X159232600Y-68541900D02*
X157581600Y-66890900D01*
X152628600Y-50253900D02*
X155803600Y-50253900D01*
X157581600Y-66890900D02*
X151993600Y-66890900D01*
X151993600Y-66890900D02*
X151866600Y-66763900D01*
%TO.N,/D0*%
X98831400Y-119799100D02*
X99339400Y-120307100D01*
X95148400Y-119799100D02*
X98831400Y-119799100D01*
X101371400Y-128816100D02*
X98196400Y-128816100D01*
X155168600Y-118960900D02*
X154660600Y-118452900D01*
X158851600Y-118960900D02*
X155168600Y-118960900D01*
X152628600Y-109943900D02*
X155803600Y-109943900D01*
X155168600Y-64350900D02*
X154660600Y-63842900D01*
X158851600Y-64350900D02*
X155168600Y-64350900D01*
X152628600Y-55333900D02*
X155803600Y-55333900D01*
%TO.N,/A13*%
X91973400Y-140881100D02*
X93878400Y-138976100D01*
X87528400Y-140881100D02*
X91973400Y-140881100D01*
X162026600Y-97878900D02*
X160121600Y-99783900D01*
X166471600Y-97878900D02*
X162026600Y-97878900D01*
X162026600Y-43268900D02*
X160121600Y-45173900D01*
X166471600Y-43268900D02*
X162026600Y-43268900D01*
%TO.N,/A12*%
X102006400Y-106972100D02*
X99212400Y-106972100D01*
X87528400Y-133261100D02*
X94132400Y-133261100D01*
X99212400Y-106972100D02*
X98196400Y-105956100D01*
X94132400Y-133261100D02*
X95910400Y-135039100D01*
X151993600Y-131787900D02*
X154787600Y-131787900D01*
X166471600Y-105498900D02*
X159867600Y-105498900D01*
X154787600Y-131787900D02*
X155803600Y-132803900D01*
X159867600Y-105498900D02*
X158089600Y-103720900D01*
X151993600Y-77177900D02*
X154787600Y-77177900D01*
X154787600Y-77177900D02*
X155803600Y-78193900D01*
X166471600Y-50888900D02*
X159867600Y-50888900D01*
X159867600Y-50888900D02*
X158089600Y-49110900D01*
%TO.N,/A10*%
X116611400Y-121196100D02*
X113436400Y-121196100D01*
X101625400Y-130213100D02*
X106451400Y-125387100D01*
X88036400Y-130213100D02*
X101625400Y-130213100D01*
X106451400Y-125387100D02*
X109245400Y-125387100D01*
X109245400Y-125387100D02*
X113436400Y-121196100D01*
X87528400Y-130721100D02*
X88036400Y-130213100D01*
X137388600Y-117563900D02*
X140563600Y-117563900D01*
X152374600Y-108546900D02*
X147548600Y-113372900D01*
X165963600Y-108546900D02*
X152374600Y-108546900D01*
X147548600Y-113372900D02*
X144754600Y-113372900D01*
X144754600Y-113372900D02*
X140563600Y-117563900D01*
X166471600Y-108038900D02*
X165963600Y-108546900D01*
X152374600Y-53936900D02*
X147548600Y-58762900D01*
X137388600Y-62953900D02*
X140563600Y-62953900D01*
X166471600Y-53428900D02*
X165963600Y-53936900D01*
X165963600Y-53936900D02*
X152374600Y-53936900D01*
X144754600Y-58762900D02*
X140563600Y-62953900D01*
X147548600Y-58762900D02*
X144754600Y-58762900D01*
%TO.N,/A8*%
X101879400Y-135039100D02*
X110515400Y-126403100D01*
X93497400Y-130848100D02*
X97688400Y-135039100D01*
X116611400Y-111036100D02*
X113436400Y-111036100D01*
X97688400Y-135039100D02*
X101879400Y-135039100D01*
X91973400Y-128181100D02*
X93243400Y-129451100D01*
X87528400Y-128181100D02*
X91973400Y-128181100D01*
X152120600Y-103720900D02*
X143484600Y-112356900D01*
X160502600Y-107911900D02*
X156311600Y-103720900D01*
X137388600Y-127723900D02*
X140563600Y-127723900D01*
X156311600Y-103720900D02*
X152120600Y-103720900D01*
X162026600Y-110578900D02*
X160756600Y-109308900D01*
X166471600Y-110578900D02*
X162026600Y-110578900D01*
X152120600Y-49110900D02*
X143484600Y-57746900D01*
X160502600Y-53301900D02*
X156311600Y-49110900D01*
X137388600Y-73113900D02*
X140563600Y-73113900D01*
X162026600Y-55968900D02*
X160756600Y-54698900D01*
X156311600Y-49110900D02*
X152120600Y-49110900D01*
X166471600Y-55968900D02*
X162026600Y-55968900D01*
%TO.N,/A6*%
X95656400Y-125641100D02*
X95783400Y-125514100D01*
X87528400Y-125641100D02*
X95656400Y-125641100D01*
X101371400Y-111036100D02*
X98196400Y-111036100D01*
X158343600Y-113118900D02*
X158216600Y-113245900D01*
X166471600Y-113118900D02*
X158343600Y-113118900D01*
X152628600Y-127723900D02*
X155803600Y-127723900D01*
X158343600Y-58508900D02*
X158216600Y-58635900D01*
X166471600Y-58508900D02*
X158343600Y-58508900D01*
X152628600Y-73113900D02*
X155803600Y-73113900D01*
%TO.N,/A4*%
X102387400Y-116751100D02*
X102006400Y-116751100D01*
X102768400Y-117132100D02*
X102387400Y-116751100D01*
X102006400Y-116751100D02*
X101371400Y-116116100D01*
X101371400Y-116116100D02*
X98196400Y-116116100D01*
X87528400Y-123101100D02*
X92862400Y-123101100D01*
X93370400Y-122593100D02*
X102768400Y-122593100D01*
X102768400Y-122593100D02*
X102768400Y-117132100D01*
X92862400Y-123101100D02*
X93370400Y-122593100D01*
X151612600Y-122008900D02*
X151993600Y-122008900D01*
X151231600Y-121627900D02*
X151612600Y-122008900D01*
X151993600Y-122008900D02*
X152628600Y-122643900D01*
X152628600Y-122643900D02*
X155803600Y-122643900D01*
X166471600Y-115658900D02*
X161137600Y-115658900D01*
X160629600Y-116166900D02*
X151231600Y-116166900D01*
X151231600Y-116166900D02*
X151231600Y-121627900D01*
X161137600Y-115658900D02*
X160629600Y-116166900D01*
X151231600Y-67017900D02*
X151612600Y-67398900D01*
X151612600Y-67398900D02*
X151993600Y-67398900D01*
X152628600Y-68033900D02*
X155803600Y-68033900D01*
X166471600Y-61048900D02*
X161137600Y-61048900D01*
X151231600Y-61556900D02*
X151231600Y-67017900D01*
X161137600Y-61048900D02*
X160629600Y-61556900D01*
X160629600Y-61556900D02*
X151231600Y-61556900D01*
X151993600Y-67398900D02*
X152628600Y-68033900D01*
%TO.N,/A2*%
X101371400Y-121196100D02*
X98196400Y-121196100D01*
X87528400Y-120561100D02*
X97561400Y-120561100D01*
X97561400Y-120561100D02*
X98196400Y-121196100D01*
X152628600Y-117563900D02*
X155803600Y-117563900D01*
X166471600Y-118198900D02*
X156438600Y-118198900D01*
X156438600Y-118198900D02*
X155803600Y-117563900D01*
X152628600Y-62953900D02*
X155803600Y-62953900D01*
X166471600Y-63588900D02*
X156438600Y-63588900D01*
X156438600Y-63588900D02*
X155803600Y-62953900D01*
%TO.N,/A0*%
X101371400Y-126276100D02*
X98196400Y-126276100D01*
X87528400Y-118021100D02*
X94005400Y-118021100D01*
X95021400Y-126276100D02*
X98196400Y-126276100D01*
X94005400Y-118021100D02*
X94513400Y-118529100D01*
X152628600Y-112483900D02*
X155803600Y-112483900D01*
X166471600Y-120738900D02*
X159994600Y-120738900D01*
X158978600Y-112483900D02*
X155803600Y-112483900D01*
X159994600Y-120738900D02*
X159486600Y-120230900D01*
X158978600Y-57873900D02*
X155803600Y-57873900D01*
X166471600Y-66128900D02*
X159994600Y-66128900D01*
X159994600Y-66128900D02*
X159486600Y-65620900D01*
X152628600Y-57873900D02*
X155803600Y-57873900D01*
%TO.N,/D7*%
X116611400Y-71666100D02*
X113436400Y-71666100D01*
X110515400Y-60363100D02*
X111023400Y-60871100D01*
X88036400Y-60363100D02*
X110515400Y-60363100D01*
X87528400Y-60871100D02*
X88036400Y-60363100D01*
X116611400Y-126276100D02*
X113436400Y-126276100D01*
X87528400Y-115481100D02*
X88036400Y-114973100D01*
X110515400Y-114973100D02*
X111023400Y-115481100D01*
X88036400Y-114973100D02*
X110515400Y-114973100D01*
X137388600Y-112483900D02*
X140563600Y-112483900D01*
X166471600Y-123278900D02*
X165963600Y-123786900D01*
X143484600Y-123786900D02*
X142976600Y-123278900D01*
X165963600Y-123786900D02*
X143484600Y-123786900D01*
X143484600Y-69176900D02*
X142976600Y-68668900D01*
X137388600Y-57873900D02*
X140563600Y-57873900D01*
X165963600Y-69176900D02*
X143484600Y-69176900D01*
X166471600Y-68668900D02*
X165963600Y-69176900D01*
%TO.N,/D5*%
X106832400Y-109893100D02*
X109880400Y-112941100D01*
X95783400Y-109893100D02*
X106832400Y-109893100D01*
X93878400Y-111798100D02*
X95783400Y-109893100D01*
X116611400Y-131356100D02*
X113436400Y-131356100D01*
X87528400Y-112941100D02*
X87655400Y-113068100D01*
X87655400Y-113068100D02*
X93497400Y-113068100D01*
X147167600Y-128866900D02*
X144119600Y-125818900D01*
X158216600Y-128866900D02*
X147167600Y-128866900D01*
X160121600Y-126961900D02*
X158216600Y-128866900D01*
X137388600Y-107403900D02*
X140563600Y-107403900D01*
X166471600Y-125818900D02*
X166344600Y-125691900D01*
X166344600Y-125691900D02*
X160502600Y-125691900D01*
X158216600Y-74256900D02*
X147167600Y-74256900D01*
X147167600Y-74256900D02*
X144119600Y-71208900D01*
X160121600Y-72351900D02*
X158216600Y-74256900D01*
X166344600Y-71081900D02*
X160502600Y-71081900D01*
X137388600Y-52793900D02*
X140563600Y-52793900D01*
X166471600Y-71208900D02*
X166344600Y-71081900D01*
%TO.N,/D3*%
X93370400Y-110401100D02*
X95783400Y-107988100D01*
X87528400Y-110401100D02*
X93370400Y-110401100D01*
X116611400Y-136436100D02*
X113436400Y-136436100D01*
X160629600Y-128358900D02*
X158216600Y-130771900D01*
X166471600Y-128358900D02*
X160629600Y-128358900D01*
X137388600Y-102323900D02*
X140563600Y-102323900D01*
X160629600Y-73748900D02*
X158216600Y-76161900D01*
X166471600Y-73748900D02*
X160629600Y-73748900D01*
X137388600Y-47713900D02*
X140563600Y-47713900D01*
%TO.N,/D1*%
X88036400Y-107353100D02*
X99466400Y-107353100D01*
X87528400Y-107861100D02*
X88036400Y-107353100D01*
X101371400Y-131356100D02*
X98196400Y-131356100D01*
X99466400Y-107353100D02*
X99974400Y-107861100D01*
X165963600Y-131406900D02*
X154533600Y-131406900D01*
X166471600Y-130898900D02*
X165963600Y-131406900D01*
X152628600Y-107403900D02*
X155803600Y-107403900D01*
X154533600Y-131406900D02*
X154025600Y-130898900D01*
X166471600Y-76288900D02*
X165963600Y-76796900D01*
X165963600Y-76796900D02*
X154533600Y-76796900D01*
X152628600Y-52793900D02*
X155803600Y-52793900D01*
X154533600Y-76796900D02*
X154025600Y-76288900D01*
%TO.N,Net-(JP1-Pad1)*%
X92608400Y-102781100D02*
X92608400Y-100114100D01*
X92608400Y-100114100D02*
X95021400Y-97701100D01*
X87528400Y-102781100D02*
X92608400Y-102781100D01*
X161391600Y-135978900D02*
X161391600Y-138645900D01*
X161391600Y-138645900D02*
X158978600Y-141058900D01*
X166471600Y-135978900D02*
X161391600Y-135978900D01*
X161391600Y-84035900D02*
X158978600Y-86448900D01*
X166471600Y-81368900D02*
X161391600Y-81368900D01*
X161391600Y-81368900D02*
X161391600Y-84035900D01*
%TO.N,Net-(JP2-Pad2)*%
X121691400Y-55029100D02*
X121691400Y-41821100D01*
X116103400Y-55029100D02*
X121691400Y-55029100D01*
X114579400Y-53505100D02*
X116103400Y-55029100D01*
X114579400Y-51346100D02*
X114579400Y-53505100D01*
X113436400Y-51346100D02*
X114579400Y-51346100D01*
X116103400Y-109639100D02*
X121691400Y-109639100D01*
X114579400Y-105956100D02*
X114579400Y-108115100D01*
X121691400Y-109639100D02*
X121691400Y-96431100D01*
X113436400Y-105956100D02*
X114579400Y-105956100D01*
X114579400Y-108115100D02*
X116103400Y-109639100D01*
X137896600Y-129120900D02*
X132308600Y-129120900D01*
X139420600Y-132803900D02*
X139420600Y-130644900D01*
X132308600Y-129120900D02*
X132308600Y-142328900D01*
X140563600Y-132803900D02*
X139420600Y-132803900D01*
X139420600Y-130644900D02*
X137896600Y-129120900D01*
X139420600Y-78193900D02*
X139420600Y-76034900D01*
X137896600Y-74510900D02*
X132308600Y-74510900D01*
X140563600Y-78193900D02*
X139420600Y-78193900D01*
X139420600Y-76034900D02*
X137896600Y-74510900D01*
X132308600Y-74510900D02*
X132308600Y-87718900D01*
%TD*%
M02*
