M48
; DRILL file {KiCad (5.1.10)-1} date 10/07/22 13:26:40
; FORMAT={-:-/ absolute / inch / decimal}
; #@! TF.CreationDate,2022-10-07T13:26:40-03:00
; #@! TF.GenerationSoftware,Kicad,Pcbnew,(5.1.10)-1
; #@! TF.FileFunction,Plated,1,2,PTH
FMAT,2
INCH
T1C0.0130
T2C0.0320
T3C0.0350
T4C0.1420
%
G90
G05
T1
X3.656Y-2.1615
X3.656Y-2.2765
X3.656Y-2.6615
X3.656Y-4.3115
X3.656Y-4.4265
X3.656Y-4.8115
X3.671Y-2.5415
X3.671Y-2.9465
X3.671Y-4.6915
X3.671Y-5.0965
X3.681Y-2.3015
X3.681Y-2.7315
X3.681Y-2.7665
X3.681Y-3.0015
X3.681Y-4.4515
X3.681Y-4.8815
X3.681Y-4.9165
X3.681Y-5.1515
X3.696Y-2.2515
X3.696Y-3.3215
X3.696Y-4.4015
X3.696Y-5.4715
X3.706Y-2.8765
X3.706Y-5.0265
X3.721Y-2.5165
X3.721Y-4.6665
X3.731Y-2.4015
X3.731Y-4.5515
X3.736Y-2.1015
X3.736Y-4.2515
X3.741Y-2.8215
X3.741Y-4.9715
X3.746Y-2.5665
X3.746Y-2.7015
X3.746Y-4.7165
X3.746Y-4.8515
X3.771Y-2.1015
X3.771Y-2.7915
X3.771Y-4.2515
X3.771Y-4.9415
X3.776Y-3.1665
X3.776Y-5.3165
X3.781Y-3.0665
X3.781Y-5.2165
X3.801Y-2.6465
X3.801Y-4.7965
X3.911Y-2.5865
X3.911Y-4.7365
X3.936Y-2.0965
X3.936Y-4.2465
X4.016Y-2.0615
X4.016Y-4.2115
X4.021Y-2.4715
X4.021Y-4.6215
X4.326Y-2.2965
X4.326Y-4.4465
X4.351Y-2.8265
X4.351Y-4.9765
X4.371Y-2.3965
X4.371Y-4.5465
X4.406Y-2.3965
X4.406Y-4.5465
X5.594Y-2.7035
X5.594Y-4.8535
X5.629Y-2.7035
X5.629Y-4.8535
X5.649Y-2.2735
X5.649Y-4.4235
X5.674Y-2.8035
X5.674Y-4.9535
X5.979Y-2.6285
X5.979Y-4.7785
X5.984Y-3.0385
X5.984Y-5.1885
X6.064Y-3.0035
X6.064Y-5.1535
X6.089Y-2.5135
X6.089Y-4.6635
X6.199Y-2.4535
X6.199Y-4.6035
X6.219Y-2.0335
X6.219Y-4.1835
X6.224Y-1.9335
X6.224Y-4.0835
X6.229Y-2.3085
X6.229Y-2.9985
X6.229Y-4.4585
X6.229Y-5.1485
X6.254Y-2.3985
X6.254Y-2.5335
X6.254Y-4.5485
X6.254Y-4.6835
X6.259Y-2.2785
X6.259Y-4.4285
X6.264Y-2.9985
X6.264Y-5.1485
X6.269Y-2.6985
X6.269Y-4.8485
X6.279Y-2.5835
X6.279Y-4.7335
X6.294Y-2.2235
X6.294Y-4.3735
X6.304Y-1.7785
X6.304Y-2.8485
X6.304Y-3.9285
X6.304Y-4.9985
X6.319Y-2.0985
X6.319Y-2.3335
X6.319Y-2.3685
X6.319Y-2.7985
X6.319Y-4.2485
X6.319Y-4.4835
X6.319Y-4.5185
X6.319Y-4.9485
X6.329Y-2.1535
X6.329Y-2.5585
X6.329Y-4.3035
X6.329Y-4.7085
X6.344Y-2.4385
X6.344Y-2.8235
X6.344Y-2.9385
X6.344Y-4.5885
X6.344Y-4.9735
X6.344Y-5.0885
T2
X3.866Y-1.9215
X3.866Y-2.0215
X3.866Y-2.1215
X3.866Y-2.2215
X3.866Y-2.3215
X3.866Y-2.4215
X3.866Y-2.5215
X3.866Y-2.6215
X3.866Y-2.7215
X3.866Y-2.8215
X3.866Y-2.9215
X3.866Y-3.0215
X3.866Y-3.1215
X3.866Y-3.2215
X3.866Y-4.0715
X3.866Y-4.1715
X3.866Y-4.2715
X3.866Y-4.3715
X3.866Y-4.4715
X3.866Y-4.5715
X3.866Y-4.6715
X3.866Y-4.7715
X3.866Y-4.8715
X3.866Y-4.9715
X3.866Y-5.0715
X3.866Y-5.1715
X3.866Y-5.2715
X3.866Y-5.3715
X3.991Y-2.1215
X3.991Y-2.2215
X3.991Y-2.3215
X3.991Y-2.4215
X3.991Y-2.5215
X3.991Y-2.6215
X3.991Y-2.7215
X3.991Y-2.8215
X3.991Y-2.9215
X3.991Y-3.0215
X3.991Y-3.1215
X3.991Y-3.2215
X3.991Y-4.2715
X3.991Y-4.3715
X3.991Y-4.4715
X3.991Y-4.5715
X3.991Y-4.6715
X3.991Y-4.7715
X3.991Y-4.8715
X3.991Y-4.9715
X3.991Y-5.0715
X3.991Y-5.1715
X3.991Y-5.2715
X3.991Y-5.3715
X4.466Y-1.9215
X4.466Y-2.0215
X4.466Y-2.1215
X4.466Y-2.2215
X4.466Y-2.3215
X4.466Y-2.4215
X4.466Y-2.5215
X4.466Y-2.6215
X4.466Y-2.7215
X4.466Y-2.8215
X4.466Y-2.9215
X4.466Y-3.0215
X4.466Y-3.1215
X4.466Y-3.2215
X4.466Y-4.0715
X4.466Y-4.1715
X4.466Y-4.2715
X4.466Y-4.3715
X4.466Y-4.4715
X4.466Y-4.5715
X4.466Y-4.6715
X4.466Y-4.7715
X4.466Y-4.8715
X4.466Y-4.9715
X4.466Y-5.0715
X4.466Y-5.1715
X4.466Y-5.2715
X4.466Y-5.3715
X4.591Y-2.1215
X4.591Y-2.2215
X4.591Y-2.3215
X4.591Y-2.4215
X4.591Y-2.5215
X4.591Y-2.6215
X4.591Y-2.7215
X4.591Y-2.8215
X4.591Y-2.9215
X4.591Y-3.0215
X4.591Y-3.1215
X4.591Y-3.2215
X4.591Y-4.2715
X4.591Y-4.3715
X4.591Y-4.4715
X4.591Y-4.5715
X4.591Y-4.6715
X4.591Y-4.7715
X4.591Y-4.8715
X4.591Y-4.9715
X4.591Y-5.0715
X4.591Y-5.1715
X4.591Y-5.2715
X4.591Y-5.3715
X4.716Y-2.1215
X4.716Y-2.3215
X4.716Y-4.2715
X4.716Y-4.4715
X5.284Y-2.7785
X5.284Y-2.9785
X5.284Y-4.9285
X5.284Y-5.1285
X5.409Y-1.8785
X5.409Y-1.9785
X5.409Y-2.0785
X5.409Y-2.1785
X5.409Y-2.2785
X5.409Y-2.3785
X5.409Y-2.4785
X5.409Y-2.5785
X5.409Y-2.6785
X5.409Y-2.7785
X5.409Y-2.8785
X5.409Y-2.9785
X5.409Y-4.0285
X5.409Y-4.1285
X5.409Y-4.2285
X5.409Y-4.3285
X5.409Y-4.4285
X5.409Y-4.5285
X5.409Y-4.6285
X5.409Y-4.7285
X5.409Y-4.8285
X5.409Y-4.9285
X5.409Y-5.0285
X5.409Y-5.1285
X5.534Y-1.8785
X5.534Y-1.9785
X5.534Y-2.0785
X5.534Y-2.1785
X5.534Y-2.2785
X5.534Y-2.3785
X5.534Y-2.4785
X5.534Y-2.5785
X5.534Y-2.6785
X5.534Y-2.7785
X5.534Y-2.8785
X5.534Y-2.9785
X5.534Y-3.0785
X5.534Y-3.1785
X5.534Y-4.0285
X5.534Y-4.1285
X5.534Y-4.2285
X5.534Y-4.3285
X5.534Y-4.4285
X5.534Y-4.5285
X5.534Y-4.6285
X5.534Y-4.7285
X5.534Y-4.8285
X5.534Y-4.9285
X5.534Y-5.0285
X5.534Y-5.1285
X5.534Y-5.2285
X5.534Y-5.3285
X6.009Y-1.8785
X6.009Y-1.9785
X6.009Y-2.0785
X6.009Y-2.1785
X6.009Y-2.2785
X6.009Y-2.3785
X6.009Y-2.4785
X6.009Y-2.5785
X6.009Y-2.6785
X6.009Y-2.7785
X6.009Y-2.8785
X6.009Y-2.9785
X6.009Y-4.0285
X6.009Y-4.1285
X6.009Y-4.2285
X6.009Y-4.3285
X6.009Y-4.4285
X6.009Y-4.5285
X6.009Y-4.6285
X6.009Y-4.7285
X6.009Y-4.8285
X6.009Y-4.9285
X6.009Y-5.0285
X6.009Y-5.1285
X6.134Y-1.8785
X6.134Y-1.9785
X6.134Y-2.0785
X6.134Y-2.1785
X6.134Y-2.2785
X6.134Y-2.3785
X6.134Y-2.4785
X6.134Y-2.5785
X6.134Y-2.6785
X6.134Y-2.7785
X6.134Y-2.8785
X6.134Y-2.9785
X6.134Y-3.0785
X6.134Y-3.1785
X6.134Y-4.0285
X6.134Y-4.1285
X6.134Y-4.2285
X6.134Y-4.3285
X6.134Y-4.4285
X6.134Y-4.5285
X6.134Y-4.6285
X6.134Y-4.7285
X6.134Y-4.8285
X6.134Y-4.9285
X6.134Y-5.0285
X6.134Y-5.1285
X6.134Y-5.2285
X6.134Y-5.3285
T3
X3.741Y-1.6965
X3.741Y-1.7965
X3.741Y-3.8465
X3.741Y-3.9465
X4.366Y-1.6465
X4.366Y-3.7965
X4.466Y-1.6465
X4.466Y-3.7965
X4.566Y-1.6465
X4.566Y-3.7965
X4.691Y-1.6465
X4.691Y-3.7965
X4.791Y-1.6465
X4.791Y-3.7965
X4.891Y-1.6465
X4.891Y-3.7965
X5.109Y-3.4535
X5.109Y-5.6035
X5.209Y-3.4535
X5.209Y-5.6035
X5.309Y-3.4535
X5.309Y-5.6035
X5.434Y-3.4535
X5.434Y-5.6035
X5.534Y-3.4535
X5.534Y-5.6035
X5.634Y-3.4535
X5.634Y-5.6035
X6.259Y-3.3035
X6.259Y-3.4035
X6.259Y-5.4535
X6.259Y-5.5535
T4
X3.966Y-1.654
X3.966Y-3.439
X3.966Y-3.804
X3.966Y-5.589
X6.034Y-1.661
X6.034Y-3.446
X6.034Y-3.811
X6.034Y-5.596
T0
M30
