%TF.GenerationSoftware,KiCad,Pcbnew,(5.1.10)-1*%
%TF.CreationDate,2022-10-07T13:26:38-03:00*%
%TF.ProjectId,CoCoEPROMpak,436f436f-4550-4524-9f4d-70616b2e6b69,rev?*%
%TF.SameCoordinates,Original*%
%TF.FileFunction,Copper,L2,Bot*%
%TF.FilePolarity,Positive*%
%FSLAX46Y46*%
G04 Gerber Fmt 4.6, Leading zero omitted, Abs format (unit mm)*
G04 Created by KiCad (PCBNEW (5.1.10)-1) date 2022-10-07 13:26:38*
%MOMM*%
%LPD*%
G01*
G04 APERTURE LIST*
%TA.AperFunction,ComponentPad*%
%ADD10C,1.219200*%
%TD*%
%TA.AperFunction,ComponentPad*%
%ADD11R,1.778000X1.778000*%
%TD*%
%TA.AperFunction,ComponentPad*%
%ADD12C,1.778000*%
%TD*%
%TA.AperFunction,SMDPad,CuDef*%
%ADD13R,9.525000X1.270000*%
%TD*%
%TA.AperFunction,ComponentPad*%
%ADD14C,5.715000*%
%TD*%
%TA.AperFunction,ViaPad*%
%ADD15C,0.685800*%
%TD*%
%TA.AperFunction,Conductor*%
%ADD16C,0.609600*%
%TD*%
%TA.AperFunction,Conductor*%
%ADD17C,0.152400*%
%TD*%
G04 APERTURE END LIST*
D10*
%TO.P,C1,1*%
%TO.N,+5V*%
X134213600Y-130263900D03*
%TO.P,C1,2*%
%TO.N,GND*%
X134213600Y-125183900D03*
%TD*%
D11*
%TO.P,U2,1*%
%TO.N,Net-(JP3-Pad2)*%
X155803600Y-135343900D03*
D12*
%TO.P,U2,2*%
%TO.N,/A12*%
X155803600Y-132803900D03*
%TO.P,U2,7*%
%TO.N,/A3*%
X155803600Y-120103900D03*
%TO.P,U2,8*%
%TO.N,/A2*%
X155803600Y-117563900D03*
%TO.P,U2,3*%
%TO.N,/A7*%
X155803600Y-130263900D03*
%TO.P,U2,4*%
%TO.N,/A6*%
X155803600Y-127723900D03*
%TO.P,U2,6*%
%TO.N,/A4*%
X155803600Y-122643900D03*
%TO.P,U2,5*%
%TO.N,/A5*%
X155803600Y-125183900D03*
%TO.P,U2,9*%
%TO.N,/A1*%
X155803600Y-115023900D03*
%TO.P,U2,10*%
%TO.N,/A0*%
X155803600Y-112483900D03*
%TO.P,U2,11*%
%TO.N,/D0*%
X155803600Y-109943900D03*
%TO.P,U2,12*%
%TO.N,/D1*%
X155803600Y-107403900D03*
%TO.P,U2,13*%
%TO.N,/D2*%
X155803600Y-104863900D03*
%TO.P,U2,14*%
%TO.N,GND*%
X155803600Y-102323900D03*
%TO.P,U2,15*%
%TO.N,/D3*%
X140563600Y-102323900D03*
%TO.P,U2,16*%
%TO.N,/D4*%
X140563600Y-104863900D03*
%TO.P,U2,17*%
%TO.N,/D5*%
X140563600Y-107403900D03*
%TO.P,U2,18*%
%TO.N,/D6*%
X140563600Y-109943900D03*
%TO.P,U2,19*%
%TO.N,/D7*%
X140563600Y-112483900D03*
%TO.P,U2,20*%
%TO.N,Net-(P1-Pad32)*%
X140563600Y-115023900D03*
%TO.P,U2,21*%
%TO.N,/A10*%
X140563600Y-117563900D03*
%TO.P,U2,22*%
%TO.N,Net-(P1-Pad32)*%
X140563600Y-120103900D03*
%TO.P,U2,23*%
%TO.N,/A11*%
X140563600Y-122643900D03*
%TO.P,U2,24*%
%TO.N,/A9*%
X140563600Y-125183900D03*
%TO.P,U2,25*%
%TO.N,/A8*%
X140563600Y-127723900D03*
%TO.P,U2,26*%
%TO.N,/A13*%
X140563600Y-130263900D03*
%TO.P,U2,27*%
%TO.N,Net-(JP2-Pad2)*%
X140563600Y-132803900D03*
%TO.P,U2,28*%
%TO.N,+5V*%
X140563600Y-135343900D03*
%TD*%
D11*
%TO.P,JP1,1*%
%TO.N,Net-(JP1-Pad1)*%
X158978600Y-141058900D03*
D12*
%TO.P,JP1,2*%
%TO.N,Net-(JP1-Pad2)*%
X158978600Y-138518900D03*
%TD*%
D13*
%TO.P,P1,2*%
%TO.N,Net-(P1-Pad2)*%
X166471600Y-143598900D03*
%TO.P,P1,4*%
%TO.N,Net-(P1-Pad4)*%
X166471600Y-141058900D03*
%TO.P,P1,6*%
%TO.N,Net-(P1-Pad6)*%
X166471600Y-138518900D03*
%TO.P,P1,8*%
%TO.N,Net-(JP1-Pad2)*%
X166471600Y-135978900D03*
%TO.P,P1,10*%
%TO.N,/D0*%
X166471600Y-133438900D03*
%TO.P,P1,12*%
%TO.N,/D2*%
X166471600Y-130898900D03*
%TO.P,P1,14*%
%TO.N,/D4*%
X166471600Y-128358900D03*
%TO.P,P1,16*%
%TO.N,/D6*%
X166471600Y-125818900D03*
%TO.P,P1,18*%
%TO.N,Net-(P1-Pad18)*%
X166471600Y-123278900D03*
%TO.P,P1,20*%
%TO.N,/A1*%
X166471600Y-120738900D03*
%TO.P,P1,22*%
%TO.N,/A3*%
X166471600Y-118198900D03*
%TO.P,P1,24*%
%TO.N,/A5*%
X166471600Y-115658900D03*
%TO.P,P1,26*%
%TO.N,/A7*%
X166471600Y-113118900D03*
%TO.P,P1,28*%
%TO.N,/A9*%
X166471600Y-110578900D03*
%TO.P,P1,30*%
%TO.N,/A11*%
X166471600Y-108038900D03*
%TO.P,P1,32*%
%TO.N,Net-(P1-Pad32)*%
X166471600Y-105498900D03*
%TO.P,P1,34*%
%TO.N,GND*%
X166471600Y-102958900D03*
%TO.P,P1,36*%
%TO.N,Net-(P1-Pad36)*%
X166471600Y-100418900D03*
%TO.P,P1,38*%
%TO.N,Net-(P1-Pad38)*%
X166471600Y-97878900D03*
%TO.P,P1,40*%
%TO.N,Net-(P1-Pad40)*%
X166471600Y-95338900D03*
D14*
%TO.P,P1,MTG1*%
%TO.N,Net-(P1-PadMTG1)*%
X153263600Y-142138400D03*
%TO.P,P1,MTG2*%
%TO.N,Net-(P1-PadMTG2)*%
X153263600Y-96799400D03*
%TD*%
D11*
%TO.P,JP3,1*%
%TO.N,+5V*%
X138023600Y-142328900D03*
D12*
%TO.P,JP3,2*%
%TO.N,Net-(JP3-Pad2)*%
X140563600Y-142328900D03*
%TO.P,JP3,3*%
%TO.N,GND*%
X143103600Y-142328900D03*
%TD*%
D11*
%TO.P,JP2,1*%
%TO.N,+5V*%
X129768600Y-142328900D03*
D12*
%TO.P,JP2,2*%
%TO.N,Net-(JP2-Pad2)*%
X132308600Y-142328900D03*
%TO.P,JP2,3*%
%TO.N,GND*%
X134848600Y-142328900D03*
%TD*%
D11*
%TO.P,U1,1*%
%TO.N,/A7*%
X152628600Y-130263900D03*
D12*
%TO.P,U1,2*%
%TO.N,/A6*%
X152628600Y-127723900D03*
%TO.P,U1,7*%
%TO.N,/A1*%
X152628600Y-115023900D03*
%TO.P,U1,8*%
%TO.N,/A0*%
X152628600Y-112483900D03*
%TO.P,U1,3*%
%TO.N,/A5*%
X152628600Y-125183900D03*
%TO.P,U1,4*%
%TO.N,/A4*%
X152628600Y-122643900D03*
%TO.P,U1,6*%
%TO.N,/A2*%
X152628600Y-117563900D03*
%TO.P,U1,5*%
%TO.N,/A3*%
X152628600Y-120103900D03*
%TO.P,U1,9*%
%TO.N,/D0*%
X152628600Y-109943900D03*
%TO.P,U1,10*%
%TO.N,/D1*%
X152628600Y-107403900D03*
%TO.P,U1,11*%
%TO.N,/D2*%
X152628600Y-104863900D03*
%TO.P,U1,12*%
%TO.N,GND*%
X152628600Y-102323900D03*
%TO.P,U1,13*%
%TO.N,/D3*%
X137388600Y-102323900D03*
%TO.P,U1,14*%
%TO.N,/D4*%
X137388600Y-104863900D03*
%TO.P,U1,15*%
%TO.N,/D5*%
X137388600Y-107403900D03*
%TO.P,U1,16*%
%TO.N,/D6*%
X137388600Y-109943900D03*
%TO.P,U1,17*%
%TO.N,/D7*%
X137388600Y-112483900D03*
%TO.P,U1,18*%
%TO.N,Net-(P1-Pad32)*%
X137388600Y-115023900D03*
%TO.P,U1,19*%
%TO.N,/A10*%
X137388600Y-117563900D03*
%TO.P,U1,20*%
%TO.N,Net-(P1-Pad32)*%
X137388600Y-120103900D03*
%TO.P,U1,21*%
%TO.N,/A11*%
X137388600Y-122643900D03*
%TO.P,U1,22*%
%TO.N,/A9*%
X137388600Y-125183900D03*
%TO.P,U1,23*%
%TO.N,/A8*%
X137388600Y-127723900D03*
%TO.P,U1,24*%
%TO.N,+5V*%
X137388600Y-130263900D03*
%TD*%
D14*
%TO.P,P1,MTG2*%
%TO.N,Net-(P1-PadMTG2)*%
X153263600Y-42189400D03*
%TO.P,P1,MTG1*%
%TO.N,Net-(P1-PadMTG1)*%
X153263600Y-87528400D03*
D13*
%TO.P,P1,40*%
%TO.N,Net-(P1-Pad40)*%
X166471600Y-40728900D03*
%TO.P,P1,38*%
%TO.N,Net-(P1-Pad38)*%
X166471600Y-43268900D03*
%TO.P,P1,36*%
%TO.N,Net-(P1-Pad36)*%
X166471600Y-45808900D03*
%TO.P,P1,34*%
%TO.N,GND*%
X166471600Y-48348900D03*
%TO.P,P1,32*%
%TO.N,Net-(P1-Pad32)*%
X166471600Y-50888900D03*
%TO.P,P1,30*%
%TO.N,/A11*%
X166471600Y-53428900D03*
%TO.P,P1,28*%
%TO.N,/A9*%
X166471600Y-55968900D03*
%TO.P,P1,26*%
%TO.N,/A7*%
X166471600Y-58508900D03*
%TO.P,P1,24*%
%TO.N,/A5*%
X166471600Y-61048900D03*
%TO.P,P1,22*%
%TO.N,/A3*%
X166471600Y-63588900D03*
%TO.P,P1,20*%
%TO.N,/A1*%
X166471600Y-66128900D03*
%TO.P,P1,18*%
%TO.N,Net-(P1-Pad18)*%
X166471600Y-68668900D03*
%TO.P,P1,16*%
%TO.N,/D6*%
X166471600Y-71208900D03*
%TO.P,P1,14*%
%TO.N,/D4*%
X166471600Y-73748900D03*
%TO.P,P1,12*%
%TO.N,/D2*%
X166471600Y-76288900D03*
%TO.P,P1,10*%
%TO.N,/D0*%
X166471600Y-78828900D03*
%TO.P,P1,8*%
%TO.N,Net-(JP1-Pad2)*%
X166471600Y-81368900D03*
%TO.P,P1,6*%
%TO.N,Net-(P1-Pad6)*%
X166471600Y-83908900D03*
%TO.P,P1,4*%
%TO.N,Net-(P1-Pad4)*%
X166471600Y-86448900D03*
%TO.P,P1,2*%
%TO.N,Net-(P1-Pad2)*%
X166471600Y-88988900D03*
%TD*%
D12*
%TO.P,U1,24*%
%TO.N,+5V*%
X137388600Y-75653900D03*
%TO.P,U1,23*%
%TO.N,/A8*%
X137388600Y-73113900D03*
%TO.P,U1,22*%
%TO.N,/A9*%
X137388600Y-70573900D03*
%TO.P,U1,21*%
%TO.N,/A11*%
X137388600Y-68033900D03*
%TO.P,U1,20*%
%TO.N,Net-(P1-Pad32)*%
X137388600Y-65493900D03*
%TO.P,U1,19*%
%TO.N,/A10*%
X137388600Y-62953900D03*
%TO.P,U1,18*%
%TO.N,Net-(P1-Pad32)*%
X137388600Y-60413900D03*
%TO.P,U1,17*%
%TO.N,/D7*%
X137388600Y-57873900D03*
%TO.P,U1,16*%
%TO.N,/D6*%
X137388600Y-55333900D03*
%TO.P,U1,15*%
%TO.N,/D5*%
X137388600Y-52793900D03*
%TO.P,U1,14*%
%TO.N,/D4*%
X137388600Y-50253900D03*
%TO.P,U1,13*%
%TO.N,/D3*%
X137388600Y-47713900D03*
%TO.P,U1,12*%
%TO.N,GND*%
X152628600Y-47713900D03*
%TO.P,U1,11*%
%TO.N,/D2*%
X152628600Y-50253900D03*
%TO.P,U1,10*%
%TO.N,/D1*%
X152628600Y-52793900D03*
%TO.P,U1,9*%
%TO.N,/D0*%
X152628600Y-55333900D03*
%TO.P,U1,5*%
%TO.N,/A3*%
X152628600Y-65493900D03*
%TO.P,U1,6*%
%TO.N,/A2*%
X152628600Y-62953900D03*
%TO.P,U1,4*%
%TO.N,/A4*%
X152628600Y-68033900D03*
%TO.P,U1,3*%
%TO.N,/A5*%
X152628600Y-70573900D03*
%TO.P,U1,8*%
%TO.N,/A0*%
X152628600Y-57873900D03*
%TO.P,U1,7*%
%TO.N,/A1*%
X152628600Y-60413900D03*
%TO.P,U1,2*%
%TO.N,/A6*%
X152628600Y-73113900D03*
D11*
%TO.P,U1,1*%
%TO.N,/A7*%
X152628600Y-75653900D03*
%TD*%
D12*
%TO.P,JP1,2*%
%TO.N,Net-(JP1-Pad2)*%
X158978600Y-83908900D03*
D11*
%TO.P,JP1,1*%
%TO.N,Net-(JP1-Pad1)*%
X158978600Y-86448900D03*
%TD*%
D10*
%TO.P,C1,2*%
%TO.N,GND*%
X134213600Y-70573900D03*
%TO.P,C1,1*%
%TO.N,+5V*%
X134213600Y-75653900D03*
%TD*%
D12*
%TO.P,U2,28*%
%TO.N,+5V*%
X140563600Y-80733900D03*
%TO.P,U2,27*%
%TO.N,Net-(JP2-Pad2)*%
X140563600Y-78193900D03*
%TO.P,U2,26*%
%TO.N,/A13*%
X140563600Y-75653900D03*
%TO.P,U2,25*%
%TO.N,/A8*%
X140563600Y-73113900D03*
%TO.P,U2,24*%
%TO.N,/A9*%
X140563600Y-70573900D03*
%TO.P,U2,23*%
%TO.N,/A11*%
X140563600Y-68033900D03*
%TO.P,U2,22*%
%TO.N,Net-(P1-Pad32)*%
X140563600Y-65493900D03*
%TO.P,U2,21*%
%TO.N,/A10*%
X140563600Y-62953900D03*
%TO.P,U2,20*%
%TO.N,Net-(P1-Pad32)*%
X140563600Y-60413900D03*
%TO.P,U2,19*%
%TO.N,/D7*%
X140563600Y-57873900D03*
%TO.P,U2,18*%
%TO.N,/D6*%
X140563600Y-55333900D03*
%TO.P,U2,17*%
%TO.N,/D5*%
X140563600Y-52793900D03*
%TO.P,U2,16*%
%TO.N,/D4*%
X140563600Y-50253900D03*
%TO.P,U2,15*%
%TO.N,/D3*%
X140563600Y-47713900D03*
%TO.P,U2,14*%
%TO.N,GND*%
X155803600Y-47713900D03*
%TO.P,U2,13*%
%TO.N,/D2*%
X155803600Y-50253900D03*
%TO.P,U2,12*%
%TO.N,/D1*%
X155803600Y-52793900D03*
%TO.P,U2,11*%
%TO.N,/D0*%
X155803600Y-55333900D03*
%TO.P,U2,10*%
%TO.N,/A0*%
X155803600Y-57873900D03*
%TO.P,U2,9*%
%TO.N,/A1*%
X155803600Y-60413900D03*
%TO.P,U2,5*%
%TO.N,/A5*%
X155803600Y-70573900D03*
%TO.P,U2,6*%
%TO.N,/A4*%
X155803600Y-68033900D03*
%TO.P,U2,4*%
%TO.N,/A6*%
X155803600Y-73113900D03*
%TO.P,U2,3*%
%TO.N,/A7*%
X155803600Y-75653900D03*
%TO.P,U2,8*%
%TO.N,/A2*%
X155803600Y-62953900D03*
%TO.P,U2,7*%
%TO.N,/A3*%
X155803600Y-65493900D03*
%TO.P,U2,2*%
%TO.N,/A12*%
X155803600Y-78193900D03*
D11*
%TO.P,U2,1*%
%TO.N,Net-(JP3-Pad2)*%
X155803600Y-80733900D03*
%TD*%
D12*
%TO.P,JP3,3*%
%TO.N,GND*%
X143103600Y-87718900D03*
%TO.P,JP3,2*%
%TO.N,Net-(JP3-Pad2)*%
X140563600Y-87718900D03*
D11*
%TO.P,JP3,1*%
%TO.N,+5V*%
X138023600Y-87718900D03*
%TD*%
D12*
%TO.P,JP2,3*%
%TO.N,GND*%
X134848600Y-87718900D03*
%TO.P,JP2,2*%
%TO.N,Net-(JP2-Pad2)*%
X132308600Y-87718900D03*
D11*
%TO.P,JP2,1*%
%TO.N,+5V*%
X129768600Y-87718900D03*
%TD*%
D10*
%TO.P,C1,1*%
%TO.N,+5V*%
X119786400Y-108496100D03*
%TO.P,C1,2*%
%TO.N,GND*%
X119786400Y-113576100D03*
%TD*%
D11*
%TO.P,U2,1*%
%TO.N,Net-(JP3-Pad2)*%
X98196400Y-103416100D03*
D12*
%TO.P,U2,2*%
%TO.N,/A12*%
X98196400Y-105956100D03*
%TO.P,U2,7*%
%TO.N,/A3*%
X98196400Y-118656100D03*
%TO.P,U2,8*%
%TO.N,/A2*%
X98196400Y-121196100D03*
%TO.P,U2,3*%
%TO.N,/A7*%
X98196400Y-108496100D03*
%TO.P,U2,4*%
%TO.N,/A6*%
X98196400Y-111036100D03*
%TO.P,U2,6*%
%TO.N,/A4*%
X98196400Y-116116100D03*
%TO.P,U2,5*%
%TO.N,/A5*%
X98196400Y-113576100D03*
%TO.P,U2,9*%
%TO.N,/A1*%
X98196400Y-123736100D03*
%TO.P,U2,10*%
%TO.N,/A0*%
X98196400Y-126276100D03*
%TO.P,U2,11*%
%TO.N,/D0*%
X98196400Y-128816100D03*
%TO.P,U2,12*%
%TO.N,/D1*%
X98196400Y-131356100D03*
%TO.P,U2,13*%
%TO.N,/D2*%
X98196400Y-133896100D03*
%TO.P,U2,14*%
%TO.N,GND*%
X98196400Y-136436100D03*
%TO.P,U2,15*%
%TO.N,/D3*%
X113436400Y-136436100D03*
%TO.P,U2,16*%
%TO.N,/D4*%
X113436400Y-133896100D03*
%TO.P,U2,17*%
%TO.N,/D5*%
X113436400Y-131356100D03*
%TO.P,U2,18*%
%TO.N,/D6*%
X113436400Y-128816100D03*
%TO.P,U2,19*%
%TO.N,/D7*%
X113436400Y-126276100D03*
%TO.P,U2,20*%
%TO.N,Net-(P1-Pad32)*%
X113436400Y-123736100D03*
%TO.P,U2,21*%
%TO.N,/A10*%
X113436400Y-121196100D03*
%TO.P,U2,22*%
%TO.N,Net-(P1-Pad32)*%
X113436400Y-118656100D03*
%TO.P,U2,23*%
%TO.N,/A11*%
X113436400Y-116116100D03*
%TO.P,U2,24*%
%TO.N,/A9*%
X113436400Y-113576100D03*
%TO.P,U2,25*%
%TO.N,/A8*%
X113436400Y-111036100D03*
%TO.P,U2,26*%
%TO.N,/A13*%
X113436400Y-108496100D03*
%TO.P,U2,27*%
%TO.N,Net-(JP2-Pad2)*%
X113436400Y-105956100D03*
%TO.P,U2,28*%
%TO.N,+5V*%
X113436400Y-103416100D03*
%TD*%
D11*
%TO.P,JP1,1*%
%TO.N,Net-(JP1-Pad1)*%
X95021400Y-97701100D03*
D12*
%TO.P,JP1,2*%
%TO.N,Net-(JP1-Pad2)*%
X95021400Y-100241100D03*
%TD*%
D13*
%TO.P,P1,2*%
%TO.N,Net-(P1-Pad2)*%
X87528400Y-95161100D03*
%TO.P,P1,4*%
%TO.N,Net-(P1-Pad4)*%
X87528400Y-97701100D03*
%TO.P,P1,6*%
%TO.N,Net-(P1-Pad6)*%
X87528400Y-100241100D03*
%TO.P,P1,8*%
%TO.N,Net-(JP1-Pad2)*%
X87528400Y-102781100D03*
%TO.P,P1,10*%
%TO.N,/D0*%
X87528400Y-105321100D03*
%TO.P,P1,12*%
%TO.N,/D2*%
X87528400Y-107861100D03*
%TO.P,P1,14*%
%TO.N,/D4*%
X87528400Y-110401100D03*
%TO.P,P1,16*%
%TO.N,/D6*%
X87528400Y-112941100D03*
%TO.P,P1,18*%
%TO.N,Net-(P1-Pad18)*%
X87528400Y-115481100D03*
%TO.P,P1,20*%
%TO.N,/A1*%
X87528400Y-118021100D03*
%TO.P,P1,22*%
%TO.N,/A3*%
X87528400Y-120561100D03*
%TO.P,P1,24*%
%TO.N,/A5*%
X87528400Y-123101100D03*
%TO.P,P1,26*%
%TO.N,/A7*%
X87528400Y-125641100D03*
%TO.P,P1,28*%
%TO.N,/A9*%
X87528400Y-128181100D03*
%TO.P,P1,30*%
%TO.N,/A11*%
X87528400Y-130721100D03*
%TO.P,P1,32*%
%TO.N,Net-(P1-Pad32)*%
X87528400Y-133261100D03*
%TO.P,P1,34*%
%TO.N,GND*%
X87528400Y-135801100D03*
%TO.P,P1,36*%
%TO.N,Net-(P1-Pad36)*%
X87528400Y-138341100D03*
%TO.P,P1,38*%
%TO.N,Net-(P1-Pad38)*%
X87528400Y-140881100D03*
%TO.P,P1,40*%
%TO.N,Net-(P1-Pad40)*%
X87528400Y-143421100D03*
D14*
%TO.P,P1,MTG1*%
%TO.N,Net-(P1-PadMTG1)*%
X100736400Y-96621600D03*
%TO.P,P1,MTG2*%
%TO.N,Net-(P1-PadMTG2)*%
X100736400Y-141960600D03*
%TD*%
D11*
%TO.P,JP3,1*%
%TO.N,+5V*%
X115976400Y-96431100D03*
D12*
%TO.P,JP3,2*%
%TO.N,Net-(JP3-Pad2)*%
X113436400Y-96431100D03*
%TO.P,JP3,3*%
%TO.N,GND*%
X110896400Y-96431100D03*
%TD*%
D11*
%TO.P,JP2,1*%
%TO.N,+5V*%
X124231400Y-96431100D03*
D12*
%TO.P,JP2,2*%
%TO.N,Net-(JP2-Pad2)*%
X121691400Y-96431100D03*
%TO.P,JP2,3*%
%TO.N,GND*%
X119151400Y-96431100D03*
%TD*%
D11*
%TO.P,U1,1*%
%TO.N,/A7*%
X101371400Y-108496100D03*
D12*
%TO.P,U1,2*%
%TO.N,/A6*%
X101371400Y-111036100D03*
%TO.P,U1,7*%
%TO.N,/A1*%
X101371400Y-123736100D03*
%TO.P,U1,8*%
%TO.N,/A0*%
X101371400Y-126276100D03*
%TO.P,U1,3*%
%TO.N,/A5*%
X101371400Y-113576100D03*
%TO.P,U1,4*%
%TO.N,/A4*%
X101371400Y-116116100D03*
%TO.P,U1,6*%
%TO.N,/A2*%
X101371400Y-121196100D03*
%TO.P,U1,5*%
%TO.N,/A3*%
X101371400Y-118656100D03*
%TO.P,U1,9*%
%TO.N,/D0*%
X101371400Y-128816100D03*
%TO.P,U1,10*%
%TO.N,/D1*%
X101371400Y-131356100D03*
%TO.P,U1,11*%
%TO.N,/D2*%
X101371400Y-133896100D03*
%TO.P,U1,12*%
%TO.N,GND*%
X101371400Y-136436100D03*
%TO.P,U1,13*%
%TO.N,/D3*%
X116611400Y-136436100D03*
%TO.P,U1,14*%
%TO.N,/D4*%
X116611400Y-133896100D03*
%TO.P,U1,15*%
%TO.N,/D5*%
X116611400Y-131356100D03*
%TO.P,U1,16*%
%TO.N,/D6*%
X116611400Y-128816100D03*
%TO.P,U1,17*%
%TO.N,/D7*%
X116611400Y-126276100D03*
%TO.P,U1,18*%
%TO.N,Net-(P1-Pad32)*%
X116611400Y-123736100D03*
%TO.P,U1,19*%
%TO.N,/A10*%
X116611400Y-121196100D03*
%TO.P,U1,20*%
%TO.N,Net-(P1-Pad32)*%
X116611400Y-118656100D03*
%TO.P,U1,21*%
%TO.N,/A11*%
X116611400Y-116116100D03*
%TO.P,U1,22*%
%TO.N,/A9*%
X116611400Y-113576100D03*
%TO.P,U1,23*%
%TO.N,/A8*%
X116611400Y-111036100D03*
%TO.P,U1,24*%
%TO.N,+5V*%
X116611400Y-108496100D03*
%TD*%
D14*
%TO.P,P1,MTG2*%
%TO.N,Net-(P1-PadMTG2)*%
X100736400Y-87350600D03*
%TO.P,P1,MTG1*%
%TO.N,Net-(P1-PadMTG1)*%
X100736400Y-42011600D03*
D13*
%TO.P,P1,40*%
%TO.N,Net-(P1-Pad40)*%
X87528400Y-88811100D03*
%TO.P,P1,38*%
%TO.N,Net-(P1-Pad38)*%
X87528400Y-86271100D03*
%TO.P,P1,36*%
%TO.N,Net-(P1-Pad36)*%
X87528400Y-83731100D03*
%TO.P,P1,34*%
%TO.N,GND*%
X87528400Y-81191100D03*
%TO.P,P1,32*%
%TO.N,Net-(P1-Pad32)*%
X87528400Y-78651100D03*
%TO.P,P1,30*%
%TO.N,/A11*%
X87528400Y-76111100D03*
%TO.P,P1,28*%
%TO.N,/A9*%
X87528400Y-73571100D03*
%TO.P,P1,26*%
%TO.N,/A7*%
X87528400Y-71031100D03*
%TO.P,P1,24*%
%TO.N,/A5*%
X87528400Y-68491100D03*
%TO.P,P1,22*%
%TO.N,/A3*%
X87528400Y-65951100D03*
%TO.P,P1,20*%
%TO.N,/A1*%
X87528400Y-63411100D03*
%TO.P,P1,18*%
%TO.N,Net-(P1-Pad18)*%
X87528400Y-60871100D03*
%TO.P,P1,16*%
%TO.N,/D6*%
X87528400Y-58331100D03*
%TO.P,P1,14*%
%TO.N,/D4*%
X87528400Y-55791100D03*
%TO.P,P1,12*%
%TO.N,/D2*%
X87528400Y-53251100D03*
%TO.P,P1,10*%
%TO.N,/D0*%
X87528400Y-50711100D03*
%TO.P,P1,8*%
%TO.N,Net-(JP1-Pad2)*%
X87528400Y-48171100D03*
%TO.P,P1,6*%
%TO.N,Net-(P1-Pad6)*%
X87528400Y-45631100D03*
%TO.P,P1,4*%
%TO.N,Net-(P1-Pad4)*%
X87528400Y-43091100D03*
%TO.P,P1,2*%
%TO.N,Net-(P1-Pad2)*%
X87528400Y-40551100D03*
%TD*%
D12*
%TO.P,U1,24*%
%TO.N,+5V*%
X116611400Y-53886100D03*
%TO.P,U1,23*%
%TO.N,/A8*%
X116611400Y-56426100D03*
%TO.P,U1,22*%
%TO.N,/A9*%
X116611400Y-58966100D03*
%TO.P,U1,21*%
%TO.N,/A11*%
X116611400Y-61506100D03*
%TO.P,U1,20*%
%TO.N,Net-(P1-Pad32)*%
X116611400Y-64046100D03*
%TO.P,U1,19*%
%TO.N,/A10*%
X116611400Y-66586100D03*
%TO.P,U1,18*%
%TO.N,Net-(P1-Pad32)*%
X116611400Y-69126100D03*
%TO.P,U1,17*%
%TO.N,/D7*%
X116611400Y-71666100D03*
%TO.P,U1,16*%
%TO.N,/D6*%
X116611400Y-74206100D03*
%TO.P,U1,15*%
%TO.N,/D5*%
X116611400Y-76746100D03*
%TO.P,U1,14*%
%TO.N,/D4*%
X116611400Y-79286100D03*
%TO.P,U1,13*%
%TO.N,/D3*%
X116611400Y-81826100D03*
%TO.P,U1,12*%
%TO.N,GND*%
X101371400Y-81826100D03*
%TO.P,U1,11*%
%TO.N,/D2*%
X101371400Y-79286100D03*
%TO.P,U1,10*%
%TO.N,/D1*%
X101371400Y-76746100D03*
%TO.P,U1,9*%
%TO.N,/D0*%
X101371400Y-74206100D03*
%TO.P,U1,5*%
%TO.N,/A3*%
X101371400Y-64046100D03*
%TO.P,U1,6*%
%TO.N,/A2*%
X101371400Y-66586100D03*
%TO.P,U1,4*%
%TO.N,/A4*%
X101371400Y-61506100D03*
%TO.P,U1,3*%
%TO.N,/A5*%
X101371400Y-58966100D03*
%TO.P,U1,8*%
%TO.N,/A0*%
X101371400Y-71666100D03*
%TO.P,U1,7*%
%TO.N,/A1*%
X101371400Y-69126100D03*
%TO.P,U1,2*%
%TO.N,/A6*%
X101371400Y-56426100D03*
D11*
%TO.P,U1,1*%
%TO.N,/A7*%
X101371400Y-53886100D03*
%TD*%
D10*
%TO.P,C1,2*%
%TO.N,GND*%
X119786400Y-58966100D03*
%TO.P,C1,1*%
%TO.N,+5V*%
X119786400Y-53886100D03*
%TD*%
D12*
%TO.P,JP1,2*%
%TO.N,Net-(JP1-Pad2)*%
X95021400Y-45631100D03*
D11*
%TO.P,JP1,1*%
%TO.N,Net-(JP1-Pad1)*%
X95021400Y-43091100D03*
%TD*%
D12*
%TO.P,U2,28*%
%TO.N,+5V*%
X113436400Y-48806100D03*
%TO.P,U2,27*%
%TO.N,Net-(JP2-Pad2)*%
X113436400Y-51346100D03*
%TO.P,U2,26*%
%TO.N,/A13*%
X113436400Y-53886100D03*
%TO.P,U2,25*%
%TO.N,/A8*%
X113436400Y-56426100D03*
%TO.P,U2,24*%
%TO.N,/A9*%
X113436400Y-58966100D03*
%TO.P,U2,23*%
%TO.N,/A11*%
X113436400Y-61506100D03*
%TO.P,U2,22*%
%TO.N,Net-(P1-Pad32)*%
X113436400Y-64046100D03*
%TO.P,U2,21*%
%TO.N,/A10*%
X113436400Y-66586100D03*
%TO.P,U2,20*%
%TO.N,Net-(P1-Pad32)*%
X113436400Y-69126100D03*
%TO.P,U2,19*%
%TO.N,/D7*%
X113436400Y-71666100D03*
%TO.P,U2,18*%
%TO.N,/D6*%
X113436400Y-74206100D03*
%TO.P,U2,17*%
%TO.N,/D5*%
X113436400Y-76746100D03*
%TO.P,U2,16*%
%TO.N,/D4*%
X113436400Y-79286100D03*
%TO.P,U2,15*%
%TO.N,/D3*%
X113436400Y-81826100D03*
%TO.P,U2,14*%
%TO.N,GND*%
X98196400Y-81826100D03*
%TO.P,U2,13*%
%TO.N,/D2*%
X98196400Y-79286100D03*
%TO.P,U2,12*%
%TO.N,/D1*%
X98196400Y-76746100D03*
%TO.P,U2,11*%
%TO.N,/D0*%
X98196400Y-74206100D03*
%TO.P,U2,10*%
%TO.N,/A0*%
X98196400Y-71666100D03*
%TO.P,U2,9*%
%TO.N,/A1*%
X98196400Y-69126100D03*
%TO.P,U2,5*%
%TO.N,/A5*%
X98196400Y-58966100D03*
%TO.P,U2,6*%
%TO.N,/A4*%
X98196400Y-61506100D03*
%TO.P,U2,4*%
%TO.N,/A6*%
X98196400Y-56426100D03*
%TO.P,U2,3*%
%TO.N,/A7*%
X98196400Y-53886100D03*
%TO.P,U2,8*%
%TO.N,/A2*%
X98196400Y-66586100D03*
%TO.P,U2,7*%
%TO.N,/A3*%
X98196400Y-64046100D03*
%TO.P,U2,2*%
%TO.N,/A12*%
X98196400Y-51346100D03*
D11*
%TO.P,U2,1*%
%TO.N,Net-(JP3-Pad2)*%
X98196400Y-48806100D03*
%TD*%
D12*
%TO.P,JP2,3*%
%TO.N,GND*%
X119151400Y-41821100D03*
%TO.P,JP2,2*%
%TO.N,Net-(JP2-Pad2)*%
X121691400Y-41821100D03*
D11*
%TO.P,JP2,1*%
%TO.N,+5V*%
X124231400Y-41821100D03*
%TD*%
D12*
%TO.P,JP3,3*%
%TO.N,GND*%
X110896400Y-41821100D03*
%TO.P,JP3,2*%
%TO.N,Net-(JP3-Pad2)*%
X113436400Y-41821100D03*
D11*
%TO.P,JP3,1*%
%TO.N,+5V*%
X115976400Y-41821100D03*
%TD*%
D15*
%TO.N,Net-(P1-Pad32)*%
X96037400Y-77889100D03*
X96037400Y-132499100D03*
X157962600Y-51650900D03*
X157962600Y-106260900D03*
%TO.N,/A0*%
X95021400Y-71666100D03*
X94513400Y-63919100D03*
%TO.N,/A3*%
X93243400Y-64554100D03*
%TO.N,/A5*%
X96545400Y-67221100D03*
X92862400Y-67602100D03*
%TO.N,/A6*%
X95783400Y-70904100D03*
%TO.N,/A7*%
X95148400Y-68618100D03*
X93497400Y-69380100D03*
%TO.N,/A8*%
X110515400Y-71793100D03*
X93497400Y-76238100D03*
X93243400Y-74841100D03*
%TO.N,/A9*%
X111912400Y-60871100D03*
X93497400Y-70269100D03*
%TO.N,/A11*%
X94132400Y-73063100D03*
X94132400Y-127673100D03*
X159867600Y-56476900D03*
X159867600Y-111086900D03*
%TO.N,/A9*%
X93497400Y-124879100D03*
X111912400Y-115481100D03*
X142087600Y-68668900D03*
X160502600Y-59270900D03*
X160502600Y-113880900D03*
X142087600Y-123278900D03*
%TO.N,/A7*%
X95148400Y-123228100D03*
X93497400Y-123990100D03*
X158851600Y-60921900D03*
X160502600Y-60159900D03*
X158851600Y-115531900D03*
X160502600Y-114769900D03*
%TO.N,/A5*%
X92862400Y-122212100D03*
X96545400Y-121831100D03*
X161137600Y-61937900D03*
X157454600Y-62318900D03*
X161137600Y-116547900D03*
X157454600Y-116928900D03*
%TO.N,/A3*%
X93243400Y-119164100D03*
X160756600Y-64985900D03*
X160756600Y-119595900D03*
%TO.N,/A12*%
X102006400Y-52362100D03*
X95910400Y-80429100D03*
%TO.N,/A13*%
X93878400Y-84366100D03*
%TO.N,/D0*%
X99339400Y-65697100D03*
X95148400Y-65189100D03*
%TO.N,/D1*%
X99974400Y-53251100D03*
%TO.N,/D2*%
X102133400Y-62776100D03*
X94767400Y-60998100D03*
%TO.N,/D3*%
X95783400Y-53378100D03*
%TO.N,/D4*%
X94894400Y-53378100D03*
X92862400Y-54902100D03*
%TO.N,/D5*%
X109880400Y-58331100D03*
X93878400Y-57188100D03*
X93497400Y-58458100D03*
%TO.N,/D6*%
X92862400Y-57823100D03*
X92862400Y-112433100D03*
X161137600Y-71716900D03*
X161137600Y-126326900D03*
%TO.N,/D4*%
X92862400Y-109512100D03*
X94894400Y-107988100D03*
X161137600Y-74637900D03*
X159105600Y-76161900D03*
X161137600Y-129247900D03*
X159105600Y-130771900D03*
%TO.N,/D2*%
X102133400Y-117386100D03*
X94767400Y-115608100D03*
X159232600Y-68541900D03*
X151866600Y-66763900D03*
X151866600Y-121373900D03*
X159232600Y-123151900D03*
%TO.N,/D0*%
X95148400Y-119799100D03*
X99339400Y-120307100D03*
X158851600Y-64350900D03*
X154660600Y-63842900D03*
X158851600Y-118960900D03*
X154660600Y-118452900D03*
%TO.N,/A13*%
X93878400Y-138976100D03*
X160121600Y-45173900D03*
X160121600Y-99783900D03*
%TO.N,/A12*%
X102006400Y-106972100D03*
X95910400Y-135039100D03*
X151993600Y-77177900D03*
X158089600Y-49110900D03*
X151993600Y-131787900D03*
X158089600Y-103720900D03*
%TO.N,/A8*%
X93243400Y-129451100D03*
X93497400Y-130848100D03*
X110515400Y-126403100D03*
X160756600Y-54698900D03*
X160502600Y-53301900D03*
X143484600Y-57746900D03*
X160756600Y-109308900D03*
X160502600Y-107911900D03*
X143484600Y-112356900D03*
%TO.N,/A6*%
X95783400Y-125514100D03*
X158216600Y-58635900D03*
X158216600Y-113245900D03*
%TO.N,/A0*%
X94513400Y-118529100D03*
X95021400Y-126276100D03*
X158978600Y-57873900D03*
X159486600Y-65620900D03*
X159486600Y-120230900D03*
X158978600Y-112483900D03*
%TO.N,/D7*%
X111023400Y-60871100D03*
X111023400Y-115481100D03*
X142976600Y-68668900D03*
X142976600Y-123278900D03*
%TO.N,/D5*%
X93497400Y-113068100D03*
X109880400Y-112941100D03*
X93878400Y-111798100D03*
X160502600Y-71081900D03*
X160121600Y-72351900D03*
X144119600Y-71208900D03*
X160502600Y-125691900D03*
X144119600Y-125818900D03*
X160121600Y-126961900D03*
%TO.N,/D3*%
X95783400Y-107988100D03*
X158216600Y-76161900D03*
X158216600Y-130771900D03*
%TO.N,/D1*%
X99974400Y-107861100D03*
X154025600Y-76288900D03*
X154025600Y-130898900D03*
%TD*%
D16*
%TO.N,GND*%
X87528400Y-81191100D02*
X95656400Y-81191100D01*
X95656400Y-81191100D02*
X98196400Y-81826100D01*
X101371400Y-81826100D02*
X98196400Y-81826100D01*
D17*
X112293400Y-40424100D02*
X110896400Y-41821100D01*
X119151400Y-40424100D02*
X112293400Y-40424100D01*
X119151400Y-41821100D02*
X119151400Y-40424100D01*
X118897400Y-42075100D02*
X119151400Y-41821100D01*
X118897400Y-58077100D02*
X118897400Y-42075100D01*
X119786400Y-58966100D02*
X118897400Y-58077100D01*
D16*
X87528400Y-135801100D02*
X95656400Y-135801100D01*
X95656400Y-135801100D02*
X98196400Y-136436100D01*
X101371400Y-136436100D02*
X98196400Y-136436100D01*
D17*
X119151400Y-96431100D02*
X119151400Y-95034100D01*
X112293400Y-95034100D02*
X110896400Y-96431100D01*
X119151400Y-95034100D02*
X112293400Y-95034100D01*
X118897400Y-96685100D02*
X119151400Y-96431100D01*
X119786400Y-113576100D02*
X118897400Y-112687100D01*
X118897400Y-112687100D02*
X118897400Y-96685100D01*
D16*
X166471600Y-102958900D02*
X158343600Y-102958900D01*
X158343600Y-102958900D02*
X155803600Y-102323900D01*
X152628600Y-102323900D02*
X155803600Y-102323900D01*
D17*
X134848600Y-142328900D02*
X134848600Y-143725900D01*
X141706600Y-143725900D02*
X143103600Y-142328900D01*
X134848600Y-143725900D02*
X141706600Y-143725900D01*
X135102600Y-142074900D02*
X134848600Y-142328900D01*
X134213600Y-125183900D02*
X135102600Y-126072900D01*
X135102600Y-126072900D02*
X135102600Y-142074900D01*
X141706600Y-89115900D02*
X143103600Y-87718900D01*
D16*
X158343600Y-48348900D02*
X155803600Y-47713900D01*
D17*
X134848600Y-89115900D02*
X141706600Y-89115900D01*
X135102600Y-87464900D02*
X134848600Y-87718900D01*
X134213600Y-70573900D02*
X135102600Y-71462900D01*
D16*
X166471600Y-48348900D02*
X158343600Y-48348900D01*
X152628600Y-47713900D02*
X155803600Y-47713900D01*
D17*
X134848600Y-87718900D02*
X134848600Y-89115900D01*
X135102600Y-71462900D02*
X135102600Y-87464900D01*
%TO.N,Net-(P1-Pad32)*%
X114579400Y-65189100D02*
X113436400Y-64046100D01*
X114579400Y-67983100D02*
X114579400Y-65189100D01*
X113436400Y-69126100D02*
X114579400Y-67983100D01*
X92608400Y-77889100D02*
X96037400Y-77889100D01*
X92608400Y-78016100D02*
X92608400Y-77889100D01*
X91973400Y-78651100D02*
X92608400Y-78016100D01*
X87528400Y-78651100D02*
X91973400Y-78651100D01*
X113436400Y-123736100D02*
X114579400Y-122593100D01*
X114579400Y-119799100D02*
X113436400Y-118656100D01*
X92608400Y-132499100D02*
X96037400Y-132499100D01*
X87528400Y-133261100D02*
X91973400Y-133261100D01*
X92608400Y-132626100D02*
X92608400Y-132499100D01*
X114579400Y-122593100D02*
X114579400Y-119799100D01*
X91973400Y-133261100D02*
X92608400Y-132626100D01*
X140563600Y-115023900D02*
X139420600Y-116166900D01*
X139420600Y-118960900D02*
X140563600Y-120103900D01*
X161391600Y-106260900D02*
X157962600Y-106260900D01*
X166471600Y-105498900D02*
X162026600Y-105498900D01*
X161391600Y-106133900D02*
X161391600Y-106260900D01*
X139420600Y-116166900D02*
X139420600Y-118960900D01*
X162026600Y-105498900D02*
X161391600Y-106133900D01*
X140563600Y-60413900D02*
X139420600Y-61556900D01*
X166471600Y-50888900D02*
X162026600Y-50888900D01*
X162026600Y-50888900D02*
X161391600Y-51523900D01*
X161391600Y-51650900D02*
X157962600Y-51650900D01*
X139420600Y-61556900D02*
X139420600Y-64350900D01*
X161391600Y-51523900D02*
X161391600Y-51650900D01*
X139420600Y-64350900D02*
X140563600Y-65493900D01*
%TO.N,Net-(JP1-Pad2)*%
X92481400Y-48171100D02*
X95021400Y-45631100D01*
X87528400Y-48171100D02*
X92481400Y-48171100D01*
%TO.N,/A0*%
X94513400Y-71158100D02*
X95021400Y-71666100D01*
X94513400Y-63919100D02*
X94513400Y-71158100D01*
%TO.N,/A1*%
X96418400Y-70904100D02*
X98196400Y-69126100D01*
X96418400Y-71158100D02*
X96418400Y-70904100D01*
X95275400Y-72301100D02*
X96418400Y-71158100D01*
X94132400Y-72301100D02*
X95275400Y-72301100D01*
X94132400Y-64554100D02*
X94132400Y-72301100D01*
X92989400Y-63411100D02*
X94132400Y-64554100D01*
X87528400Y-63411100D02*
X92989400Y-63411100D01*
%TO.N,/A3*%
X92608400Y-65189100D02*
X93243400Y-64554100D01*
X92608400Y-65316100D02*
X92608400Y-65189100D01*
X91973400Y-65951100D02*
X92608400Y-65316100D01*
X87528400Y-65951100D02*
X91973400Y-65951100D01*
%TO.N,/A5*%
X96545400Y-60617100D02*
X98196400Y-58966100D01*
X96545400Y-67221100D02*
X96545400Y-60617100D01*
X91973400Y-68491100D02*
X92862400Y-67602100D01*
X87528400Y-68491100D02*
X91973400Y-68491100D01*
%TO.N,/A6*%
X96164400Y-58458100D02*
X98196400Y-56426100D01*
X96164400Y-66713100D02*
X96164400Y-58458100D01*
X95783400Y-67094100D02*
X96164400Y-66713100D01*
X95783400Y-70904100D02*
X95783400Y-67094100D01*
%TO.N,/A7*%
X95783400Y-56299100D02*
X98196400Y-53886100D01*
X95783400Y-66586100D02*
X95783400Y-56299100D01*
X95148400Y-67221100D02*
X95783400Y-66586100D01*
X95148400Y-68618100D02*
X95148400Y-67221100D01*
X92608400Y-70269100D02*
X93497400Y-69380100D01*
X92608400Y-70396100D02*
X92608400Y-70269100D01*
X91973400Y-71031100D02*
X92608400Y-70396100D01*
X87528400Y-71031100D02*
X91973400Y-71031100D01*
%TO.N,/A8*%
X110388400Y-59474100D02*
X113436400Y-56426100D01*
X110388400Y-71666100D02*
X110388400Y-59474100D01*
X110515400Y-71793100D02*
X110388400Y-71666100D01*
X93243400Y-75984100D02*
X93497400Y-76238100D01*
X93243400Y-74841100D02*
X93243400Y-75984100D01*
%TO.N,/A9*%
X111912400Y-60490100D02*
X113436400Y-58966100D01*
X111912400Y-60871100D02*
X111912400Y-60490100D01*
X92608400Y-71158100D02*
X93497400Y-70269100D01*
X92608400Y-72936100D02*
X92608400Y-71158100D01*
X91973400Y-73571100D02*
X92608400Y-72936100D01*
X87528400Y-73571100D02*
X91973400Y-73571100D01*
%TO.N,/A11*%
X92608400Y-74587100D02*
X94132400Y-73063100D01*
X92608400Y-75476100D02*
X92608400Y-74587100D01*
X91973400Y-76111100D02*
X92608400Y-75476100D01*
X87528400Y-76111100D02*
X91973400Y-76111100D01*
X92608400Y-130086100D02*
X92608400Y-129197100D01*
X91973400Y-130721100D02*
X92608400Y-130086100D01*
X87528400Y-130721100D02*
X91973400Y-130721100D01*
X92608400Y-129197100D02*
X94132400Y-127673100D01*
X161391600Y-108673900D02*
X161391600Y-109562900D01*
X162026600Y-108038900D02*
X161391600Y-108673900D01*
X166471600Y-108038900D02*
X162026600Y-108038900D01*
X161391600Y-109562900D02*
X159867600Y-111086900D01*
X161391600Y-54063900D02*
X161391600Y-54952900D01*
X166471600Y-53428900D02*
X162026600Y-53428900D01*
X162026600Y-53428900D02*
X161391600Y-54063900D01*
X161391600Y-54952900D02*
X159867600Y-56476900D01*
%TO.N,/A9*%
X111912400Y-115100100D02*
X113436400Y-113576100D01*
X111912400Y-115481100D02*
X111912400Y-115100100D01*
X92608400Y-125768100D02*
X93497400Y-124879100D01*
X91973400Y-128181100D02*
X92608400Y-127546100D01*
X92608400Y-127546100D02*
X92608400Y-125768100D01*
X87528400Y-128181100D02*
X91973400Y-128181100D01*
X142087600Y-123659900D02*
X140563600Y-125183900D01*
X142087600Y-123278900D02*
X142087600Y-123659900D01*
X161391600Y-112991900D02*
X160502600Y-113880900D01*
X162026600Y-110578900D02*
X161391600Y-111213900D01*
X161391600Y-111213900D02*
X161391600Y-112991900D01*
X166471600Y-110578900D02*
X162026600Y-110578900D01*
X142087600Y-69049900D02*
X140563600Y-70573900D01*
X142087600Y-68668900D02*
X142087600Y-69049900D01*
X162026600Y-55968900D02*
X161391600Y-56603900D01*
X161391600Y-56603900D02*
X161391600Y-58381900D01*
X161391600Y-58381900D02*
X160502600Y-59270900D01*
X166471600Y-55968900D02*
X162026600Y-55968900D01*
%TO.N,/A7*%
X95783400Y-110909100D02*
X98196400Y-108496100D01*
X95148400Y-121831100D02*
X95783400Y-121196100D01*
X95148400Y-123228100D02*
X95148400Y-121831100D01*
X92608400Y-125006100D02*
X92608400Y-124879100D01*
X91973400Y-125641100D02*
X92608400Y-125006100D01*
X87528400Y-125641100D02*
X91973400Y-125641100D01*
X95783400Y-121196100D02*
X95783400Y-110909100D01*
X92608400Y-124879100D02*
X93497400Y-123990100D01*
X158216600Y-127850900D02*
X155803600Y-130263900D01*
X158851600Y-116928900D02*
X158216600Y-117563900D01*
X158851600Y-115531900D02*
X158851600Y-116928900D01*
X161391600Y-113753900D02*
X161391600Y-113880900D01*
X162026600Y-113118900D02*
X161391600Y-113753900D01*
X166471600Y-113118900D02*
X162026600Y-113118900D01*
X158216600Y-117563900D02*
X158216600Y-127850900D01*
X161391600Y-113880900D02*
X160502600Y-114769900D01*
X158216600Y-62953900D02*
X158216600Y-73240900D01*
X166471600Y-58508900D02*
X162026600Y-58508900D01*
X158851600Y-60921900D02*
X158851600Y-62318900D01*
X161391600Y-59143900D02*
X161391600Y-59270900D01*
X161391600Y-59270900D02*
X160502600Y-60159900D01*
X158851600Y-62318900D02*
X158216600Y-62953900D01*
X158216600Y-73240900D02*
X155803600Y-75653900D01*
X162026600Y-58508900D02*
X161391600Y-59143900D01*
%TO.N,/A5*%
X87528400Y-123101100D02*
X91973400Y-123101100D01*
X96545400Y-121831100D02*
X96545400Y-115227100D01*
X96545400Y-115227100D02*
X98196400Y-113576100D01*
X91973400Y-123101100D02*
X92862400Y-122212100D01*
X166471600Y-115658900D02*
X162026600Y-115658900D01*
X157454600Y-116928900D02*
X157454600Y-123532900D01*
X157454600Y-123532900D02*
X155803600Y-125183900D01*
X162026600Y-115658900D02*
X161137600Y-116547900D01*
X166471600Y-61048900D02*
X162026600Y-61048900D01*
X157454600Y-62318900D02*
X157454600Y-68922900D01*
X157454600Y-68922900D02*
X155803600Y-70573900D01*
X162026600Y-61048900D02*
X161137600Y-61937900D01*
%TO.N,/A3*%
X87528400Y-120561100D02*
X91973400Y-120561100D01*
X92608400Y-119799100D02*
X93243400Y-119164100D01*
X92608400Y-119926100D02*
X92608400Y-119799100D01*
X91973400Y-120561100D02*
X92608400Y-119926100D01*
X166471600Y-118198900D02*
X162026600Y-118198900D01*
X161391600Y-118960900D02*
X160756600Y-119595900D01*
X161391600Y-118833900D02*
X161391600Y-118960900D01*
X162026600Y-118198900D02*
X161391600Y-118833900D01*
X162026600Y-63588900D02*
X161391600Y-64223900D01*
X166471600Y-63588900D02*
X162026600Y-63588900D01*
X161391600Y-64350900D02*
X160756600Y-64985900D01*
X161391600Y-64223900D02*
X161391600Y-64350900D01*
%TO.N,/A1*%
X92989400Y-118021100D02*
X94132400Y-119164100D01*
X95275400Y-126911100D02*
X96418400Y-125768100D01*
X96418400Y-125514100D02*
X98196400Y-123736100D01*
X94132400Y-126911100D02*
X95275400Y-126911100D01*
X96418400Y-125768100D02*
X96418400Y-125514100D01*
X94132400Y-119164100D02*
X94132400Y-126911100D01*
X87528400Y-118021100D02*
X92989400Y-118021100D01*
X161010600Y-120738900D02*
X159867600Y-119595900D01*
X158724600Y-111848900D02*
X157581600Y-112991900D01*
X157581600Y-113245900D02*
X155803600Y-115023900D01*
X159867600Y-111848900D02*
X158724600Y-111848900D01*
X157581600Y-112991900D02*
X157581600Y-113245900D01*
X159867600Y-119595900D02*
X159867600Y-111848900D01*
X166471600Y-120738900D02*
X161010600Y-120738900D01*
X158724600Y-57238900D02*
X157581600Y-58381900D01*
X161010600Y-66128900D02*
X159867600Y-64985900D01*
X157581600Y-58635900D02*
X155803600Y-60413900D01*
X159867600Y-57238900D02*
X158724600Y-57238900D01*
X159867600Y-64985900D02*
X159867600Y-57238900D01*
X166471600Y-66128900D02*
X161010600Y-66128900D01*
X157581600Y-58381900D02*
X157581600Y-58635900D01*
%TO.N,/A12*%
X102895400Y-53251100D02*
X102006400Y-52362100D01*
X102895400Y-79413100D02*
X102895400Y-53251100D01*
X101879400Y-80429100D02*
X102895400Y-79413100D01*
X95910400Y-80429100D02*
X101879400Y-80429100D01*
%TO.N,/A13*%
X114960400Y-55410100D02*
X113436400Y-53886100D01*
X114960400Y-81953100D02*
X114960400Y-55410100D01*
X112674400Y-84239100D02*
X114960400Y-81953100D01*
X93878400Y-84239100D02*
X112674400Y-84239100D01*
X93878400Y-84366100D02*
X93878400Y-84239100D01*
%TO.N,/D0*%
X99339400Y-73063100D02*
X98196400Y-74206100D01*
X99339400Y-65697100D02*
X99339400Y-73063100D01*
X95402400Y-64935100D02*
X95148400Y-65189100D01*
X95402400Y-54775100D02*
X95402400Y-64935100D01*
X92608400Y-51981100D02*
X95402400Y-54775100D01*
X92608400Y-51346100D02*
X92608400Y-51981100D01*
X91973400Y-50711100D02*
X92608400Y-51346100D01*
X87528400Y-50711100D02*
X91973400Y-50711100D01*
%TO.N,/D1*%
X99974400Y-75349100D02*
X101371400Y-76746100D01*
X99974400Y-53251100D02*
X99974400Y-75349100D01*
%TO.N,/D2*%
X102514400Y-78143100D02*
X101371400Y-79286100D01*
X102514400Y-63157100D02*
X102514400Y-78143100D01*
X102133400Y-62776100D02*
X102514400Y-63157100D01*
X94513400Y-60744100D02*
X94767400Y-60998100D01*
X94513400Y-55664100D02*
X94513400Y-60744100D01*
X92100400Y-53251100D02*
X94513400Y-55664100D01*
X87528400Y-53251100D02*
X92100400Y-53251100D01*
%TO.N,/D3*%
X103276400Y-71666100D02*
X113436400Y-81826100D01*
X103276400Y-52743100D02*
X103276400Y-71666100D01*
X102133400Y-51600100D02*
X103276400Y-52743100D01*
X99339400Y-51600100D02*
X102133400Y-51600100D01*
X99339400Y-51854100D02*
X99339400Y-51600100D01*
X98450400Y-52743100D02*
X99339400Y-51854100D01*
X95783400Y-52743100D02*
X98450400Y-52743100D01*
X95783400Y-53378100D02*
X95783400Y-52743100D01*
%TO.N,/D4*%
X108102400Y-73952100D02*
X113436400Y-79286100D01*
X108102400Y-56553100D02*
X108102400Y-73952100D01*
X101752400Y-50203100D02*
X108102400Y-56553100D01*
X94894400Y-50203100D02*
X101752400Y-50203100D01*
X94894400Y-53378100D02*
X94894400Y-50203100D01*
X91973400Y-55791100D02*
X92862400Y-54902100D01*
X87528400Y-55791100D02*
X91973400Y-55791100D01*
%TO.N,/D5*%
X109880400Y-73190100D02*
X113436400Y-76746100D01*
X109880400Y-58331100D02*
X109880400Y-73190100D01*
X93497400Y-57569100D02*
X93878400Y-57188100D01*
X93497400Y-58458100D02*
X93497400Y-57569100D01*
%TO.N,/D6*%
X87528400Y-57823100D02*
X92862400Y-57823100D01*
X87528400Y-58331100D02*
X87528400Y-57823100D01*
X87528400Y-112433100D02*
X92862400Y-112433100D01*
X87528400Y-112941100D02*
X87528400Y-112433100D01*
X166471600Y-126326900D02*
X161137600Y-126326900D01*
X166471600Y-125818900D02*
X166471600Y-126326900D01*
X166471600Y-71716900D02*
X161137600Y-71716900D01*
X166471600Y-71208900D02*
X166471600Y-71716900D01*
%TO.N,/D4*%
X87528400Y-110401100D02*
X91973400Y-110401100D01*
X108102400Y-128562100D02*
X113436400Y-133896100D01*
X108102400Y-111163100D02*
X108102400Y-128562100D01*
X94894400Y-107988100D02*
X94894400Y-104813100D01*
X91973400Y-110401100D02*
X92862400Y-109512100D01*
X101752400Y-104813100D02*
X108102400Y-111163100D01*
X94894400Y-104813100D02*
X101752400Y-104813100D01*
X166471600Y-128358900D02*
X162026600Y-128358900D01*
X145897600Y-110197900D02*
X140563600Y-104863900D01*
X145897600Y-127596900D02*
X145897600Y-110197900D01*
X159105600Y-130771900D02*
X159105600Y-133946900D01*
X162026600Y-128358900D02*
X161137600Y-129247900D01*
X152247600Y-133946900D02*
X145897600Y-127596900D01*
X159105600Y-133946900D02*
X152247600Y-133946900D01*
X166471600Y-73748900D02*
X162026600Y-73748900D01*
X145897600Y-55587900D02*
X140563600Y-50253900D01*
X145897600Y-72986900D02*
X145897600Y-55587900D01*
X159105600Y-76161900D02*
X159105600Y-79336900D01*
X162026600Y-73748900D02*
X161137600Y-74637900D01*
X152247600Y-79336900D02*
X145897600Y-72986900D01*
X159105600Y-79336900D02*
X152247600Y-79336900D01*
%TO.N,/D2*%
X94513400Y-115354100D02*
X94767400Y-115608100D01*
X94513400Y-110274100D02*
X94513400Y-115354100D01*
X102133400Y-117386100D02*
X102514400Y-117767100D01*
X87528400Y-107861100D02*
X92100400Y-107861100D01*
X102514400Y-117767100D02*
X102514400Y-132753100D01*
X102514400Y-132753100D02*
X101371400Y-133896100D01*
X92100400Y-107861100D02*
X94513400Y-110274100D01*
X159486600Y-123405900D02*
X159232600Y-123151900D01*
X159486600Y-128485900D02*
X159486600Y-123405900D01*
X151866600Y-121373900D02*
X151485600Y-120992900D01*
X166471600Y-130898900D02*
X161899600Y-130898900D01*
X151485600Y-120992900D02*
X151485600Y-106006900D01*
X151485600Y-106006900D02*
X152628600Y-104863900D01*
X161899600Y-130898900D02*
X159486600Y-128485900D01*
X159486600Y-68795900D02*
X159232600Y-68541900D01*
X151485600Y-66382900D02*
X151485600Y-51396900D01*
X159486600Y-73875900D02*
X159486600Y-68795900D01*
X161899600Y-76288900D02*
X159486600Y-73875900D01*
X151866600Y-66763900D02*
X151485600Y-66382900D01*
X151485600Y-51396900D02*
X152628600Y-50253900D01*
X166471600Y-76288900D02*
X161899600Y-76288900D01*
%TO.N,/D0*%
X92608400Y-106591100D02*
X95402400Y-109385100D01*
X92608400Y-105956100D02*
X92608400Y-106591100D01*
X91973400Y-105321100D02*
X92608400Y-105956100D01*
X99339400Y-120307100D02*
X99339400Y-127673100D01*
X95402400Y-119545100D02*
X95148400Y-119799100D01*
X95402400Y-109385100D02*
X95402400Y-119545100D01*
X99339400Y-127673100D02*
X98196400Y-128816100D01*
X87528400Y-105321100D02*
X91973400Y-105321100D01*
X161391600Y-132168900D02*
X158597600Y-129374900D01*
X161391600Y-132803900D02*
X161391600Y-132168900D01*
X162026600Y-133438900D02*
X161391600Y-132803900D01*
X154660600Y-118452900D02*
X154660600Y-111086900D01*
X158597600Y-119214900D02*
X158851600Y-118960900D01*
X158597600Y-129374900D02*
X158597600Y-119214900D01*
X154660600Y-111086900D02*
X155803600Y-109943900D01*
X166471600Y-133438900D02*
X162026600Y-133438900D01*
X162026600Y-78828900D02*
X161391600Y-78193900D01*
X161391600Y-78193900D02*
X161391600Y-77558900D01*
X161391600Y-77558900D02*
X158597600Y-74764900D01*
X154660600Y-56476900D02*
X155803600Y-55333900D01*
X158597600Y-64604900D02*
X158851600Y-64350900D01*
X154660600Y-63842900D02*
X154660600Y-56476900D01*
X158597600Y-74764900D02*
X158597600Y-64604900D01*
X166471600Y-78828900D02*
X162026600Y-78828900D01*
%TO.N,Net-(JP1-Pad2)*%
X92481400Y-102781100D02*
X95021400Y-100241100D01*
X87528400Y-102781100D02*
X92481400Y-102781100D01*
X161518600Y-135978900D02*
X158978600Y-138518900D01*
X166471600Y-135978900D02*
X161518600Y-135978900D01*
X161518600Y-81368900D02*
X158978600Y-83908900D01*
X166471600Y-81368900D02*
X161518600Y-81368900D01*
%TO.N,/A13*%
X114960400Y-110020100D02*
X113436400Y-108496100D01*
X114960400Y-136563100D02*
X114960400Y-110020100D01*
X93878400Y-138976100D02*
X93878400Y-138849100D01*
X93878400Y-138849100D02*
X112674400Y-138849100D01*
X112674400Y-138849100D02*
X114960400Y-136563100D01*
X139039600Y-128739900D02*
X140563600Y-130263900D01*
X139039600Y-102196900D02*
X139039600Y-128739900D01*
X160121600Y-99783900D02*
X160121600Y-99910900D01*
X160121600Y-99910900D02*
X141325600Y-99910900D01*
X141325600Y-99910900D02*
X139039600Y-102196900D01*
X139039600Y-74129900D02*
X140563600Y-75653900D01*
X139039600Y-47586900D02*
X139039600Y-74129900D01*
X160121600Y-45173900D02*
X160121600Y-45300900D01*
X160121600Y-45300900D02*
X141325600Y-45300900D01*
X141325600Y-45300900D02*
X139039600Y-47586900D01*
%TO.N,/A12*%
X101879400Y-135039100D02*
X102895400Y-134023100D01*
X95910400Y-135039100D02*
X101879400Y-135039100D01*
X102895400Y-107861100D02*
X102006400Y-106972100D01*
X102895400Y-134023100D02*
X102895400Y-107861100D01*
X152120600Y-103720900D02*
X151104600Y-104736900D01*
X158089600Y-103720900D02*
X152120600Y-103720900D01*
X151104600Y-130898900D02*
X151993600Y-131787900D01*
X151104600Y-104736900D02*
X151104600Y-130898900D01*
X152120600Y-49110900D02*
X151104600Y-50126900D01*
X158089600Y-49110900D02*
X152120600Y-49110900D01*
X151104600Y-76288900D02*
X151993600Y-77177900D01*
X151104600Y-50126900D02*
X151104600Y-76288900D01*
%TO.N,/A8*%
X110515400Y-126403100D02*
X110388400Y-126276100D01*
X93243400Y-130594100D02*
X93497400Y-130848100D01*
X93243400Y-129451100D02*
X93243400Y-130594100D01*
X110388400Y-114084100D02*
X113436400Y-111036100D01*
X110388400Y-126276100D02*
X110388400Y-114084100D01*
X143484600Y-112356900D02*
X143611600Y-112483900D01*
X160756600Y-108165900D02*
X160502600Y-107911900D01*
X160756600Y-109308900D02*
X160756600Y-108165900D01*
X143611600Y-124675900D02*
X140563600Y-127723900D01*
X143611600Y-112483900D02*
X143611600Y-124675900D01*
X143484600Y-57746900D02*
X143611600Y-57873900D01*
X160756600Y-54698900D02*
X160756600Y-53555900D01*
X143611600Y-57873900D02*
X143611600Y-70065900D01*
X160756600Y-53555900D02*
X160502600Y-53301900D01*
X143611600Y-70065900D02*
X140563600Y-73113900D01*
%TO.N,/A6*%
X96164400Y-113068100D02*
X98196400Y-111036100D01*
X96164400Y-121323100D02*
X96164400Y-113068100D01*
X95783400Y-121704100D02*
X96164400Y-121323100D01*
X95783400Y-125514100D02*
X95783400Y-121704100D01*
X157835600Y-125691900D02*
X155803600Y-127723900D01*
X157835600Y-117436900D02*
X157835600Y-125691900D01*
X158216600Y-117055900D02*
X157835600Y-117436900D01*
X158216600Y-113245900D02*
X158216600Y-117055900D01*
X157835600Y-71081900D02*
X155803600Y-73113900D01*
X157835600Y-62826900D02*
X157835600Y-71081900D01*
X158216600Y-58635900D02*
X158216600Y-62445900D01*
X158216600Y-62445900D02*
X157835600Y-62826900D01*
%TO.N,/A0*%
X94513400Y-125768100D02*
X95021400Y-126276100D01*
X94513400Y-118529100D02*
X94513400Y-125768100D01*
X159486600Y-112991900D02*
X158978600Y-112483900D01*
X159486600Y-120230900D02*
X159486600Y-112991900D01*
X159486600Y-58381900D02*
X158978600Y-57873900D01*
X159486600Y-65620900D02*
X159486600Y-58381900D01*
%TO.N,/D7*%
X111023400Y-69253100D02*
X113436400Y-71666100D01*
X111023400Y-60871100D02*
X111023400Y-69253100D01*
X111023400Y-123863100D02*
X113436400Y-126276100D01*
X111023400Y-115481100D02*
X111023400Y-123863100D01*
X142976600Y-114896900D02*
X140563600Y-112483900D01*
X142976600Y-123278900D02*
X142976600Y-114896900D01*
X142976600Y-60286900D02*
X140563600Y-57873900D01*
X142976600Y-68668900D02*
X142976600Y-60286900D01*
%TO.N,/D5*%
X93497400Y-112179100D02*
X93878400Y-111798100D01*
X93497400Y-113068100D02*
X93497400Y-112179100D01*
X109880400Y-127800100D02*
X113436400Y-131356100D01*
X109880400Y-112941100D02*
X109880400Y-127800100D01*
X160502600Y-126580900D02*
X160121600Y-126961900D01*
X160502600Y-125691900D02*
X160502600Y-126580900D01*
X144119600Y-110959900D02*
X140563600Y-107403900D01*
X144119600Y-125818900D02*
X144119600Y-110959900D01*
X160502600Y-71970900D02*
X160121600Y-72351900D01*
X160502600Y-71081900D02*
X160502600Y-71970900D01*
X144119600Y-71208900D02*
X144119600Y-56349900D01*
X144119600Y-56349900D02*
X140563600Y-52793900D01*
%TO.N,/D3*%
X103276400Y-107353100D02*
X103276400Y-126276100D01*
X102133400Y-106210100D02*
X103276400Y-107353100D01*
X98450400Y-107353100D02*
X99339400Y-106464100D01*
X103276400Y-126276100D02*
X113436400Y-136436100D01*
X95783400Y-107353100D02*
X98450400Y-107353100D01*
X99339400Y-106210100D02*
X102133400Y-106210100D01*
X95783400Y-107988100D02*
X95783400Y-107353100D01*
X99339400Y-106464100D02*
X99339400Y-106210100D01*
X150723600Y-131406900D02*
X150723600Y-112483900D01*
X151866600Y-132549900D02*
X150723600Y-131406900D01*
X155549600Y-131406900D02*
X154660600Y-132295900D01*
X150723600Y-112483900D02*
X140563600Y-102323900D01*
X158216600Y-131406900D02*
X155549600Y-131406900D01*
X154660600Y-132549900D02*
X151866600Y-132549900D01*
X158216600Y-130771900D02*
X158216600Y-131406900D01*
X154660600Y-132295900D02*
X154660600Y-132549900D01*
X150723600Y-76796900D02*
X150723600Y-57873900D01*
X158216600Y-76161900D02*
X158216600Y-76796900D01*
X155549600Y-76796900D02*
X154660600Y-77685900D01*
X151866600Y-77939900D02*
X150723600Y-76796900D01*
X158216600Y-76796900D02*
X155549600Y-76796900D01*
X154660600Y-77939900D02*
X151866600Y-77939900D01*
X150723600Y-57873900D02*
X140563600Y-47713900D01*
X154660600Y-77685900D02*
X154660600Y-77939900D01*
%TO.N,/D1*%
X99974400Y-107861100D02*
X99974400Y-129959100D01*
X99974400Y-129959100D02*
X101371400Y-131356100D01*
X154025600Y-130898900D02*
X154025600Y-108800900D01*
X154025600Y-108800900D02*
X152628600Y-107403900D01*
X154025600Y-76288900D02*
X154025600Y-54190900D01*
X154025600Y-54190900D02*
X152628600Y-52793900D01*
D16*
%TO.N,Net-(JP3-Pad2)*%
X98196400Y-48806100D02*
X108991400Y-48806100D01*
X108991400Y-48806100D02*
X113436400Y-44361100D01*
X113436400Y-44361100D02*
X113436400Y-41821100D01*
X98196400Y-103416100D02*
X108991400Y-103416100D01*
X108991400Y-103416100D02*
X113436400Y-98971100D01*
X113436400Y-98971100D02*
X113436400Y-96431100D01*
X155803600Y-135343900D02*
X145008600Y-135343900D01*
X145008600Y-135343900D02*
X140563600Y-139788900D01*
X140563600Y-139788900D02*
X140563600Y-142328900D01*
X140563600Y-85178900D02*
X140563600Y-87718900D01*
X155803600Y-80733900D02*
X145008600Y-80733900D01*
X145008600Y-80733900D02*
X140563600Y-85178900D01*
%TD*%
M02*
