%TF.GenerationSoftware,KiCad,Pcbnew,(5.1.10)-1*%
%TF.CreationDate,2022-10-07T13:26:39-03:00*%
%TF.ProjectId,CoCoEPROMpak,436f436f-4550-4524-9f4d-70616b2e6b69,rev?*%
%TF.SameCoordinates,Original*%
%TF.FileFunction,Profile,NP*%
%FSLAX46Y46*%
G04 Gerber Fmt 4.6, Leading zero omitted, Abs format (unit mm)*
G04 Created by KiCad (PCBNEW (5.1.10)-1) date 2022-10-07 13:26:39*
%MOMM*%
%LPD*%
G01*
G04 APERTURE LIST*
%TA.AperFunction,Profile*%
%ADD10C,0.127000*%
%TD*%
G04 APERTURE END LIST*
D10*
%TO.C,P1*%
X161772600Y-145884900D02*
X170408600Y-145884900D01*
X171678600Y-144614900D02*
G75*
G02*
X170408600Y-145884900I-1270000J0D01*
G01*
X171678600Y-144614900D02*
X171678600Y-94322900D01*
X170408600Y-93052900D02*
G75*
G02*
X171678600Y-94322900I0J-1270000D01*
G01*
X170408600Y-93052900D02*
X161772600Y-93052900D01*
X161518600Y-92798900D02*
G75*
G03*
X161772600Y-93052900I254000J0D01*
G01*
X161518600Y-92798900D02*
X127228600Y-92798900D01*
X127228600Y-92798900D02*
X127228600Y-115658900D01*
X127228600Y-115658900D02*
X129133600Y-115658900D01*
X132943600Y-119468900D02*
G75*
G03*
X129133600Y-115658900I-3810000J0D01*
G01*
X129133600Y-123278900D02*
G75*
G03*
X132943600Y-119468900I0J3810000D01*
G01*
X129133600Y-123278900D02*
X127228600Y-123278900D01*
X127228600Y-123278900D02*
X127228600Y-146138900D01*
X127228600Y-146138900D02*
X161518600Y-146138900D01*
X161772600Y-145884900D02*
G75*
G03*
X161518600Y-146138900I0J-254000D01*
G01*
X161772600Y-91274900D02*
G75*
G03*
X161518600Y-91528900I0J-254000D01*
G01*
X127228600Y-91528900D02*
X161518600Y-91528900D01*
X127228600Y-68668900D02*
X127228600Y-91528900D01*
X129133600Y-68668900D02*
X127228600Y-68668900D01*
X129133600Y-68668900D02*
G75*
G03*
X132943600Y-64858900I0J3810000D01*
G01*
X132943600Y-64858900D02*
G75*
G03*
X129133600Y-61048900I-3810000J0D01*
G01*
X127228600Y-61048900D02*
X129133600Y-61048900D01*
X127228600Y-38188900D02*
X127228600Y-61048900D01*
X161518600Y-38188900D02*
X127228600Y-38188900D01*
X161518600Y-38188900D02*
G75*
G03*
X161772600Y-38442900I254000J0D01*
G01*
X170408600Y-38442900D02*
X161772600Y-38442900D01*
X170408600Y-38442900D02*
G75*
G02*
X171678600Y-39712900I0J-1270000D01*
G01*
X171678600Y-90004900D02*
X171678600Y-39712900D01*
X171678600Y-90004900D02*
G75*
G02*
X170408600Y-91274900I-1270000J0D01*
G01*
X161772600Y-91274900D02*
X170408600Y-91274900D01*
X92227400Y-92875100D02*
X83591400Y-92875100D01*
X82321400Y-94145100D02*
G75*
G02*
X83591400Y-92875100I1270000J0D01*
G01*
X82321400Y-94145100D02*
X82321400Y-144437100D01*
X83591400Y-145707100D02*
G75*
G02*
X82321400Y-144437100I0J1270000D01*
G01*
X83591400Y-145707100D02*
X92227400Y-145707100D01*
X92481400Y-145961100D02*
G75*
G03*
X92227400Y-145707100I-254000J0D01*
G01*
X92481400Y-145961100D02*
X126771400Y-145961100D01*
X126771400Y-145961100D02*
X126771400Y-123101100D01*
X126771400Y-123101100D02*
X124866400Y-123101100D01*
X121056400Y-119291100D02*
G75*
G03*
X124866400Y-123101100I3810000J0D01*
G01*
X124866400Y-115481100D02*
G75*
G03*
X121056400Y-119291100I0J-3810000D01*
G01*
X124866400Y-115481100D02*
X126771400Y-115481100D01*
X126771400Y-115481100D02*
X126771400Y-92621100D01*
X126771400Y-92621100D02*
X92481400Y-92621100D01*
X92227400Y-92875100D02*
G75*
G03*
X92481400Y-92621100I0J254000D01*
G01*
X92227400Y-38265100D02*
G75*
G03*
X92481400Y-38011100I0J254000D01*
G01*
X126771400Y-38011100D02*
X92481400Y-38011100D01*
X126771400Y-60871100D02*
X126771400Y-38011100D01*
X124866400Y-60871100D02*
X126771400Y-60871100D01*
X124866400Y-60871100D02*
G75*
G03*
X121056400Y-64681100I0J-3810000D01*
G01*
X121056400Y-64681100D02*
G75*
G03*
X124866400Y-68491100I3810000J0D01*
G01*
X126771400Y-68491100D02*
X124866400Y-68491100D01*
X126771400Y-91351100D02*
X126771400Y-68491100D01*
X92481400Y-91351100D02*
X126771400Y-91351100D01*
X92481400Y-91351100D02*
G75*
G03*
X92227400Y-91097100I-254000J0D01*
G01*
X83591400Y-91097100D02*
X92227400Y-91097100D01*
X83591400Y-91097100D02*
G75*
G02*
X82321400Y-89827100I0J1270000D01*
G01*
X82321400Y-39535100D02*
X82321400Y-89827100D01*
X82321400Y-39535100D02*
G75*
G02*
X83591400Y-38265100I1270000J0D01*
G01*
X92227400Y-38265100D02*
X83591400Y-38265100D01*
%TD*%
M02*
