%TF.GenerationSoftware,KiCad,Pcbnew,(5.1.10)-1*%
%TF.CreationDate,2022-10-07T13:26:38-03:00*%
%TF.ProjectId,CoCoEPROMpak,436f436f-4550-4524-9f4d-70616b2e6b69,rev?*%
%TF.SameCoordinates,Original*%
%TF.FileFunction,Legend,Top*%
%TF.FilePolarity,Positive*%
%FSLAX46Y46*%
G04 Gerber Fmt 4.6, Leading zero omitted, Abs format (unit mm)*
G04 Created by KiCad (PCBNEW (5.1.10)-1) date 2022-10-07 13:26:38*
%MOMM*%
%LPD*%
G01*
G04 APERTURE LIST*
%ADD10C,0.101600*%
%ADD11C,0.304800*%
%ADD12C,0.152400*%
%ADD13C,0.127000*%
%ADD14C,0.120650*%
%ADD15C,0.096520*%
G04 APERTURE END LIST*
D10*
X138116733Y-85645050D02*
X138116733Y-85070526D01*
X138461447Y-85759955D02*
X137254947Y-85357788D01*
X138461447Y-84955621D01*
X138461447Y-83921479D02*
X138461447Y-84610907D01*
X138461447Y-84266193D02*
X137254947Y-84266193D01*
X137427304Y-84381098D01*
X137542209Y-84496002D01*
X137599661Y-84610907D01*
X137254947Y-82829883D02*
X137254947Y-83404407D01*
X137829471Y-83461860D01*
X137772019Y-83404407D01*
X137714566Y-83289502D01*
X137714566Y-83002240D01*
X137772019Y-82887336D01*
X137829471Y-82829883D01*
X137944376Y-82772431D01*
X138231638Y-82772431D01*
X138346542Y-82829883D01*
X138403995Y-82887336D01*
X138461447Y-83002240D01*
X138461447Y-83289502D01*
X138403995Y-83404407D01*
X138346542Y-83461860D01*
X137197495Y-81393574D02*
X138748709Y-82427717D01*
X137254947Y-81163764D02*
X138461447Y-80761598D01*
X137254947Y-80359431D01*
X138461447Y-79957264D02*
X137254947Y-79957264D01*
X137254947Y-79497645D01*
X137312400Y-79382740D01*
X137369852Y-79325288D01*
X137484757Y-79267836D01*
X137657114Y-79267836D01*
X137772019Y-79325288D01*
X137829471Y-79382740D01*
X137886923Y-79497645D01*
X137886923Y-79957264D01*
X138461447Y-78750764D02*
X137254947Y-78750764D01*
X137254947Y-78291145D01*
X137312400Y-78176240D01*
X137369852Y-78118788D01*
X137484757Y-78061336D01*
X137657114Y-78061336D01*
X137772019Y-78118788D01*
X137829471Y-78176240D01*
X137886923Y-78291145D01*
X137886923Y-78750764D01*
X138346542Y-77544264D02*
X138403995Y-77486812D01*
X138461447Y-77544264D01*
X138403995Y-77601717D01*
X138346542Y-77544264D01*
X138461447Y-77544264D01*
X137714566Y-77544264D02*
X137772019Y-77486812D01*
X137829471Y-77544264D01*
X137772019Y-77601717D01*
X137714566Y-77544264D01*
X137829471Y-77544264D01*
X140372797Y-84955621D02*
X140372797Y-85645050D01*
X140372797Y-85300336D02*
X139166297Y-85300336D01*
X139338654Y-85415240D01*
X139453559Y-85530145D01*
X139511011Y-85645050D01*
X141077647Y-85357788D02*
X141077647Y-85242883D01*
X141135100Y-85127979D01*
X141192552Y-85070526D01*
X141307457Y-85013074D01*
X141537266Y-84955621D01*
X141824528Y-84955621D01*
X142054338Y-85013074D01*
X142169242Y-85070526D01*
X142226695Y-85127979D01*
X142284147Y-85242883D01*
X142284147Y-85357788D01*
X142226695Y-85472693D01*
X142169242Y-85530145D01*
X142054338Y-85587598D01*
X141824528Y-85645050D01*
X141537266Y-85645050D01*
X141307457Y-85587598D01*
X141192552Y-85530145D01*
X141135100Y-85472693D01*
X141077647Y-85357788D01*
X129861733Y-85772050D02*
X129861733Y-85197526D01*
X130206447Y-85886955D02*
X128999947Y-85484788D01*
X130206447Y-85082621D01*
X130206447Y-84048479D02*
X130206447Y-84737907D01*
X130206447Y-84393193D02*
X128999947Y-84393193D01*
X129172304Y-84508098D01*
X129287209Y-84623002D01*
X129344661Y-84737907D01*
X129402114Y-83014336D02*
X130206447Y-83014336D01*
X128942495Y-83301598D02*
X129804280Y-83588860D01*
X129804280Y-82841979D01*
X128942495Y-81520574D02*
X130493709Y-82554717D01*
X130091542Y-81118407D02*
X130148995Y-81060955D01*
X130206447Y-81118407D01*
X130148995Y-81175860D01*
X130091542Y-81118407D01*
X130206447Y-81118407D01*
X129746828Y-81118407D02*
X129057400Y-81175860D01*
X128999947Y-81118407D01*
X129057400Y-81060955D01*
X129746828Y-81118407D01*
X128999947Y-81118407D01*
X130206447Y-80543883D02*
X128999947Y-80543883D01*
X128999947Y-80084264D01*
X129057400Y-79969360D01*
X129114852Y-79911907D01*
X129229757Y-79854455D01*
X129402114Y-79854455D01*
X129517019Y-79911907D01*
X129574471Y-79969360D01*
X129631923Y-80084264D01*
X129631923Y-80543883D01*
X129057400Y-78705407D02*
X128999947Y-78820312D01*
X128999947Y-78992669D01*
X129057400Y-79165026D01*
X129172304Y-79279931D01*
X129287209Y-79337383D01*
X129517019Y-79394836D01*
X129689376Y-79394836D01*
X129919185Y-79337383D01*
X130034090Y-79279931D01*
X130148995Y-79165026D01*
X130206447Y-78992669D01*
X130206447Y-78877764D01*
X130148995Y-78705407D01*
X130091542Y-78647955D01*
X129689376Y-78647955D01*
X129689376Y-78877764D01*
X130206447Y-78130883D02*
X128999947Y-78130883D01*
X129861733Y-77728717D01*
X128999947Y-77326550D01*
X130206447Y-77326550D01*
X130091542Y-76752026D02*
X130148995Y-76694574D01*
X130206447Y-76752026D01*
X130148995Y-76809479D01*
X130091542Y-76752026D01*
X130206447Y-76752026D01*
X129746828Y-76752026D02*
X129057400Y-76809479D01*
X128999947Y-76752026D01*
X129057400Y-76694574D01*
X129746828Y-76752026D01*
X128999947Y-76752026D01*
X130091542Y-76177502D02*
X130148995Y-76120050D01*
X130206447Y-76177502D01*
X130148995Y-76234955D01*
X130091542Y-76177502D01*
X130206447Y-76177502D01*
X129459566Y-76177502D02*
X129517019Y-76120050D01*
X129574471Y-76177502D01*
X129517019Y-76234955D01*
X129459566Y-76177502D01*
X129574471Y-76177502D01*
X132117797Y-85082621D02*
X132117797Y-85772050D01*
X132117797Y-85427336D02*
X130911297Y-85427336D01*
X131083654Y-85542240D01*
X131198559Y-85657145D01*
X131256011Y-85772050D01*
X132822647Y-85484788D02*
X132822647Y-85369883D01*
X132880100Y-85254979D01*
X132937552Y-85197526D01*
X133052457Y-85140074D01*
X133282266Y-85082621D01*
X133569528Y-85082621D01*
X133799338Y-85140074D01*
X133914242Y-85197526D01*
X133971695Y-85254979D01*
X134029147Y-85369883D01*
X134029147Y-85484788D01*
X133971695Y-85599693D01*
X133914242Y-85657145D01*
X133799338Y-85714598D01*
X133569528Y-85772050D01*
X133282266Y-85772050D01*
X133052457Y-85714598D01*
X132937552Y-85657145D01*
X132880100Y-85599693D01*
X132822647Y-85484788D01*
X159211433Y-81708050D02*
X159211433Y-81133526D01*
X159556147Y-81822955D02*
X158349647Y-81420788D01*
X159556147Y-81018621D01*
X158349647Y-80616455D02*
X159326338Y-80616455D01*
X159441242Y-80559002D01*
X159498695Y-80501550D01*
X159556147Y-80386645D01*
X159556147Y-80156836D01*
X159498695Y-80041931D01*
X159441242Y-79984479D01*
X159326338Y-79927026D01*
X158349647Y-79927026D01*
X158349647Y-79524860D02*
X158349647Y-78835431D01*
X159556147Y-79180145D02*
X158349647Y-79180145D01*
X158349647Y-78203455D02*
X158349647Y-77973645D01*
X158407100Y-77858740D01*
X158522004Y-77743836D01*
X158751814Y-77686383D01*
X159153980Y-77686383D01*
X159383790Y-77743836D01*
X159498695Y-77858740D01*
X159556147Y-77973645D01*
X159556147Y-78203455D01*
X159498695Y-78318360D01*
X159383790Y-78433264D01*
X159153980Y-78490717D01*
X158751814Y-78490717D01*
X158522004Y-78433264D01*
X158407100Y-78318360D01*
X158349647Y-78203455D01*
X159498695Y-77226764D02*
X159556147Y-77054407D01*
X159556147Y-76767145D01*
X159498695Y-76652240D01*
X159441242Y-76594788D01*
X159326338Y-76537336D01*
X159211433Y-76537336D01*
X159096528Y-76594788D01*
X159039076Y-76652240D01*
X158981623Y-76767145D01*
X158924171Y-76996955D01*
X158866719Y-77111860D01*
X158809266Y-77169312D01*
X158694361Y-77226764D01*
X158579457Y-77226764D01*
X158464552Y-77169312D01*
X158407100Y-77111860D01*
X158349647Y-76996955D01*
X158349647Y-76709693D01*
X158407100Y-76537336D01*
X158349647Y-76192621D02*
X158349647Y-75503193D01*
X159556147Y-75847907D02*
X158349647Y-75847907D01*
X159211433Y-75158479D02*
X159211433Y-74583955D01*
X159556147Y-75273383D02*
X158349647Y-74871217D01*
X159556147Y-74469050D01*
X159556147Y-73377455D02*
X158981623Y-73779621D01*
X159556147Y-74066883D02*
X158349647Y-74066883D01*
X158349647Y-73607264D01*
X158407100Y-73492360D01*
X158464552Y-73434907D01*
X158579457Y-73377455D01*
X158751814Y-73377455D01*
X158866719Y-73434907D01*
X158924171Y-73492360D01*
X158981623Y-73607264D01*
X158981623Y-74066883D01*
X158349647Y-73032740D02*
X158349647Y-72343312D01*
X159556147Y-72688026D02*
X158349647Y-72688026D01*
X138116733Y-140255050D02*
X138116733Y-139680526D01*
X138461447Y-140369955D02*
X137254947Y-139967788D01*
X138461447Y-139565621D01*
X138461447Y-138531479D02*
X138461447Y-139220907D01*
X138461447Y-138876193D02*
X137254947Y-138876193D01*
X137427304Y-138991098D01*
X137542209Y-139106002D01*
X137599661Y-139220907D01*
X137254947Y-137439883D02*
X137254947Y-138014407D01*
X137829471Y-138071860D01*
X137772019Y-138014407D01*
X137714566Y-137899502D01*
X137714566Y-137612240D01*
X137772019Y-137497336D01*
X137829471Y-137439883D01*
X137944376Y-137382431D01*
X138231638Y-137382431D01*
X138346542Y-137439883D01*
X138403995Y-137497336D01*
X138461447Y-137612240D01*
X138461447Y-137899502D01*
X138403995Y-138014407D01*
X138346542Y-138071860D01*
X137197495Y-136003574D02*
X138748709Y-137037717D01*
X137254947Y-135773764D02*
X138461447Y-135371598D01*
X137254947Y-134969431D01*
X138461447Y-134567264D02*
X137254947Y-134567264D01*
X137254947Y-134107645D01*
X137312400Y-133992740D01*
X137369852Y-133935288D01*
X137484757Y-133877836D01*
X137657114Y-133877836D01*
X137772019Y-133935288D01*
X137829471Y-133992740D01*
X137886923Y-134107645D01*
X137886923Y-134567264D01*
X138461447Y-133360764D02*
X137254947Y-133360764D01*
X137254947Y-132901145D01*
X137312400Y-132786240D01*
X137369852Y-132728788D01*
X137484757Y-132671336D01*
X137657114Y-132671336D01*
X137772019Y-132728788D01*
X137829471Y-132786240D01*
X137886923Y-132901145D01*
X137886923Y-133360764D01*
X138346542Y-132154264D02*
X138403995Y-132096812D01*
X138461447Y-132154264D01*
X138403995Y-132211717D01*
X138346542Y-132154264D01*
X138461447Y-132154264D01*
X137714566Y-132154264D02*
X137772019Y-132096812D01*
X137829471Y-132154264D01*
X137772019Y-132211717D01*
X137714566Y-132154264D01*
X137829471Y-132154264D01*
X140372797Y-139565621D02*
X140372797Y-140255050D01*
X140372797Y-139910336D02*
X139166297Y-139910336D01*
X139338654Y-140025240D01*
X139453559Y-140140145D01*
X139511011Y-140255050D01*
X141077647Y-139967788D02*
X141077647Y-139852883D01*
X141135100Y-139737979D01*
X141192552Y-139680526D01*
X141307457Y-139623074D01*
X141537266Y-139565621D01*
X141824528Y-139565621D01*
X142054338Y-139623074D01*
X142169242Y-139680526D01*
X142226695Y-139737979D01*
X142284147Y-139852883D01*
X142284147Y-139967788D01*
X142226695Y-140082693D01*
X142169242Y-140140145D01*
X142054338Y-140197598D01*
X141824528Y-140255050D01*
X141537266Y-140255050D01*
X141307457Y-140197598D01*
X141192552Y-140140145D01*
X141135100Y-140082693D01*
X141077647Y-139967788D01*
X159211433Y-136318050D02*
X159211433Y-135743526D01*
X159556147Y-136432955D02*
X158349647Y-136030788D01*
X159556147Y-135628621D01*
X158349647Y-135226455D02*
X159326338Y-135226455D01*
X159441242Y-135169002D01*
X159498695Y-135111550D01*
X159556147Y-134996645D01*
X159556147Y-134766836D01*
X159498695Y-134651931D01*
X159441242Y-134594479D01*
X159326338Y-134537026D01*
X158349647Y-134537026D01*
X158349647Y-134134860D02*
X158349647Y-133445431D01*
X159556147Y-133790145D02*
X158349647Y-133790145D01*
X158349647Y-132813455D02*
X158349647Y-132583645D01*
X158407100Y-132468740D01*
X158522004Y-132353836D01*
X158751814Y-132296383D01*
X159153980Y-132296383D01*
X159383790Y-132353836D01*
X159498695Y-132468740D01*
X159556147Y-132583645D01*
X159556147Y-132813455D01*
X159498695Y-132928360D01*
X159383790Y-133043264D01*
X159153980Y-133100717D01*
X158751814Y-133100717D01*
X158522004Y-133043264D01*
X158407100Y-132928360D01*
X158349647Y-132813455D01*
X159498695Y-131836764D02*
X159556147Y-131664407D01*
X159556147Y-131377145D01*
X159498695Y-131262240D01*
X159441242Y-131204788D01*
X159326338Y-131147336D01*
X159211433Y-131147336D01*
X159096528Y-131204788D01*
X159039076Y-131262240D01*
X158981623Y-131377145D01*
X158924171Y-131606955D01*
X158866719Y-131721860D01*
X158809266Y-131779312D01*
X158694361Y-131836764D01*
X158579457Y-131836764D01*
X158464552Y-131779312D01*
X158407100Y-131721860D01*
X158349647Y-131606955D01*
X158349647Y-131319693D01*
X158407100Y-131147336D01*
X158349647Y-130802621D02*
X158349647Y-130113193D01*
X159556147Y-130457907D02*
X158349647Y-130457907D01*
X159211433Y-129768479D02*
X159211433Y-129193955D01*
X159556147Y-129883383D02*
X158349647Y-129481217D01*
X159556147Y-129079050D01*
X159556147Y-127987455D02*
X158981623Y-128389621D01*
X159556147Y-128676883D02*
X158349647Y-128676883D01*
X158349647Y-128217264D01*
X158407100Y-128102360D01*
X158464552Y-128044907D01*
X158579457Y-127987455D01*
X158751814Y-127987455D01*
X158866719Y-128044907D01*
X158924171Y-128102360D01*
X158981623Y-128217264D01*
X158981623Y-128676883D01*
X158349647Y-127642740D02*
X158349647Y-126953312D01*
X159556147Y-127298026D02*
X158349647Y-127298026D01*
X129861733Y-140382050D02*
X129861733Y-139807526D01*
X130206447Y-140496955D02*
X128999947Y-140094788D01*
X130206447Y-139692621D01*
X130206447Y-138658479D02*
X130206447Y-139347907D01*
X130206447Y-139003193D02*
X128999947Y-139003193D01*
X129172304Y-139118098D01*
X129287209Y-139233002D01*
X129344661Y-139347907D01*
X129402114Y-137624336D02*
X130206447Y-137624336D01*
X128942495Y-137911598D02*
X129804280Y-138198860D01*
X129804280Y-137451979D01*
X128942495Y-136130574D02*
X130493709Y-137164717D01*
X130091542Y-135728407D02*
X130148995Y-135670955D01*
X130206447Y-135728407D01*
X130148995Y-135785860D01*
X130091542Y-135728407D01*
X130206447Y-135728407D01*
X129746828Y-135728407D02*
X129057400Y-135785860D01*
X128999947Y-135728407D01*
X129057400Y-135670955D01*
X129746828Y-135728407D01*
X128999947Y-135728407D01*
X130206447Y-135153883D02*
X128999947Y-135153883D01*
X128999947Y-134694264D01*
X129057400Y-134579360D01*
X129114852Y-134521907D01*
X129229757Y-134464455D01*
X129402114Y-134464455D01*
X129517019Y-134521907D01*
X129574471Y-134579360D01*
X129631923Y-134694264D01*
X129631923Y-135153883D01*
X129057400Y-133315407D02*
X128999947Y-133430312D01*
X128999947Y-133602669D01*
X129057400Y-133775026D01*
X129172304Y-133889931D01*
X129287209Y-133947383D01*
X129517019Y-134004836D01*
X129689376Y-134004836D01*
X129919185Y-133947383D01*
X130034090Y-133889931D01*
X130148995Y-133775026D01*
X130206447Y-133602669D01*
X130206447Y-133487764D01*
X130148995Y-133315407D01*
X130091542Y-133257955D01*
X129689376Y-133257955D01*
X129689376Y-133487764D01*
X130206447Y-132740883D02*
X128999947Y-132740883D01*
X129861733Y-132338717D01*
X128999947Y-131936550D01*
X130206447Y-131936550D01*
X130091542Y-131362026D02*
X130148995Y-131304574D01*
X130206447Y-131362026D01*
X130148995Y-131419479D01*
X130091542Y-131362026D01*
X130206447Y-131362026D01*
X129746828Y-131362026D02*
X129057400Y-131419479D01*
X128999947Y-131362026D01*
X129057400Y-131304574D01*
X129746828Y-131362026D01*
X128999947Y-131362026D01*
X130091542Y-130787502D02*
X130148995Y-130730050D01*
X130206447Y-130787502D01*
X130148995Y-130844955D01*
X130091542Y-130787502D01*
X130206447Y-130787502D01*
X129459566Y-130787502D02*
X129517019Y-130730050D01*
X129574471Y-130787502D01*
X129517019Y-130844955D01*
X129459566Y-130787502D01*
X129574471Y-130787502D01*
X132117797Y-139692621D02*
X132117797Y-140382050D01*
X132117797Y-140037336D02*
X130911297Y-140037336D01*
X131083654Y-140152240D01*
X131198559Y-140267145D01*
X131256011Y-140382050D01*
X132822647Y-140094788D02*
X132822647Y-139979883D01*
X132880100Y-139864979D01*
X132937552Y-139807526D01*
X133052457Y-139750074D01*
X133282266Y-139692621D01*
X133569528Y-139692621D01*
X133799338Y-139750074D01*
X133914242Y-139807526D01*
X133971695Y-139864979D01*
X134029147Y-139979883D01*
X134029147Y-140094788D01*
X133971695Y-140209693D01*
X133914242Y-140267145D01*
X133799338Y-140324598D01*
X133569528Y-140382050D01*
X133282266Y-140382050D01*
X133052457Y-140324598D01*
X132937552Y-140267145D01*
X132880100Y-140209693D01*
X132822647Y-140094788D01*
X115883266Y-98504949D02*
X115883266Y-99079473D01*
X115538552Y-98390044D02*
X116745052Y-98792211D01*
X115538552Y-99194378D01*
X115538552Y-100228520D02*
X115538552Y-99539092D01*
X115538552Y-99883806D02*
X116745052Y-99883806D01*
X116572695Y-99768901D01*
X116457790Y-99653997D01*
X116400338Y-99539092D01*
X116745052Y-101320116D02*
X116745052Y-100745592D01*
X116170528Y-100688140D01*
X116227980Y-100745592D01*
X116285433Y-100860497D01*
X116285433Y-101147759D01*
X116227980Y-101262663D01*
X116170528Y-101320116D01*
X116055623Y-101377568D01*
X115768361Y-101377568D01*
X115653457Y-101320116D01*
X115596004Y-101262663D01*
X115538552Y-101147759D01*
X115538552Y-100860497D01*
X115596004Y-100745592D01*
X115653457Y-100688140D01*
X116802504Y-102756425D02*
X115251290Y-101722282D01*
X116745052Y-102986235D02*
X115538552Y-103388401D01*
X116745052Y-103790568D01*
X115538552Y-104192735D02*
X116745052Y-104192735D01*
X116745052Y-104652354D01*
X116687600Y-104767259D01*
X116630147Y-104824711D01*
X116515242Y-104882163D01*
X116342885Y-104882163D01*
X116227980Y-104824711D01*
X116170528Y-104767259D01*
X116113076Y-104652354D01*
X116113076Y-104192735D01*
X115538552Y-105399235D02*
X116745052Y-105399235D01*
X116745052Y-105858854D01*
X116687600Y-105973759D01*
X116630147Y-106031211D01*
X116515242Y-106088663D01*
X116342885Y-106088663D01*
X116227980Y-106031211D01*
X116170528Y-105973759D01*
X116113076Y-105858854D01*
X116113076Y-105399235D01*
X115653457Y-106605735D02*
X115596004Y-106663187D01*
X115538552Y-106605735D01*
X115596004Y-106548282D01*
X115653457Y-106605735D01*
X115538552Y-106605735D01*
X116285433Y-106605735D02*
X116227980Y-106663187D01*
X116170528Y-106605735D01*
X116227980Y-106548282D01*
X116285433Y-106605735D01*
X116170528Y-106605735D01*
X113627202Y-99194378D02*
X113627202Y-98504949D01*
X113627202Y-98849663D02*
X114833702Y-98849663D01*
X114661345Y-98734759D01*
X114546440Y-98619854D01*
X114488988Y-98504949D01*
X112922352Y-98792211D02*
X112922352Y-98907116D01*
X112864900Y-99022020D01*
X112807447Y-99079473D01*
X112692542Y-99136925D01*
X112462733Y-99194378D01*
X112175471Y-99194378D01*
X111945661Y-99136925D01*
X111830757Y-99079473D01*
X111773304Y-99022020D01*
X111715852Y-98907116D01*
X111715852Y-98792211D01*
X111773304Y-98677306D01*
X111830757Y-98619854D01*
X111945661Y-98562401D01*
X112175471Y-98504949D01*
X112462733Y-98504949D01*
X112692542Y-98562401D01*
X112807447Y-98619854D01*
X112864900Y-98677306D01*
X112922352Y-98792211D01*
X94788566Y-102441949D02*
X94788566Y-103016473D01*
X94443852Y-102327044D02*
X95650352Y-102729211D01*
X94443852Y-103131378D01*
X95650352Y-103533544D02*
X94673661Y-103533544D01*
X94558757Y-103590997D01*
X94501304Y-103648449D01*
X94443852Y-103763354D01*
X94443852Y-103993163D01*
X94501304Y-104108068D01*
X94558757Y-104165520D01*
X94673661Y-104222973D01*
X95650352Y-104222973D01*
X95650352Y-104625140D02*
X95650352Y-105314568D01*
X94443852Y-104969854D02*
X95650352Y-104969854D01*
X95650352Y-105946544D02*
X95650352Y-106176354D01*
X95592900Y-106291259D01*
X95477995Y-106406163D01*
X95248185Y-106463616D01*
X94846019Y-106463616D01*
X94616209Y-106406163D01*
X94501304Y-106291259D01*
X94443852Y-106176354D01*
X94443852Y-105946544D01*
X94501304Y-105831640D01*
X94616209Y-105716735D01*
X94846019Y-105659282D01*
X95248185Y-105659282D01*
X95477995Y-105716735D01*
X95592900Y-105831640D01*
X95650352Y-105946544D01*
X94501304Y-106923235D02*
X94443852Y-107095592D01*
X94443852Y-107382854D01*
X94501304Y-107497759D01*
X94558757Y-107555211D01*
X94673661Y-107612663D01*
X94788566Y-107612663D01*
X94903471Y-107555211D01*
X94960923Y-107497759D01*
X95018376Y-107382854D01*
X95075828Y-107153044D01*
X95133280Y-107038140D01*
X95190733Y-106980687D01*
X95305638Y-106923235D01*
X95420542Y-106923235D01*
X95535447Y-106980687D01*
X95592900Y-107038140D01*
X95650352Y-107153044D01*
X95650352Y-107440306D01*
X95592900Y-107612663D01*
X95650352Y-107957378D02*
X95650352Y-108646806D01*
X94443852Y-108302092D02*
X95650352Y-108302092D01*
X94788566Y-108991520D02*
X94788566Y-109566044D01*
X94443852Y-108876616D02*
X95650352Y-109278782D01*
X94443852Y-109680949D01*
X94443852Y-110772544D02*
X95018376Y-110370378D01*
X94443852Y-110083116D02*
X95650352Y-110083116D01*
X95650352Y-110542735D01*
X95592900Y-110657640D01*
X95535447Y-110715092D01*
X95420542Y-110772544D01*
X95248185Y-110772544D01*
X95133280Y-110715092D01*
X95075828Y-110657640D01*
X95018376Y-110542735D01*
X95018376Y-110083116D01*
X95650352Y-111117259D02*
X95650352Y-111806687D01*
X94443852Y-111461973D02*
X95650352Y-111461973D01*
X124138266Y-98377949D02*
X124138266Y-98952473D01*
X123793552Y-98263044D02*
X125000052Y-98665211D01*
X123793552Y-99067378D01*
X123793552Y-100101520D02*
X123793552Y-99412092D01*
X123793552Y-99756806D02*
X125000052Y-99756806D01*
X124827695Y-99641901D01*
X124712790Y-99526997D01*
X124655338Y-99412092D01*
X124597885Y-101135663D02*
X123793552Y-101135663D01*
X125057504Y-100848401D02*
X124195719Y-100561140D01*
X124195719Y-101308020D01*
X125057504Y-102629425D02*
X123506290Y-101595282D01*
X123908457Y-103031592D02*
X123851004Y-103089044D01*
X123793552Y-103031592D01*
X123851004Y-102974140D01*
X123908457Y-103031592D01*
X123793552Y-103031592D01*
X124253171Y-103031592D02*
X124942600Y-102974140D01*
X125000052Y-103031592D01*
X124942600Y-103089044D01*
X124253171Y-103031592D01*
X125000052Y-103031592D01*
X123793552Y-103606116D02*
X125000052Y-103606116D01*
X125000052Y-104065735D01*
X124942600Y-104180640D01*
X124885147Y-104238092D01*
X124770242Y-104295544D01*
X124597885Y-104295544D01*
X124482980Y-104238092D01*
X124425528Y-104180640D01*
X124368076Y-104065735D01*
X124368076Y-103606116D01*
X124942600Y-105444592D02*
X125000052Y-105329687D01*
X125000052Y-105157330D01*
X124942600Y-104984973D01*
X124827695Y-104870068D01*
X124712790Y-104812616D01*
X124482980Y-104755163D01*
X124310623Y-104755163D01*
X124080814Y-104812616D01*
X123965909Y-104870068D01*
X123851004Y-104984973D01*
X123793552Y-105157330D01*
X123793552Y-105272235D01*
X123851004Y-105444592D01*
X123908457Y-105502044D01*
X124310623Y-105502044D01*
X124310623Y-105272235D01*
X123793552Y-106019116D02*
X125000052Y-106019116D01*
X124138266Y-106421282D01*
X125000052Y-106823449D01*
X123793552Y-106823449D01*
X123908457Y-107397973D02*
X123851004Y-107455425D01*
X123793552Y-107397973D01*
X123851004Y-107340520D01*
X123908457Y-107397973D01*
X123793552Y-107397973D01*
X124253171Y-107397973D02*
X124942600Y-107340520D01*
X125000052Y-107397973D01*
X124942600Y-107455425D01*
X124253171Y-107397973D01*
X125000052Y-107397973D01*
X123908457Y-107972497D02*
X123851004Y-108029949D01*
X123793552Y-107972497D01*
X123851004Y-107915044D01*
X123908457Y-107972497D01*
X123793552Y-107972497D01*
X124540433Y-107972497D02*
X124482980Y-108029949D01*
X124425528Y-107972497D01*
X124482980Y-107915044D01*
X124540433Y-107972497D01*
X124425528Y-107972497D01*
X121882202Y-99067378D02*
X121882202Y-98377949D01*
X121882202Y-98722663D02*
X123088702Y-98722663D01*
X122916345Y-98607759D01*
X122801440Y-98492854D01*
X122743988Y-98377949D01*
X121177352Y-98665211D02*
X121177352Y-98780116D01*
X121119900Y-98895020D01*
X121062447Y-98952473D01*
X120947542Y-99009925D01*
X120717733Y-99067378D01*
X120430471Y-99067378D01*
X120200661Y-99009925D01*
X120085757Y-98952473D01*
X120028304Y-98895020D01*
X119970852Y-98780116D01*
X119970852Y-98665211D01*
X120028304Y-98550306D01*
X120085757Y-98492854D01*
X120200661Y-98435401D01*
X120430471Y-98377949D01*
X120717733Y-98377949D01*
X120947542Y-98435401D01*
X121062447Y-98492854D01*
X121119900Y-98550306D01*
X121177352Y-98665211D01*
X115883266Y-43894949D02*
X115883266Y-44469473D01*
X115538552Y-43780044D02*
X116745052Y-44182211D01*
X115538552Y-44584378D01*
X115538552Y-45618520D02*
X115538552Y-44929092D01*
X115538552Y-45273806D02*
X116745052Y-45273806D01*
X116572695Y-45158901D01*
X116457790Y-45043997D01*
X116400338Y-44929092D01*
X116745052Y-46710116D02*
X116745052Y-46135592D01*
X116170528Y-46078140D01*
X116227980Y-46135592D01*
X116285433Y-46250497D01*
X116285433Y-46537759D01*
X116227980Y-46652663D01*
X116170528Y-46710116D01*
X116055623Y-46767568D01*
X115768361Y-46767568D01*
X115653457Y-46710116D01*
X115596004Y-46652663D01*
X115538552Y-46537759D01*
X115538552Y-46250497D01*
X115596004Y-46135592D01*
X115653457Y-46078140D01*
X116802504Y-48146425D02*
X115251290Y-47112282D01*
X116745052Y-48376235D02*
X115538552Y-48778401D01*
X116745052Y-49180568D01*
X115538552Y-49582735D02*
X116745052Y-49582735D01*
X116745052Y-50042354D01*
X116687600Y-50157259D01*
X116630147Y-50214711D01*
X116515242Y-50272163D01*
X116342885Y-50272163D01*
X116227980Y-50214711D01*
X116170528Y-50157259D01*
X116113076Y-50042354D01*
X116113076Y-49582735D01*
X115538552Y-50789235D02*
X116745052Y-50789235D01*
X116745052Y-51248854D01*
X116687600Y-51363759D01*
X116630147Y-51421211D01*
X116515242Y-51478663D01*
X116342885Y-51478663D01*
X116227980Y-51421211D01*
X116170528Y-51363759D01*
X116113076Y-51248854D01*
X116113076Y-50789235D01*
X115653457Y-51995735D02*
X115596004Y-52053187D01*
X115538552Y-51995735D01*
X115596004Y-51938282D01*
X115653457Y-51995735D01*
X115538552Y-51995735D01*
X116285433Y-51995735D02*
X116227980Y-52053187D01*
X116170528Y-51995735D01*
X116227980Y-51938282D01*
X116285433Y-51995735D01*
X116170528Y-51995735D01*
X113627202Y-44584378D02*
X113627202Y-43894949D01*
X113627202Y-44239663D02*
X114833702Y-44239663D01*
X114661345Y-44124759D01*
X114546440Y-44009854D01*
X114488988Y-43894949D01*
X112922352Y-44182211D02*
X112922352Y-44297116D01*
X112864900Y-44412020D01*
X112807447Y-44469473D01*
X112692542Y-44526925D01*
X112462733Y-44584378D01*
X112175471Y-44584378D01*
X111945661Y-44526925D01*
X111830757Y-44469473D01*
X111773304Y-44412020D01*
X111715852Y-44297116D01*
X111715852Y-44182211D01*
X111773304Y-44067306D01*
X111830757Y-44009854D01*
X111945661Y-43952401D01*
X112175471Y-43894949D01*
X112462733Y-43894949D01*
X112692542Y-43952401D01*
X112807447Y-44009854D01*
X112864900Y-44067306D01*
X112922352Y-44182211D01*
X124138266Y-43767949D02*
X124138266Y-44342473D01*
X123793552Y-43653044D02*
X125000052Y-44055211D01*
X123793552Y-44457378D01*
X123793552Y-45491520D02*
X123793552Y-44802092D01*
X123793552Y-45146806D02*
X125000052Y-45146806D01*
X124827695Y-45031901D01*
X124712790Y-44916997D01*
X124655338Y-44802092D01*
X124597885Y-46525663D02*
X123793552Y-46525663D01*
X125057504Y-46238401D02*
X124195719Y-45951140D01*
X124195719Y-46698020D01*
X125057504Y-48019425D02*
X123506290Y-46985282D01*
X123908457Y-48421592D02*
X123851004Y-48479044D01*
X123793552Y-48421592D01*
X123851004Y-48364140D01*
X123908457Y-48421592D01*
X123793552Y-48421592D01*
X124253171Y-48421592D02*
X124942600Y-48364140D01*
X125000052Y-48421592D01*
X124942600Y-48479044D01*
X124253171Y-48421592D01*
X125000052Y-48421592D01*
X123793552Y-48996116D02*
X125000052Y-48996116D01*
X125000052Y-49455735D01*
X124942600Y-49570640D01*
X124885147Y-49628092D01*
X124770242Y-49685544D01*
X124597885Y-49685544D01*
X124482980Y-49628092D01*
X124425528Y-49570640D01*
X124368076Y-49455735D01*
X124368076Y-48996116D01*
X124942600Y-50834592D02*
X125000052Y-50719687D01*
X125000052Y-50547330D01*
X124942600Y-50374973D01*
X124827695Y-50260068D01*
X124712790Y-50202616D01*
X124482980Y-50145163D01*
X124310623Y-50145163D01*
X124080814Y-50202616D01*
X123965909Y-50260068D01*
X123851004Y-50374973D01*
X123793552Y-50547330D01*
X123793552Y-50662235D01*
X123851004Y-50834592D01*
X123908457Y-50892044D01*
X124310623Y-50892044D01*
X124310623Y-50662235D01*
X123793552Y-51409116D02*
X125000052Y-51409116D01*
X124138266Y-51811282D01*
X125000052Y-52213449D01*
X123793552Y-52213449D01*
X123908457Y-52787973D02*
X123851004Y-52845425D01*
X123793552Y-52787973D01*
X123851004Y-52730520D01*
X123908457Y-52787973D01*
X123793552Y-52787973D01*
X124253171Y-52787973D02*
X124942600Y-52730520D01*
X125000052Y-52787973D01*
X124942600Y-52845425D01*
X124253171Y-52787973D01*
X125000052Y-52787973D01*
X123908457Y-53362497D02*
X123851004Y-53419949D01*
X123793552Y-53362497D01*
X123851004Y-53305044D01*
X123908457Y-53362497D01*
X123793552Y-53362497D01*
X124540433Y-53362497D02*
X124482980Y-53419949D01*
X124425528Y-53362497D01*
X124482980Y-53305044D01*
X124540433Y-53362497D01*
X124425528Y-53362497D01*
X121882202Y-44457378D02*
X121882202Y-43767949D01*
X121882202Y-44112663D02*
X123088702Y-44112663D01*
X122916345Y-43997759D01*
X122801440Y-43882854D01*
X122743988Y-43767949D01*
X121177352Y-44055211D02*
X121177352Y-44170116D01*
X121119900Y-44285020D01*
X121062447Y-44342473D01*
X120947542Y-44399925D01*
X120717733Y-44457378D01*
X120430471Y-44457378D01*
X120200661Y-44399925D01*
X120085757Y-44342473D01*
X120028304Y-44285020D01*
X119970852Y-44170116D01*
X119970852Y-44055211D01*
X120028304Y-43940306D01*
X120085757Y-43882854D01*
X120200661Y-43825401D01*
X120430471Y-43767949D01*
X120717733Y-43767949D01*
X120947542Y-43825401D01*
X121062447Y-43882854D01*
X121119900Y-43940306D01*
X121177352Y-44055211D01*
X94788566Y-47831949D02*
X94788566Y-48406473D01*
X94443852Y-47717044D02*
X95650352Y-48119211D01*
X94443852Y-48521378D01*
X95650352Y-48923544D02*
X94673661Y-48923544D01*
X94558757Y-48980997D01*
X94501304Y-49038449D01*
X94443852Y-49153354D01*
X94443852Y-49383163D01*
X94501304Y-49498068D01*
X94558757Y-49555520D01*
X94673661Y-49612973D01*
X95650352Y-49612973D01*
X95650352Y-50015140D02*
X95650352Y-50704568D01*
X94443852Y-50359854D02*
X95650352Y-50359854D01*
X95650352Y-51336544D02*
X95650352Y-51566354D01*
X95592900Y-51681259D01*
X95477995Y-51796163D01*
X95248185Y-51853616D01*
X94846019Y-51853616D01*
X94616209Y-51796163D01*
X94501304Y-51681259D01*
X94443852Y-51566354D01*
X94443852Y-51336544D01*
X94501304Y-51221640D01*
X94616209Y-51106735D01*
X94846019Y-51049282D01*
X95248185Y-51049282D01*
X95477995Y-51106735D01*
X95592900Y-51221640D01*
X95650352Y-51336544D01*
X94501304Y-52313235D02*
X94443852Y-52485592D01*
X94443852Y-52772854D01*
X94501304Y-52887759D01*
X94558757Y-52945211D01*
X94673661Y-53002663D01*
X94788566Y-53002663D01*
X94903471Y-52945211D01*
X94960923Y-52887759D01*
X95018376Y-52772854D01*
X95075828Y-52543044D01*
X95133280Y-52428140D01*
X95190733Y-52370687D01*
X95305638Y-52313235D01*
X95420542Y-52313235D01*
X95535447Y-52370687D01*
X95592900Y-52428140D01*
X95650352Y-52543044D01*
X95650352Y-52830306D01*
X95592900Y-53002663D01*
X95650352Y-53347378D02*
X95650352Y-54036806D01*
X94443852Y-53692092D02*
X95650352Y-53692092D01*
X94788566Y-54381520D02*
X94788566Y-54956044D01*
X94443852Y-54266616D02*
X95650352Y-54668782D01*
X94443852Y-55070949D01*
X94443852Y-56162544D02*
X95018376Y-55760378D01*
X94443852Y-55473116D02*
X95650352Y-55473116D01*
X95650352Y-55932735D01*
X95592900Y-56047640D01*
X95535447Y-56105092D01*
X95420542Y-56162544D01*
X95248185Y-56162544D01*
X95133280Y-56105092D01*
X95075828Y-56047640D01*
X95018376Y-55932735D01*
X95018376Y-55473116D01*
X95650352Y-56507259D02*
X95650352Y-57196687D01*
X94443852Y-56851973D02*
X95650352Y-56851973D01*
D11*
%TO.C,C1*%
X133578600Y-128028700D02*
X134213600Y-128028700D01*
X134213600Y-128028700D02*
X134848600Y-128028700D01*
D12*
X134213600Y-128028700D02*
X134213600Y-129247900D01*
D11*
X133578600Y-127393700D02*
X134213600Y-127393700D01*
X134213600Y-127393700D02*
X134848600Y-127393700D01*
D12*
X134213600Y-127393700D02*
X134213600Y-126199900D01*
X133197600Y-131406900D02*
X135229600Y-131406900D01*
X135483600Y-131152900D02*
X135483600Y-124294900D01*
X135229600Y-124040900D02*
X133197600Y-124040900D01*
X132943600Y-124294900D02*
X132943600Y-131152900D01*
X133197600Y-124040900D02*
G75*
G03*
X132943600Y-124294900I0J-254000D01*
G01*
X135229600Y-124040900D02*
G75*
G02*
X135483600Y-124294900I0J-254000D01*
G01*
X135483600Y-131152900D02*
G75*
G02*
X135229600Y-131406900I-254000J0D01*
G01*
X132943600Y-131152900D02*
G75*
G03*
X133197600Y-131406900I254000J0D01*
G01*
%TO.C,U2*%
X141833600Y-101053900D02*
X141833600Y-136613900D01*
X154533600Y-136613900D02*
X154533600Y-101053900D01*
X141833600Y-101053900D02*
X154533600Y-101053900D01*
X141833600Y-136613900D02*
X147167600Y-136613900D01*
X154533600Y-136613900D02*
X149199600Y-136613900D01*
X149199600Y-136613900D02*
G75*
G03*
X147167600Y-136613900I-1016000J0D01*
G01*
D13*
%TO.C,JP1*%
X160248600Y-142328900D02*
X157708600Y-142328900D01*
X157708600Y-142328900D02*
X157708600Y-137248900D01*
X157708600Y-137248900D02*
X160248600Y-137248900D01*
X160248600Y-137248900D02*
X160248600Y-142328900D01*
%TO.C,JP3*%
X136753600Y-143598900D02*
X136753600Y-141058900D01*
X136753600Y-141058900D02*
X144373600Y-141058900D01*
X144373600Y-141058900D02*
X144373600Y-143598900D01*
X144373600Y-143598900D02*
X136753600Y-143598900D01*
%TO.C,JP2*%
X128498600Y-143598900D02*
X128498600Y-141058900D01*
X128498600Y-141058900D02*
X136118600Y-141058900D01*
X136118600Y-141058900D02*
X136118600Y-143598900D01*
X136118600Y-143598900D02*
X128498600Y-143598900D01*
D12*
%TO.C,U1*%
X138658600Y-131533900D02*
X143992600Y-131533900D01*
X151358600Y-131533900D02*
X146024600Y-131533900D01*
X146024600Y-131533900D02*
G75*
G03*
X143992600Y-131533900I-1016000J0D01*
G01*
X151358600Y-131533900D02*
X151358600Y-101053900D01*
X138658600Y-101053900D02*
X151358600Y-101053900D01*
X138658600Y-101053900D02*
X138658600Y-131533900D01*
X138658600Y-46443900D02*
X138658600Y-76923900D01*
X138658600Y-46443900D02*
X151358600Y-46443900D01*
X151358600Y-76923900D02*
X151358600Y-46443900D01*
X146024600Y-76923900D02*
G75*
G03*
X143992600Y-76923900I-1016000J0D01*
G01*
X151358600Y-76923900D02*
X146024600Y-76923900D01*
X138658600Y-76923900D02*
X143992600Y-76923900D01*
D13*
%TO.C,JP1*%
X160248600Y-82638900D02*
X160248600Y-87718900D01*
X157708600Y-82638900D02*
X160248600Y-82638900D01*
X157708600Y-87718900D02*
X157708600Y-82638900D01*
X160248600Y-87718900D02*
X157708600Y-87718900D01*
D12*
%TO.C,C1*%
X132943600Y-76542900D02*
G75*
G03*
X133197600Y-76796900I254000J0D01*
G01*
X135483600Y-76542900D02*
G75*
G02*
X135229600Y-76796900I-254000J0D01*
G01*
X135229600Y-69430900D02*
G75*
G02*
X135483600Y-69684900I0J-254000D01*
G01*
X133197600Y-69430900D02*
G75*
G03*
X132943600Y-69684900I0J-254000D01*
G01*
X132943600Y-69684900D02*
X132943600Y-76542900D01*
X135229600Y-69430900D02*
X133197600Y-69430900D01*
X135483600Y-76542900D02*
X135483600Y-69684900D01*
X133197600Y-76796900D02*
X135229600Y-76796900D01*
X134213600Y-72783700D02*
X134213600Y-71589900D01*
D11*
X134213600Y-72783700D02*
X134848600Y-72783700D01*
X133578600Y-72783700D02*
X134213600Y-72783700D01*
D12*
X134213600Y-73418700D02*
X134213600Y-74637900D01*
D11*
X134213600Y-73418700D02*
X134848600Y-73418700D01*
X133578600Y-73418700D02*
X134213600Y-73418700D01*
D12*
%TO.C,U2*%
X149199600Y-82003900D02*
G75*
G03*
X147167600Y-82003900I-1016000J0D01*
G01*
X154533600Y-82003900D02*
X149199600Y-82003900D01*
X141833600Y-82003900D02*
X147167600Y-82003900D01*
X141833600Y-46443900D02*
X154533600Y-46443900D01*
X154533600Y-82003900D02*
X154533600Y-46443900D01*
X141833600Y-46443900D02*
X141833600Y-82003900D01*
D13*
%TO.C,JP3*%
X144373600Y-88988900D02*
X136753600Y-88988900D01*
X144373600Y-86448900D02*
X144373600Y-88988900D01*
X136753600Y-86448900D02*
X144373600Y-86448900D01*
X136753600Y-88988900D02*
X136753600Y-86448900D01*
%TO.C,JP2*%
X136118600Y-88988900D02*
X128498600Y-88988900D01*
X136118600Y-86448900D02*
X136118600Y-88988900D01*
X128498600Y-86448900D02*
X136118600Y-86448900D01*
X128498600Y-88988900D02*
X128498600Y-86448900D01*
D11*
%TO.C,C1*%
X120421400Y-110731300D02*
X119786400Y-110731300D01*
X119786400Y-110731300D02*
X119151400Y-110731300D01*
D12*
X119786400Y-110731300D02*
X119786400Y-109512100D01*
D11*
X120421400Y-111366300D02*
X119786400Y-111366300D01*
X119786400Y-111366300D02*
X119151400Y-111366300D01*
D12*
X119786400Y-111366300D02*
X119786400Y-112560100D01*
X120802400Y-107353100D02*
X118770400Y-107353100D01*
X118516400Y-107607100D02*
X118516400Y-114465100D01*
X118770400Y-114719100D02*
X120802400Y-114719100D01*
X121056400Y-114465100D02*
X121056400Y-107607100D01*
X120802400Y-114719100D02*
G75*
G03*
X121056400Y-114465100I0J254000D01*
G01*
X118770400Y-114719100D02*
G75*
G02*
X118516400Y-114465100I0J254000D01*
G01*
X118516400Y-107607100D02*
G75*
G02*
X118770400Y-107353100I254000J0D01*
G01*
X121056400Y-107607100D02*
G75*
G03*
X120802400Y-107353100I-254000J0D01*
G01*
%TO.C,U2*%
X112166400Y-137706100D02*
X112166400Y-102146100D01*
X99466400Y-102146100D02*
X99466400Y-137706100D01*
X112166400Y-137706100D02*
X99466400Y-137706100D01*
X112166400Y-102146100D02*
X106832400Y-102146100D01*
X99466400Y-102146100D02*
X104800400Y-102146100D01*
X104800400Y-102146100D02*
G75*
G03*
X106832400Y-102146100I1016000J0D01*
G01*
D13*
%TO.C,JP1*%
X93751400Y-96431100D02*
X96291400Y-96431100D01*
X96291400Y-96431100D02*
X96291400Y-101511100D01*
X96291400Y-101511100D02*
X93751400Y-101511100D01*
X93751400Y-101511100D02*
X93751400Y-96431100D01*
%TO.C,JP3*%
X117246400Y-95161100D02*
X117246400Y-97701100D01*
X117246400Y-97701100D02*
X109626400Y-97701100D01*
X109626400Y-97701100D02*
X109626400Y-95161100D01*
X109626400Y-95161100D02*
X117246400Y-95161100D01*
%TO.C,JP2*%
X125501400Y-95161100D02*
X125501400Y-97701100D01*
X125501400Y-97701100D02*
X117881400Y-97701100D01*
X117881400Y-97701100D02*
X117881400Y-95161100D01*
X117881400Y-95161100D02*
X125501400Y-95161100D01*
D12*
%TO.C,U1*%
X115341400Y-107226100D02*
X110007400Y-107226100D01*
X102641400Y-107226100D02*
X107975400Y-107226100D01*
X107975400Y-107226100D02*
G75*
G03*
X110007400Y-107226100I1016000J0D01*
G01*
X102641400Y-107226100D02*
X102641400Y-137706100D01*
X115341400Y-137706100D02*
X102641400Y-137706100D01*
X115341400Y-137706100D02*
X115341400Y-107226100D01*
X115341400Y-83096100D02*
X115341400Y-52616100D01*
X115341400Y-83096100D02*
X102641400Y-83096100D01*
X102641400Y-52616100D02*
X102641400Y-83096100D01*
X107975400Y-52616100D02*
G75*
G03*
X110007400Y-52616100I1016000J0D01*
G01*
X102641400Y-52616100D02*
X107975400Y-52616100D01*
X115341400Y-52616100D02*
X110007400Y-52616100D01*
%TO.C,C1*%
X121056400Y-52997100D02*
G75*
G03*
X120802400Y-52743100I-254000J0D01*
G01*
X118516400Y-52997100D02*
G75*
G02*
X118770400Y-52743100I254000J0D01*
G01*
X118770400Y-60109100D02*
G75*
G02*
X118516400Y-59855100I0J254000D01*
G01*
X120802400Y-60109100D02*
G75*
G03*
X121056400Y-59855100I0J254000D01*
G01*
X121056400Y-59855100D02*
X121056400Y-52997100D01*
X118770400Y-60109100D02*
X120802400Y-60109100D01*
X118516400Y-52997100D02*
X118516400Y-59855100D01*
X120802400Y-52743100D02*
X118770400Y-52743100D01*
X119786400Y-56756300D02*
X119786400Y-57950100D01*
D11*
X119786400Y-56756300D02*
X119151400Y-56756300D01*
X120421400Y-56756300D02*
X119786400Y-56756300D01*
D12*
X119786400Y-56121300D02*
X119786400Y-54902100D01*
D11*
X119786400Y-56121300D02*
X119151400Y-56121300D01*
X120421400Y-56121300D02*
X119786400Y-56121300D01*
D13*
%TO.C,JP1*%
X93751400Y-46901100D02*
X93751400Y-41821100D01*
X96291400Y-46901100D02*
X93751400Y-46901100D01*
X96291400Y-41821100D02*
X96291400Y-46901100D01*
X93751400Y-41821100D02*
X96291400Y-41821100D01*
D12*
%TO.C,U2*%
X104800400Y-47536100D02*
G75*
G03*
X106832400Y-47536100I1016000J0D01*
G01*
X99466400Y-47536100D02*
X104800400Y-47536100D01*
X112166400Y-47536100D02*
X106832400Y-47536100D01*
X112166400Y-83096100D02*
X99466400Y-83096100D01*
X99466400Y-47536100D02*
X99466400Y-83096100D01*
X112166400Y-83096100D02*
X112166400Y-47536100D01*
D13*
%TO.C,JP2*%
X117881400Y-40551100D02*
X125501400Y-40551100D01*
X117881400Y-43091100D02*
X117881400Y-40551100D01*
X125501400Y-43091100D02*
X117881400Y-43091100D01*
X125501400Y-40551100D02*
X125501400Y-43091100D01*
%TO.C,JP3*%
X109626400Y-40551100D02*
X117246400Y-40551100D01*
X109626400Y-43091100D02*
X109626400Y-40551100D01*
X117246400Y-43091100D02*
X109626400Y-43091100D01*
X117246400Y-40551100D02*
X117246400Y-43091100D01*
%TO.C,C1*%
D14*
X134803242Y-122350787D02*
X134860695Y-122408239D01*
X134918147Y-122580596D01*
X134918147Y-122695501D01*
X134860695Y-122867858D01*
X134745790Y-122982763D01*
X134630885Y-123040215D01*
X134401076Y-123097667D01*
X134228719Y-123097667D01*
X133998909Y-123040215D01*
X133884004Y-122982763D01*
X133769100Y-122867858D01*
X133711647Y-122695501D01*
X133711647Y-122580596D01*
X133769100Y-122408239D01*
X133826552Y-122350787D01*
X134918147Y-121201739D02*
X134918147Y-121891167D01*
X134918147Y-121546453D02*
X133711647Y-121546453D01*
X133884004Y-121661358D01*
X133998909Y-121776263D01*
X134056361Y-121891167D01*
%TO.C,U2*%
D15*
X149424123Y-135984947D02*
X149424123Y-136961638D01*
X149481576Y-137076542D01*
X149539028Y-137133995D01*
X149653933Y-137191447D01*
X149883742Y-137191447D01*
X149998647Y-137133995D01*
X150056100Y-137076542D01*
X150113552Y-136961638D01*
X150113552Y-135984947D01*
X150630623Y-136099852D02*
X150688076Y-136042400D01*
X150802981Y-135984947D01*
X151090242Y-135984947D01*
X151205147Y-136042400D01*
X151262600Y-136099852D01*
X151320052Y-136214757D01*
X151320052Y-136329661D01*
X151262600Y-136502019D01*
X150573171Y-137191447D01*
X151320052Y-137191447D01*
%TO.C,JP1*%
X155936647Y-139729185D02*
X156798433Y-139729185D01*
X156970790Y-139786638D01*
X157085695Y-139901542D01*
X157143147Y-140073900D01*
X157143147Y-140188804D01*
X157143147Y-139154662D02*
X155936647Y-139154662D01*
X155936647Y-138695042D01*
X155994100Y-138580138D01*
X156051552Y-138522685D01*
X156166457Y-138465233D01*
X156338814Y-138465233D01*
X156453719Y-138522685D01*
X156511171Y-138580138D01*
X156568623Y-138695042D01*
X156568623Y-139154662D01*
X157143147Y-137316185D02*
X157143147Y-138005614D01*
X157143147Y-137660900D02*
X155936647Y-137660900D01*
X156109004Y-137775804D01*
X156223909Y-137890709D01*
X156281361Y-138005614D01*
%TO.C,P1*%
X159048147Y-145153900D02*
X157841647Y-145153900D01*
X157841647Y-144694281D01*
X157899100Y-144579376D01*
X157956552Y-144521923D01*
X158071457Y-144464471D01*
X158243814Y-144464471D01*
X158358719Y-144521923D01*
X158416171Y-144579376D01*
X158473623Y-144694281D01*
X158473623Y-145153900D01*
X159048147Y-143315423D02*
X159048147Y-144004852D01*
X159048147Y-143660138D02*
X157841647Y-143660138D01*
X158014004Y-143775042D01*
X158128909Y-143889947D01*
X158186361Y-144004852D01*
D10*
X160826147Y-143254185D02*
X160826147Y-143943614D01*
X160826147Y-143598900D02*
X159619647Y-143598900D01*
X159792004Y-143713804D01*
X159906909Y-143828709D01*
X159964361Y-143943614D01*
X159619647Y-96315590D02*
X159619647Y-95568709D01*
X160079266Y-95970876D01*
X160079266Y-95798519D01*
X160136719Y-95683614D01*
X160194171Y-95626161D01*
X160309076Y-95568709D01*
X160596338Y-95568709D01*
X160711242Y-95626161D01*
X160768695Y-95683614D01*
X160826147Y-95798519D01*
X160826147Y-96143233D01*
X160768695Y-96258138D01*
X160711242Y-96315590D01*
X160826147Y-94994185D02*
X160826147Y-94764376D01*
X160768695Y-94649471D01*
X160711242Y-94592019D01*
X160538885Y-94477114D01*
X160309076Y-94419661D01*
X159849457Y-94419661D01*
X159734552Y-94477114D01*
X159677100Y-94534566D01*
X159619647Y-94649471D01*
X159619647Y-94879280D01*
X159677100Y-94994185D01*
X159734552Y-95051638D01*
X159849457Y-95109090D01*
X160136719Y-95109090D01*
X160251623Y-95051638D01*
X160309076Y-94994185D01*
X160366528Y-94879280D01*
X160366528Y-94649471D01*
X160309076Y-94534566D01*
X160251623Y-94477114D01*
X160136719Y-94419661D01*
%TO.C,JP3*%
D15*
X139382052Y-142842947D02*
X139382052Y-143704733D01*
X139324600Y-143877090D01*
X139209695Y-143991995D01*
X139037338Y-144049447D01*
X138922433Y-144049447D01*
X139956576Y-144049447D02*
X139956576Y-142842947D01*
X140416195Y-142842947D01*
X140531100Y-142900400D01*
X140588552Y-142957852D01*
X140646004Y-143072757D01*
X140646004Y-143245114D01*
X140588552Y-143360019D01*
X140531100Y-143417471D01*
X140416195Y-143474923D01*
X139956576Y-143474923D01*
X141048171Y-142842947D02*
X141795052Y-142842947D01*
X141392885Y-143302566D01*
X141565242Y-143302566D01*
X141680147Y-143360019D01*
X141737600Y-143417471D01*
X141795052Y-143532376D01*
X141795052Y-143819638D01*
X141737600Y-143934542D01*
X141680147Y-143991995D01*
X141565242Y-144049447D01*
X141220528Y-144049447D01*
X141105623Y-143991995D01*
X141048171Y-143934542D01*
%TO.C,JP2*%
X131127052Y-142842947D02*
X131127052Y-143704733D01*
X131069600Y-143877090D01*
X130954695Y-143991995D01*
X130782338Y-144049447D01*
X130667433Y-144049447D01*
X131701576Y-144049447D02*
X131701576Y-142842947D01*
X132161195Y-142842947D01*
X132276100Y-142900400D01*
X132333552Y-142957852D01*
X132391004Y-143072757D01*
X132391004Y-143245114D01*
X132333552Y-143360019D01*
X132276100Y-143417471D01*
X132161195Y-143474923D01*
X131701576Y-143474923D01*
X132850623Y-142957852D02*
X132908076Y-142900400D01*
X133022981Y-142842947D01*
X133310242Y-142842947D01*
X133425147Y-142900400D01*
X133482600Y-142957852D01*
X133540052Y-143072757D01*
X133540052Y-143187661D01*
X133482600Y-143360019D01*
X132793171Y-144049447D01*
X133540052Y-144049447D01*
%TO.C,U1*%
D14*
X145979439Y-130777947D02*
X145979439Y-131754638D01*
X146036891Y-131869542D01*
X146094344Y-131926995D01*
X146209248Y-131984447D01*
X146439058Y-131984447D01*
X146553963Y-131926995D01*
X146611415Y-131869542D01*
X146668867Y-131754638D01*
X146668867Y-130777947D01*
X147875367Y-131984447D02*
X147185939Y-131984447D01*
X147530653Y-131984447D02*
X147530653Y-130777947D01*
X147415748Y-130950304D01*
X147300844Y-131065209D01*
X147185939Y-131122661D01*
%TO.C,P1*%
D15*
X159048147Y-90543900D02*
X157841647Y-90543900D01*
X157841647Y-90084281D01*
X157899100Y-89969376D01*
X157956552Y-89911923D01*
X158071457Y-89854471D01*
X158243814Y-89854471D01*
X158358719Y-89911923D01*
X158416171Y-89969376D01*
X158473623Y-90084281D01*
X158473623Y-90543900D01*
X159048147Y-88705423D02*
X159048147Y-89394852D01*
X159048147Y-89050138D02*
X157841647Y-89050138D01*
X158014004Y-89165042D01*
X158128909Y-89279947D01*
X158186361Y-89394852D01*
D10*
X159619647Y-41705590D02*
X159619647Y-40958709D01*
X160079266Y-41360876D01*
X160079266Y-41188519D01*
X160136719Y-41073614D01*
X160194171Y-41016161D01*
X160309076Y-40958709D01*
X160596338Y-40958709D01*
X160711242Y-41016161D01*
X160768695Y-41073614D01*
X160826147Y-41188519D01*
X160826147Y-41533233D01*
X160768695Y-41648138D01*
X160711242Y-41705590D01*
X160826147Y-40384185D02*
X160826147Y-40154376D01*
X160768695Y-40039471D01*
X160711242Y-39982019D01*
X160538885Y-39867114D01*
X160309076Y-39809661D01*
X159849457Y-39809661D01*
X159734552Y-39867114D01*
X159677100Y-39924566D01*
X159619647Y-40039471D01*
X159619647Y-40269280D01*
X159677100Y-40384185D01*
X159734552Y-40441638D01*
X159849457Y-40499090D01*
X160136719Y-40499090D01*
X160251623Y-40441638D01*
X160309076Y-40384185D01*
X160366528Y-40269280D01*
X160366528Y-40039471D01*
X160309076Y-39924566D01*
X160251623Y-39867114D01*
X160136719Y-39809661D01*
X160826147Y-88644185D02*
X160826147Y-89333614D01*
X160826147Y-88988900D02*
X159619647Y-88988900D01*
X159792004Y-89103804D01*
X159906909Y-89218709D01*
X159964361Y-89333614D01*
%TO.C,U1*%
D14*
X145979439Y-76167947D02*
X145979439Y-77144638D01*
X146036891Y-77259542D01*
X146094344Y-77316995D01*
X146209248Y-77374447D01*
X146439058Y-77374447D01*
X146553963Y-77316995D01*
X146611415Y-77259542D01*
X146668867Y-77144638D01*
X146668867Y-76167947D01*
X147875367Y-77374447D02*
X147185939Y-77374447D01*
X147530653Y-77374447D02*
X147530653Y-76167947D01*
X147415748Y-76340304D01*
X147300844Y-76455209D01*
X147185939Y-76512661D01*
%TO.C,JP1*%
D15*
X155936647Y-85119185D02*
X156798433Y-85119185D01*
X156970790Y-85176638D01*
X157085695Y-85291542D01*
X157143147Y-85463900D01*
X157143147Y-85578804D01*
X157143147Y-84544662D02*
X155936647Y-84544662D01*
X155936647Y-84085042D01*
X155994100Y-83970138D01*
X156051552Y-83912685D01*
X156166457Y-83855233D01*
X156338814Y-83855233D01*
X156453719Y-83912685D01*
X156511171Y-83970138D01*
X156568623Y-84085042D01*
X156568623Y-84544662D01*
X157143147Y-82706185D02*
X157143147Y-83395614D01*
X157143147Y-83050900D02*
X155936647Y-83050900D01*
X156109004Y-83165804D01*
X156223909Y-83280709D01*
X156281361Y-83395614D01*
%TO.C,C1*%
D14*
X134803242Y-67740787D02*
X134860695Y-67798239D01*
X134918147Y-67970596D01*
X134918147Y-68085501D01*
X134860695Y-68257858D01*
X134745790Y-68372763D01*
X134630885Y-68430215D01*
X134401076Y-68487667D01*
X134228719Y-68487667D01*
X133998909Y-68430215D01*
X133884004Y-68372763D01*
X133769100Y-68257858D01*
X133711647Y-68085501D01*
X133711647Y-67970596D01*
X133769100Y-67798239D01*
X133826552Y-67740787D01*
X134918147Y-66591739D02*
X134918147Y-67281167D01*
X134918147Y-66936453D02*
X133711647Y-66936453D01*
X133884004Y-67051358D01*
X133998909Y-67166263D01*
X134056361Y-67281167D01*
%TO.C,U2*%
D15*
X149424123Y-81374947D02*
X149424123Y-82351638D01*
X149481576Y-82466542D01*
X149539028Y-82523995D01*
X149653933Y-82581447D01*
X149883742Y-82581447D01*
X149998647Y-82523995D01*
X150056100Y-82466542D01*
X150113552Y-82351638D01*
X150113552Y-81374947D01*
X150630623Y-81489852D02*
X150688076Y-81432400D01*
X150802981Y-81374947D01*
X151090242Y-81374947D01*
X151205147Y-81432400D01*
X151262600Y-81489852D01*
X151320052Y-81604757D01*
X151320052Y-81719661D01*
X151262600Y-81892019D01*
X150573171Y-82581447D01*
X151320052Y-82581447D01*
%TO.C,JP3*%
X139382052Y-88232947D02*
X139382052Y-89094733D01*
X139324600Y-89267090D01*
X139209695Y-89381995D01*
X139037338Y-89439447D01*
X138922433Y-89439447D01*
X139956576Y-89439447D02*
X139956576Y-88232947D01*
X140416195Y-88232947D01*
X140531100Y-88290400D01*
X140588552Y-88347852D01*
X140646004Y-88462757D01*
X140646004Y-88635114D01*
X140588552Y-88750019D01*
X140531100Y-88807471D01*
X140416195Y-88864923D01*
X139956576Y-88864923D01*
X141048171Y-88232947D02*
X141795052Y-88232947D01*
X141392885Y-88692566D01*
X141565242Y-88692566D01*
X141680147Y-88750019D01*
X141737600Y-88807471D01*
X141795052Y-88922376D01*
X141795052Y-89209638D01*
X141737600Y-89324542D01*
X141680147Y-89381995D01*
X141565242Y-89439447D01*
X141220528Y-89439447D01*
X141105623Y-89381995D01*
X141048171Y-89324542D01*
%TO.C,JP2*%
X131127052Y-88232947D02*
X131127052Y-89094733D01*
X131069600Y-89267090D01*
X130954695Y-89381995D01*
X130782338Y-89439447D01*
X130667433Y-89439447D01*
X131701576Y-89439447D02*
X131701576Y-88232947D01*
X132161195Y-88232947D01*
X132276100Y-88290400D01*
X132333552Y-88347852D01*
X132391004Y-88462757D01*
X132391004Y-88635114D01*
X132333552Y-88750019D01*
X132276100Y-88807471D01*
X132161195Y-88864923D01*
X131701576Y-88864923D01*
X132850623Y-88347852D02*
X132908076Y-88290400D01*
X133022981Y-88232947D01*
X133310242Y-88232947D01*
X133425147Y-88290400D01*
X133482600Y-88347852D01*
X133540052Y-88462757D01*
X133540052Y-88577661D01*
X133482600Y-88750019D01*
X132793171Y-89439447D01*
X133540052Y-89439447D01*
%TO.C,C1*%
D14*
X118852042Y-116811379D02*
X118909495Y-116868832D01*
X118966947Y-117041189D01*
X118966947Y-117156093D01*
X118909495Y-117328451D01*
X118794590Y-117443355D01*
X118679685Y-117500808D01*
X118449876Y-117558260D01*
X118277519Y-117558260D01*
X118047709Y-117500808D01*
X117932804Y-117443355D01*
X117817900Y-117328451D01*
X117760447Y-117156093D01*
X117760447Y-117041189D01*
X117817900Y-116868832D01*
X117875352Y-116811379D01*
X118966947Y-115662332D02*
X118966947Y-116351760D01*
X118966947Y-116007046D02*
X117760447Y-116007046D01*
X117932804Y-116121951D01*
X118047709Y-116236855D01*
X118105161Y-116351760D01*
%TO.C,U2*%
D15*
X102737399Y-100247147D02*
X102737399Y-101223838D01*
X102794852Y-101338742D01*
X102852304Y-101396195D01*
X102967209Y-101453647D01*
X103197018Y-101453647D01*
X103311923Y-101396195D01*
X103369376Y-101338742D01*
X103426828Y-101223838D01*
X103426828Y-100247147D01*
X103943899Y-100362052D02*
X104001352Y-100304600D01*
X104116257Y-100247147D01*
X104403518Y-100247147D01*
X104518423Y-100304600D01*
X104575876Y-100362052D01*
X104633328Y-100476957D01*
X104633328Y-100591861D01*
X104575876Y-100764219D01*
X103886447Y-101453647D01*
X104633328Y-101453647D01*
%TO.C,JP1*%
X95535447Y-101041647D02*
X96397233Y-101041647D01*
X96569590Y-101099099D01*
X96684495Y-101214004D01*
X96741947Y-101386361D01*
X96741947Y-101501266D01*
X96741947Y-100467123D02*
X95535447Y-100467123D01*
X95535447Y-100007504D01*
X95592900Y-99892599D01*
X95650352Y-99835147D01*
X95765257Y-99777695D01*
X95937614Y-99777695D01*
X96052519Y-99835147D01*
X96109971Y-99892599D01*
X96167423Y-100007504D01*
X96167423Y-100467123D01*
X96741947Y-98628647D02*
X96741947Y-99318076D01*
X96741947Y-98973361D02*
X95535447Y-98973361D01*
X95707804Y-99088266D01*
X95822709Y-99203171D01*
X95880161Y-99318076D01*
%TO.C,P1*%
X94836947Y-95387123D02*
X93630447Y-95387123D01*
X93630447Y-94927504D01*
X93687900Y-94812599D01*
X93745352Y-94755147D01*
X93860257Y-94697695D01*
X94032614Y-94697695D01*
X94147519Y-94755147D01*
X94204971Y-94812599D01*
X94262423Y-94927504D01*
X94262423Y-95387123D01*
X94836947Y-93548647D02*
X94836947Y-94238076D01*
X94836947Y-93893361D02*
X93630447Y-93893361D01*
X93802804Y-94008266D01*
X93917709Y-94123171D01*
X93975161Y-94238076D01*
D10*
X93058947Y-94816385D02*
X93058947Y-95505814D01*
X93058947Y-95161100D02*
X91852447Y-95161100D01*
X92024804Y-95276004D01*
X92139709Y-95390909D01*
X92197161Y-95505814D01*
X91852447Y-144397790D02*
X91852447Y-143650909D01*
X92312066Y-144053076D01*
X92312066Y-143880719D01*
X92369519Y-143765814D01*
X92426971Y-143708361D01*
X92541876Y-143650909D01*
X92829138Y-143650909D01*
X92944042Y-143708361D01*
X93001495Y-143765814D01*
X93058947Y-143880719D01*
X93058947Y-144225433D01*
X93001495Y-144340338D01*
X92944042Y-144397790D01*
X93058947Y-143076385D02*
X93058947Y-142846576D01*
X93001495Y-142731671D01*
X92944042Y-142674219D01*
X92771685Y-142559314D01*
X92541876Y-142501861D01*
X92082257Y-142501861D01*
X91967352Y-142559314D01*
X91909900Y-142616766D01*
X91852447Y-142731671D01*
X91852447Y-142961480D01*
X91909900Y-143076385D01*
X91967352Y-143133838D01*
X92082257Y-143191290D01*
X92369519Y-143191290D01*
X92484423Y-143133838D01*
X92541876Y-143076385D01*
X92599328Y-142961480D01*
X92599328Y-142731671D01*
X92541876Y-142616766D01*
X92484423Y-142559314D01*
X92369519Y-142501861D01*
%TO.C,JP3*%
D15*
X112607114Y-93389147D02*
X112607114Y-94250933D01*
X112549661Y-94423290D01*
X112434757Y-94538195D01*
X112262399Y-94595647D01*
X112147495Y-94595647D01*
X113181638Y-94595647D02*
X113181638Y-93389147D01*
X113641257Y-93389147D01*
X113756161Y-93446600D01*
X113813614Y-93504052D01*
X113871066Y-93618957D01*
X113871066Y-93791314D01*
X113813614Y-93906219D01*
X113756161Y-93963671D01*
X113641257Y-94021123D01*
X113181638Y-94021123D01*
X114273233Y-93389147D02*
X115020114Y-93389147D01*
X114617947Y-93848766D01*
X114790304Y-93848766D01*
X114905209Y-93906219D01*
X114962661Y-93963671D01*
X115020114Y-94078576D01*
X115020114Y-94365838D01*
X114962661Y-94480742D01*
X114905209Y-94538195D01*
X114790304Y-94595647D01*
X114445590Y-94595647D01*
X114330685Y-94538195D01*
X114273233Y-94480742D01*
%TO.C,JP2*%
X120862114Y-93389147D02*
X120862114Y-94250933D01*
X120804661Y-94423290D01*
X120689757Y-94538195D01*
X120517399Y-94595647D01*
X120402495Y-94595647D01*
X121436638Y-94595647D02*
X121436638Y-93389147D01*
X121896257Y-93389147D01*
X122011161Y-93446600D01*
X122068614Y-93504052D01*
X122126066Y-93618957D01*
X122126066Y-93791314D01*
X122068614Y-93906219D01*
X122011161Y-93963671D01*
X121896257Y-94021123D01*
X121436638Y-94021123D01*
X122585685Y-93504052D02*
X122643138Y-93446600D01*
X122758042Y-93389147D01*
X123045304Y-93389147D01*
X123160209Y-93446600D01*
X123217661Y-93504052D01*
X123275114Y-93618957D01*
X123275114Y-93733861D01*
X123217661Y-93906219D01*
X122528233Y-94595647D01*
X123275114Y-94595647D01*
%TO.C,U1*%
D14*
X106182084Y-105454147D02*
X106182084Y-106430838D01*
X106239536Y-106545742D01*
X106296989Y-106603195D01*
X106411893Y-106660647D01*
X106641703Y-106660647D01*
X106756608Y-106603195D01*
X106814060Y-106545742D01*
X106871512Y-106430838D01*
X106871512Y-105454147D01*
X108078012Y-106660647D02*
X107388584Y-106660647D01*
X107733298Y-106660647D02*
X107733298Y-105454147D01*
X107618393Y-105626504D01*
X107503489Y-105741409D01*
X107388584Y-105798861D01*
%TO.C,P1*%
D15*
X94836947Y-40777123D02*
X93630447Y-40777123D01*
X93630447Y-40317504D01*
X93687900Y-40202599D01*
X93745352Y-40145147D01*
X93860257Y-40087695D01*
X94032614Y-40087695D01*
X94147519Y-40145147D01*
X94204971Y-40202599D01*
X94262423Y-40317504D01*
X94262423Y-40777123D01*
X94836947Y-38938647D02*
X94836947Y-39628076D01*
X94836947Y-39283361D02*
X93630447Y-39283361D01*
X93802804Y-39398266D01*
X93917709Y-39513171D01*
X93975161Y-39628076D01*
D10*
X91852447Y-89787790D02*
X91852447Y-89040909D01*
X92312066Y-89443076D01*
X92312066Y-89270719D01*
X92369519Y-89155814D01*
X92426971Y-89098361D01*
X92541876Y-89040909D01*
X92829138Y-89040909D01*
X92944042Y-89098361D01*
X93001495Y-89155814D01*
X93058947Y-89270719D01*
X93058947Y-89615433D01*
X93001495Y-89730338D01*
X92944042Y-89787790D01*
X93058947Y-88466385D02*
X93058947Y-88236576D01*
X93001495Y-88121671D01*
X92944042Y-88064219D01*
X92771685Y-87949314D01*
X92541876Y-87891861D01*
X92082257Y-87891861D01*
X91967352Y-87949314D01*
X91909900Y-88006766D01*
X91852447Y-88121671D01*
X91852447Y-88351480D01*
X91909900Y-88466385D01*
X91967352Y-88523838D01*
X92082257Y-88581290D01*
X92369519Y-88581290D01*
X92484423Y-88523838D01*
X92541876Y-88466385D01*
X92599328Y-88351480D01*
X92599328Y-88121671D01*
X92541876Y-88006766D01*
X92484423Y-87949314D01*
X92369519Y-87891861D01*
X93058947Y-40206385D02*
X93058947Y-40895814D01*
X93058947Y-40551100D02*
X91852447Y-40551100D01*
X92024804Y-40666004D01*
X92139709Y-40780909D01*
X92197161Y-40895814D01*
%TO.C,U1*%
D14*
X106182084Y-50844147D02*
X106182084Y-51820838D01*
X106239536Y-51935742D01*
X106296989Y-51993195D01*
X106411893Y-52050647D01*
X106641703Y-52050647D01*
X106756608Y-51993195D01*
X106814060Y-51935742D01*
X106871512Y-51820838D01*
X106871512Y-50844147D01*
X108078012Y-52050647D02*
X107388584Y-52050647D01*
X107733298Y-52050647D02*
X107733298Y-50844147D01*
X107618393Y-51016504D01*
X107503489Y-51131409D01*
X107388584Y-51188861D01*
%TO.C,C1*%
X118852042Y-62201379D02*
X118909495Y-62258832D01*
X118966947Y-62431189D01*
X118966947Y-62546093D01*
X118909495Y-62718451D01*
X118794590Y-62833355D01*
X118679685Y-62890808D01*
X118449876Y-62948260D01*
X118277519Y-62948260D01*
X118047709Y-62890808D01*
X117932804Y-62833355D01*
X117817900Y-62718451D01*
X117760447Y-62546093D01*
X117760447Y-62431189D01*
X117817900Y-62258832D01*
X117875352Y-62201379D01*
X118966947Y-61052332D02*
X118966947Y-61741760D01*
X118966947Y-61397046D02*
X117760447Y-61397046D01*
X117932804Y-61511951D01*
X118047709Y-61626855D01*
X118105161Y-61741760D01*
%TO.C,JP1*%
D15*
X95535447Y-46431647D02*
X96397233Y-46431647D01*
X96569590Y-46489099D01*
X96684495Y-46604004D01*
X96741947Y-46776361D01*
X96741947Y-46891266D01*
X96741947Y-45857123D02*
X95535447Y-45857123D01*
X95535447Y-45397504D01*
X95592900Y-45282599D01*
X95650352Y-45225147D01*
X95765257Y-45167695D01*
X95937614Y-45167695D01*
X96052519Y-45225147D01*
X96109971Y-45282599D01*
X96167423Y-45397504D01*
X96167423Y-45857123D01*
X96741947Y-44018647D02*
X96741947Y-44708076D01*
X96741947Y-44363361D02*
X95535447Y-44363361D01*
X95707804Y-44478266D01*
X95822709Y-44593171D01*
X95880161Y-44708076D01*
%TO.C,U2*%
X102737399Y-45637147D02*
X102737399Y-46613838D01*
X102794852Y-46728742D01*
X102852304Y-46786195D01*
X102967209Y-46843647D01*
X103197018Y-46843647D01*
X103311923Y-46786195D01*
X103369376Y-46728742D01*
X103426828Y-46613838D01*
X103426828Y-45637147D01*
X103943899Y-45752052D02*
X104001352Y-45694600D01*
X104116257Y-45637147D01*
X104403518Y-45637147D01*
X104518423Y-45694600D01*
X104575876Y-45752052D01*
X104633328Y-45866957D01*
X104633328Y-45981861D01*
X104575876Y-46154219D01*
X103886447Y-46843647D01*
X104633328Y-46843647D01*
%TO.C,JP2*%
X120862114Y-38779147D02*
X120862114Y-39640933D01*
X120804661Y-39813290D01*
X120689757Y-39928195D01*
X120517399Y-39985647D01*
X120402495Y-39985647D01*
X121436638Y-39985647D02*
X121436638Y-38779147D01*
X121896257Y-38779147D01*
X122011161Y-38836600D01*
X122068614Y-38894052D01*
X122126066Y-39008957D01*
X122126066Y-39181314D01*
X122068614Y-39296219D01*
X122011161Y-39353671D01*
X121896257Y-39411123D01*
X121436638Y-39411123D01*
X122585685Y-38894052D02*
X122643138Y-38836600D01*
X122758042Y-38779147D01*
X123045304Y-38779147D01*
X123160209Y-38836600D01*
X123217661Y-38894052D01*
X123275114Y-39008957D01*
X123275114Y-39123861D01*
X123217661Y-39296219D01*
X122528233Y-39985647D01*
X123275114Y-39985647D01*
%TO.C,JP3*%
X112607114Y-38779147D02*
X112607114Y-39640933D01*
X112549661Y-39813290D01*
X112434757Y-39928195D01*
X112262399Y-39985647D01*
X112147495Y-39985647D01*
X113181638Y-39985647D02*
X113181638Y-38779147D01*
X113641257Y-38779147D01*
X113756161Y-38836600D01*
X113813614Y-38894052D01*
X113871066Y-39008957D01*
X113871066Y-39181314D01*
X113813614Y-39296219D01*
X113756161Y-39353671D01*
X113641257Y-39411123D01*
X113181638Y-39411123D01*
X114273233Y-38779147D02*
X115020114Y-38779147D01*
X114617947Y-39238766D01*
X114790304Y-39238766D01*
X114905209Y-39296219D01*
X114962661Y-39353671D01*
X115020114Y-39468576D01*
X115020114Y-39755838D01*
X114962661Y-39870742D01*
X114905209Y-39928195D01*
X114790304Y-39985647D01*
X114445590Y-39985647D01*
X114330685Y-39928195D01*
X114273233Y-39870742D01*
%TD*%
M02*
